<mxfile host="app.diagrams.net" modified="2023-10-21T20:54:52.377Z" agent="Mozilla/5.0 (Macintosh; Intel Mac OS X 10_15_7) AppleWebKit/537.36 (KHTML, like Gecko) Chrome/118.0.0.0 Safari/537.36" etag="8qch3LXKvnHhzuLIDNF9" version="22.0.6" type="github" pages="8">
  <diagram name="Drill down - Client Registration flow" id="cY7f4eGkr6tP4W8T8UiW">
    <mxGraphModel dx="1715" dy="2183" grid="1" gridSize="10" guides="1" tooltips="1" connect="1" arrows="1" fold="1" page="1" pageScale="1" pageWidth="850" pageHeight="1100" math="0" shadow="0">
      <root>
        <mxCell id="Uqz3qc1_EBIvRJODGDup-0" />
        <mxCell id="Uqz3qc1_EBIvRJODGDup-1" parent="Uqz3qc1_EBIvRJODGDup-0" />
        <mxCell id="Uqz3qc1_EBIvRJODGDup-2" value="exp-ride-x-press" style="swimlane;horizontal=0;whiteSpace=wrap;html=1;" parent="Uqz3qc1_EBIvRJODGDup-1" vertex="1">
          <mxGeometry x="40" y="300" width="1110" height="200" as="geometry" />
        </mxCell>
        <mxCell id="Uqz3qc1_EBIvRJODGDup-3" value="Validations based on RAML" style="points=[[0.25,0,0],[0.5,0,0],[0.75,0,0],[1,0.25,0],[1,0.5,0],[1,0.75,0],[0.75,1,0],[0.5,1,0],[0.25,1,0],[0,0.75,0],[0,0.5,0],[0,0.25,0]];shape=mxgraph.bpmn.task;whiteSpace=wrap;rectStyle=rounded;size=10;html=1;container=1;expand=0;collapsible=0;taskMarker=abstract;" parent="Uqz3qc1_EBIvRJODGDup-2" vertex="1">
          <mxGeometry x="359" y="50" width="120" height="80" as="geometry" />
        </mxCell>
        <mxCell id="7EMz--ndRc-FFF1v50o7-20" value="Validations based on RAML" style="points=[[0.25,0,0],[0.5,0,0],[0.75,0,0],[1,0.25,0],[1,0.5,0],[1,0.75,0],[0.75,1,0],[0.5,1,0],[0.25,1,0],[0,0.75,0],[0,0.5,0],[0,0.25,0]];shape=mxgraph.bpmn.task;whiteSpace=wrap;rectStyle=rounded;size=10;html=1;container=1;expand=0;collapsible=0;taskMarker=abstract;" parent="Uqz3qc1_EBIvRJODGDup-2" vertex="1">
          <mxGeometry x="720" y="50" width="120" height="80" as="geometry" />
        </mxCell>
        <mxCell id="Uqz3qc1_EBIvRJODGDup-7" value="Client" style="swimlane;horizontal=0;whiteSpace=wrap;html=1;" parent="Uqz3qc1_EBIvRJODGDup-1" vertex="1">
          <mxGeometry x="40" y="500" width="1110" height="200" as="geometry" />
        </mxCell>
        <mxCell id="Uqz3qc1_EBIvRJODGDup-8" style="edgeStyle=orthogonalEdgeStyle;rounded=0;orthogonalLoop=1;jettySize=auto;html=1;entryX=0;entryY=0.5;entryDx=0;entryDy=0;entryPerimeter=0;" parent="Uqz3qc1_EBIvRJODGDup-7" source="Uqz3qc1_EBIvRJODGDup-9" target="Uqz3qc1_EBIvRJODGDup-10" edge="1">
          <mxGeometry relative="1" as="geometry" />
        </mxCell>
        <mxCell id="Uqz3qc1_EBIvRJODGDup-9" value="" style="points=[[0.145,0.145,0],[0.5,0,0],[0.855,0.145,0],[1,0.5,0],[0.855,0.855,0],[0.5,1,0],[0.145,0.855,0],[0,0.5,0]];shape=mxgraph.bpmn.event;html=1;verticalLabelPosition=bottom;labelBackgroundColor=#ffffff;verticalAlign=top;align=center;perimeter=ellipsePerimeter;outlineConnect=0;aspect=fixed;outline=standard;symbol=general;" parent="Uqz3qc1_EBIvRJODGDup-7" vertex="1">
          <mxGeometry x="70" y="75" width="50" height="50" as="geometry" />
        </mxCell>
        <mxCell id="Uqz3qc1_EBIvRJODGDup-10" value="Starts app" style="points=[[0.25,0,0],[0.5,0,0],[0.75,0,0],[1,0.25,0],[1,0.5,0],[1,0.75,0],[0.75,1,0],[0.5,1,0],[0.25,1,0],[0,0.75,0],[0,0.5,0],[0,0.25,0]];shape=mxgraph.bpmn.task;whiteSpace=wrap;rectStyle=rounded;size=10;html=1;container=1;expand=0;collapsible=0;taskMarker=abstract;" parent="Uqz3qc1_EBIvRJODGDup-7" vertex="1">
          <mxGeometry x="180" y="60" width="120" height="80" as="geometry" />
        </mxCell>
        <mxCell id="Uqz3qc1_EBIvRJODGDup-11" value="Complete registration form" style="points=[[0.25,0,0],[0.5,0,0],[0.75,0,0],[1,0.25,0],[1,0.5,0],[1,0.75,0],[0.75,1,0],[0.5,1,0],[0.25,1,0],[0,0.75,0],[0,0.5,0],[0,0.25,0]];shape=mxgraph.bpmn.task;whiteSpace=wrap;rectStyle=rounded;size=10;html=1;container=1;expand=0;collapsible=0;taskMarker=abstract;" parent="Uqz3qc1_EBIvRJODGDup-7" vertex="1">
          <mxGeometry x="359" y="60" width="120" height="80" as="geometry" />
        </mxCell>
        <mxCell id="Uqz3qc1_EBIvRJODGDup-12" style="edgeStyle=orthogonalEdgeStyle;rounded=0;orthogonalLoop=1;jettySize=auto;html=1;" parent="Uqz3qc1_EBIvRJODGDup-7" source="Uqz3qc1_EBIvRJODGDup-10" target="Uqz3qc1_EBIvRJODGDup-11" edge="1">
          <mxGeometry relative="1" as="geometry" />
        </mxCell>
        <mxCell id="Uqz3qc1_EBIvRJODGDup-13" value="" style="ellipse;whiteSpace=wrap;html=1;aspect=fixed;fillColor=#000000;" parent="Uqz3qc1_EBIvRJODGDup-7" vertex="1">
          <mxGeometry x="1040" y="45" width="50" height="50" as="geometry" />
        </mxCell>
        <mxCell id="Uqz3qc1_EBIvRJODGDup-14" value="App is in it&#39;s main menu for client&amp;nbsp;" style="points=[[0.25,0,0],[0.5,0,0],[0.75,0,0],[1,0.25,0],[1,0.5,0],[1,0.75,0],[0.75,1,0],[0.5,1,0],[0.25,1,0],[0,0.75,0],[0,0.5,0],[0,0.25,0]];shape=mxgraph.bpmn.task;whiteSpace=wrap;rectStyle=rounded;size=10;html=1;container=1;expand=0;collapsible=0;taskMarker=abstract;" parent="Uqz3qc1_EBIvRJODGDup-7" vertex="1">
          <mxGeometry x="870" y="30" width="120" height="80" as="geometry" />
        </mxCell>
        <mxCell id="Uqz3qc1_EBIvRJODGDup-15" value="" style="edgeStyle=orthogonalEdgeStyle;rounded=0;orthogonalLoop=1;jettySize=auto;html=1;" parent="Uqz3qc1_EBIvRJODGDup-7" source="Uqz3qc1_EBIvRJODGDup-14" target="Uqz3qc1_EBIvRJODGDup-13" edge="1">
          <mxGeometry relative="1" as="geometry" />
        </mxCell>
        <mxCell id="Uqz3qc1_EBIvRJODGDup-16" value="Complete with code" style="points=[[0.25,0,0],[0.5,0,0],[0.75,0,0],[1,0.25,0],[1,0.5,0],[1,0.75,0],[0.75,1,0],[0.5,1,0],[0.25,1,0],[0,0.75,0],[0,0.5,0],[0,0.25,0]];shape=mxgraph.bpmn.task;whiteSpace=wrap;rectStyle=rounded;size=10;html=1;container=1;expand=0;collapsible=0;taskMarker=abstract;" parent="Uqz3qc1_EBIvRJODGDup-7" vertex="1">
          <mxGeometry x="570" y="60" width="120" height="80" as="geometry" />
        </mxCell>
        <mxCell id="Uqz3qc1_EBIvRJODGDup-17" style="edgeStyle=orthogonalEdgeStyle;rounded=0;orthogonalLoop=1;jettySize=auto;html=1;" parent="Uqz3qc1_EBIvRJODGDup-1" source="Uqz3qc1_EBIvRJODGDup-11" target="Uqz3qc1_EBIvRJODGDup-3" edge="1">
          <mxGeometry relative="1" as="geometry" />
        </mxCell>
        <mxCell id="7EMz--ndRc-FFF1v50o7-10" value="HTTPS POST /user" style="edgeLabel;html=1;align=center;verticalAlign=middle;resizable=0;points=[];" parent="Uqz3qc1_EBIvRJODGDup-17" vertex="1" connectable="0">
          <mxGeometry x="0.0462" y="-3" relative="1" as="geometry">
            <mxPoint x="-3" y="-12" as="offset" />
          </mxGeometry>
        </mxCell>
        <mxCell id="7EMz--ndRc-FFF1v50o7-0" value="prc-users" style="swimlane;horizontal=0;whiteSpace=wrap;html=1;" parent="Uqz3qc1_EBIvRJODGDup-1" vertex="1">
          <mxGeometry x="40" y="100" width="1110" height="200" as="geometry" />
        </mxCell>
        <mxCell id="7EMz--ndRc-FFF1v50o7-14" style="edgeStyle=orthogonalEdgeStyle;rounded=0;orthogonalLoop=1;jettySize=auto;html=1;entryX=0;entryY=0.5;entryDx=0;entryDy=0;entryPerimeter=0;" parent="7EMz--ndRc-FFF1v50o7-0" source="7EMz--ndRc-FFF1v50o7-31" target="7EMz--ndRc-FFF1v50o7-15" edge="1">
          <mxGeometry relative="1" as="geometry">
            <mxPoint x="600" y="70" as="targetPoint" />
          </mxGeometry>
        </mxCell>
        <mxCell id="7EMz--ndRc-FFF1v50o7-11" value="Orchestation" style="points=[[0.25,0,0],[0.5,0,0],[0.75,0,0],[1,0.25,0],[1,0.5,0],[1,0.75,0],[0.75,1,0],[0.5,1,0],[0.25,1,0],[0,0.75,0],[0,0.5,0],[0,0.25,0]];shape=mxgraph.bpmn.task;whiteSpace=wrap;rectStyle=rounded;size=10;html=1;container=1;expand=0;collapsible=0;taskMarker=abstract;" parent="7EMz--ndRc-FFF1v50o7-0" vertex="1">
          <mxGeometry x="359" y="60" width="120" height="80" as="geometry" />
        </mxCell>
        <mxCell id="7EMz--ndRc-FFF1v50o7-15" value="Send Email with validation code" style="points=[[0.25,0,0],[0.5,0,0],[0.75,0,0],[1,0.25,0],[1,0.5,0],[1,0.75,0],[0.75,1,0],[0.5,1,0],[0.25,1,0],[0,0.75,0],[0,0.5,0],[0,0.25,0]];shape=mxgraph.bpmn.task;whiteSpace=wrap;rectStyle=rounded;size=10;html=1;container=1;expand=0;collapsible=0;taskMarker=abstract;" parent="7EMz--ndRc-FFF1v50o7-0" vertex="1">
          <mxGeometry x="570" y="60" width="120" height="80" as="geometry" />
        </mxCell>
        <mxCell id="7EMz--ndRc-FFF1v50o7-25" value="Verify user" style="points=[[0.25,0,0],[0.5,0,0],[0.75,0,0],[1,0.25,0],[1,0.5,0],[1,0.75,0],[0.75,1,0],[0.5,1,0],[0.25,1,0],[0,0.75,0],[0,0.5,0],[0,0.25,0]];shape=mxgraph.bpmn.task;whiteSpace=wrap;rectStyle=rounded;size=10;html=1;container=1;expand=0;collapsible=0;taskMarker=abstract;" parent="7EMz--ndRc-FFF1v50o7-0" vertex="1">
          <mxGeometry x="720" y="60" width="120" height="80" as="geometry" />
        </mxCell>
        <mxCell id="7EMz--ndRc-FFF1v50o7-32" value="" style="edgeStyle=orthogonalEdgeStyle;rounded=0;orthogonalLoop=1;jettySize=auto;html=1;entryX=0;entryY=0.5;entryDx=0;entryDy=0;entryPerimeter=0;" parent="7EMz--ndRc-FFF1v50o7-0" source="7EMz--ndRc-FFF1v50o7-11" target="7EMz--ndRc-FFF1v50o7-31" edge="1">
          <mxGeometry relative="1" as="geometry">
            <mxPoint x="610" y="200" as="targetPoint" />
            <mxPoint x="530" y="200" as="sourcePoint" />
          </mxGeometry>
        </mxCell>
        <mxCell id="7EMz--ndRc-FFF1v50o7-31" value="Queue" style="sketch=0;outlineConnect=0;fontColor=#232F3E;gradientColor=none;strokeColor=#232F3E;fillColor=#ffffff;dashed=0;verticalLabelPosition=bottom;verticalAlign=top;align=center;html=1;fontSize=12;fontStyle=0;aspect=fixed;shape=mxgraph.aws4.resourceIcon;resIcon=mxgraph.aws4.queue;" parent="7EMz--ndRc-FFF1v50o7-0" vertex="1">
          <mxGeometry x="500" y="70" width="60" height="60" as="geometry" />
        </mxCell>
        <mxCell id="7EMz--ndRc-FFF1v50o7-28" style="edgeStyle=orthogonalEdgeStyle;rounded=0;orthogonalLoop=1;jettySize=auto;html=1;entryX=0.5;entryY=0;entryDx=0;entryDy=0;entryPerimeter=0;exitX=0.5;exitY=1;exitDx=0;exitDy=0;exitPerimeter=0;" parent="7EMz--ndRc-FFF1v50o7-0" source="rzqz2QtsTdcf7gHzFdcu-0" target="Uqz3qc1_EBIvRJODGDup-14" edge="1">
          <mxGeometry relative="1" as="geometry">
            <mxPoint x="910" y="430" as="targetPoint" />
            <Array as="points">
              <mxPoint x="930" y="20" />
              <mxPoint x="930" y="20" />
            </Array>
          </mxGeometry>
        </mxCell>
        <mxCell id="rzqz2QtsTdcf7gHzFdcu-2" value="Valid token&lt;br style=&quot;border-color: var(--border-color);&quot;&gt;to interact with API" style="edgeLabel;html=1;align=center;verticalAlign=middle;resizable=0;points=[];" parent="7EMz--ndRc-FFF1v50o7-28" vertex="1" connectable="0">
          <mxGeometry x="-0.128" y="3" relative="1" as="geometry">
            <mxPoint as="offset" />
          </mxGeometry>
        </mxCell>
        <mxCell id="7EMz--ndRc-FFF1v50o7-5" value="sys-okta" style="swimlane;horizontal=0;whiteSpace=wrap;html=1;" parent="Uqz3qc1_EBIvRJODGDup-1" vertex="1">
          <mxGeometry x="40" y="-100" width="1110" height="200" as="geometry" />
        </mxCell>
        <mxCell id="7EMz--ndRc-FFF1v50o7-16" value="Creation of user" style="points=[[0.25,0,0],[0.5,0,0],[0.75,0,0],[1,0.25,0],[1,0.5,0],[1,0.75,0],[0.75,1,0],[0.5,1,0],[0.25,1,0],[0,0.75,0],[0,0.5,0],[0,0.25,0]];shape=mxgraph.bpmn.task;whiteSpace=wrap;rectStyle=rounded;size=10;html=1;container=1;expand=0;collapsible=0;taskMarker=abstract;" parent="7EMz--ndRc-FFF1v50o7-5" vertex="1">
          <mxGeometry x="470" y="50" width="120" height="80" as="geometry" />
        </mxCell>
        <mxCell id="7EMz--ndRc-FFF1v50o7-33" value="Get User by email" style="points=[[0.25,0,0],[0.5,0,0],[0.75,0,0],[1,0.25,0],[1,0.5,0],[1,0.75,0],[0.75,1,0],[0.5,1,0],[0.25,1,0],[0,0.75,0],[0,0.5,0],[0,0.25,0]];shape=mxgraph.bpmn.task;whiteSpace=wrap;rectStyle=rounded;size=10;html=1;container=1;expand=0;collapsible=0;taskMarker=abstract;" parent="7EMz--ndRc-FFF1v50o7-5" vertex="1">
          <mxGeometry x="230" y="50" width="120" height="80" as="geometry" />
        </mxCell>
        <mxCell id="rzqz2QtsTdcf7gHzFdcu-0" value="Get Valid Tokern" style="points=[[0.25,0,0],[0.5,0,0],[0.75,0,0],[1,0.25,0],[1,0.5,0],[1,0.75,0],[0.75,1,0],[0.5,1,0],[0.25,1,0],[0,0.75,0],[0,0.5,0],[0,0.25,0]];shape=mxgraph.bpmn.task;whiteSpace=wrap;rectStyle=rounded;size=10;html=1;container=1;expand=0;collapsible=0;taskMarker=abstract;" parent="7EMz--ndRc-FFF1v50o7-5" vertex="1">
          <mxGeometry x="870" y="50" width="120" height="80" as="geometry" />
        </mxCell>
        <mxCell id="7EMz--ndRc-FFF1v50o7-12" style="edgeStyle=orthogonalEdgeStyle;rounded=0;orthogonalLoop=1;jettySize=auto;html=1;" parent="Uqz3qc1_EBIvRJODGDup-1" source="Uqz3qc1_EBIvRJODGDup-3" target="7EMz--ndRc-FFF1v50o7-11" edge="1">
          <mxGeometry relative="1" as="geometry" />
        </mxCell>
        <mxCell id="7EMz--ndRc-FFF1v50o7-13" value="HTTPS POST /user" style="edgeLabel;html=1;align=center;verticalAlign=middle;resizable=0;points=[];" parent="7EMz--ndRc-FFF1v50o7-12" vertex="1" connectable="0">
          <mxGeometry x="-0.4182" y="-3" relative="1" as="geometry">
            <mxPoint x="-3" as="offset" />
          </mxGeometry>
        </mxCell>
        <mxCell id="7EMz--ndRc-FFF1v50o7-17" style="edgeStyle=orthogonalEdgeStyle;rounded=0;orthogonalLoop=1;jettySize=auto;html=1;" parent="Uqz3qc1_EBIvRJODGDup-1" source="7EMz--ndRc-FFF1v50o7-30" target="Uqz3qc1_EBIvRJODGDup-16" edge="1">
          <mxGeometry relative="1" as="geometry" />
        </mxCell>
        <mxCell id="7EMz--ndRc-FFF1v50o7-18" style="edgeStyle=orthogonalEdgeStyle;rounded=0;orthogonalLoop=1;jettySize=auto;html=1;entryX=0.5;entryY=1;entryDx=0;entryDy=0;entryPerimeter=0;" parent="Uqz3qc1_EBIvRJODGDup-1" source="7EMz--ndRc-FFF1v50o7-11" target="7EMz--ndRc-FFF1v50o7-16" edge="1">
          <mxGeometry relative="1" as="geometry">
            <Array as="points">
              <mxPoint x="459" y="70" />
              <mxPoint x="570" y="70" />
            </Array>
          </mxGeometry>
        </mxCell>
        <mxCell id="7EMz--ndRc-FFF1v50o7-19" value="HTTPS POST /user" style="edgeLabel;html=1;align=center;verticalAlign=middle;resizable=0;points=[];" parent="7EMz--ndRc-FFF1v50o7-18" vertex="1" connectable="0">
          <mxGeometry x="-0.3385" y="1" relative="1" as="geometry">
            <mxPoint x="6" y="36" as="offset" />
          </mxGeometry>
        </mxCell>
        <mxCell id="7EMz--ndRc-FFF1v50o7-21" style="edgeStyle=orthogonalEdgeStyle;rounded=0;orthogonalLoop=1;jettySize=auto;html=1;entryX=0.5;entryY=1;entryDx=0;entryDy=0;entryPerimeter=0;" parent="Uqz3qc1_EBIvRJODGDup-1" source="Uqz3qc1_EBIvRJODGDup-16" target="7EMz--ndRc-FFF1v50o7-20" edge="1">
          <mxGeometry relative="1" as="geometry" />
        </mxCell>
        <mxCell id="7EMz--ndRc-FFF1v50o7-22" value="HTTPS POST /user/code" style="edgeLabel;html=1;align=center;verticalAlign=middle;resizable=0;points=[];" parent="7EMz--ndRc-FFF1v50o7-21" vertex="1" connectable="0">
          <mxGeometry x="0.2692" relative="1" as="geometry">
            <mxPoint as="offset" />
          </mxGeometry>
        </mxCell>
        <mxCell id="7EMz--ndRc-FFF1v50o7-26" style="edgeStyle=orthogonalEdgeStyle;rounded=0;orthogonalLoop=1;jettySize=auto;html=1;" parent="Uqz3qc1_EBIvRJODGDup-1" source="7EMz--ndRc-FFF1v50o7-20" target="7EMz--ndRc-FFF1v50o7-25" edge="1">
          <mxGeometry relative="1" as="geometry" />
        </mxCell>
        <mxCell id="7EMz--ndRc-FFF1v50o7-27" value="HTTPS POST /user/code" style="edgeLabel;html=1;align=center;verticalAlign=middle;resizable=0;points=[];" parent="7EMz--ndRc-FFF1v50o7-26" vertex="1" connectable="0">
          <mxGeometry x="-0.4545" y="-2" relative="1" as="geometry">
            <mxPoint as="offset" />
          </mxGeometry>
        </mxCell>
        <mxCell id="7EMz--ndRc-FFF1v50o7-29" value="" style="edgeStyle=orthogonalEdgeStyle;rounded=0;orthogonalLoop=1;jettySize=auto;html=1;exitX=1;exitY=0.5;exitDx=0;exitDy=0;exitPerimeter=0;" parent="Uqz3qc1_EBIvRJODGDup-1" source="7EMz--ndRc-FFF1v50o7-46" target="7EMz--ndRc-FFF1v50o7-30" edge="1">
          <mxGeometry relative="1" as="geometry">
            <mxPoint x="670" y="240" as="sourcePoint" />
            <mxPoint x="670" y="560" as="targetPoint" />
            <Array as="points">
              <mxPoint x="740" y="-400" />
              <mxPoint x="740" y="380" />
            </Array>
          </mxGeometry>
        </mxCell>
        <mxCell id="7EMz--ndRc-FFF1v50o7-30" value="" style="verticalLabelPosition=bottom;shadow=0;dashed=0;align=center;html=1;verticalAlign=top;strokeWidth=1;shape=mxgraph.mockup.misc.mail2;strokeColor=#999999;" parent="Uqz3qc1_EBIvRJODGDup-1" vertex="1">
          <mxGeometry x="645" y="360" width="50" height="40" as="geometry" />
        </mxCell>
        <mxCell id="7EMz--ndRc-FFF1v50o7-34" value="" style="edgeStyle=orthogonalEdgeStyle;rounded=0;orthogonalLoop=1;jettySize=auto;html=1;" parent="Uqz3qc1_EBIvRJODGDup-1" source="7EMz--ndRc-FFF1v50o7-11" target="7EMz--ndRc-FFF1v50o7-33" edge="1">
          <mxGeometry relative="1" as="geometry" />
        </mxCell>
        <mxCell id="7EMz--ndRc-FFF1v50o7-35" value="HTTPS GET /user" style="edgeLabel;html=1;align=center;verticalAlign=middle;resizable=0;points=[];" parent="7EMz--ndRc-FFF1v50o7-34" vertex="1" connectable="0">
          <mxGeometry x="0.3149" y="-1" relative="1" as="geometry">
            <mxPoint as="offset" />
          </mxGeometry>
        </mxCell>
        <mxCell id="7EMz--ndRc-FFF1v50o7-37" value="" style="edgeStyle=orthogonalEdgeStyle;rounded=0;orthogonalLoop=1;jettySize=auto;html=1;" parent="Uqz3qc1_EBIvRJODGDup-1" source="7EMz--ndRc-FFF1v50o7-25" target="7EMz--ndRc-FFF1v50o7-41" edge="1">
          <mxGeometry relative="1" as="geometry">
            <mxPoint x="820" y="30" as="targetPoint" />
          </mxGeometry>
        </mxCell>
        <mxCell id="7EMz--ndRc-FFF1v50o7-43" value="HTTPS POST /user/code" style="edgeLabel;html=1;align=center;verticalAlign=middle;resizable=0;points=[];" parent="7EMz--ndRc-FFF1v50o7-37" vertex="1" connectable="0">
          <mxGeometry x="-0.1333" y="1" relative="1" as="geometry">
            <mxPoint as="offset" />
          </mxGeometry>
        </mxCell>
        <mxCell id="7EMz--ndRc-FFF1v50o7-38" value="sys-users" style="swimlane;horizontal=0;whiteSpace=wrap;html=1;" parent="Uqz3qc1_EBIvRJODGDup-1" vertex="1">
          <mxGeometry x="40" y="-300" width="1110" height="200" as="geometry" />
        </mxCell>
        <mxCell id="7EMz--ndRc-FFF1v50o7-39" value="Creation of user" style="points=[[0.25,0,0],[0.5,0,0],[0.75,0,0],[1,0.25,0],[1,0.5,0],[1,0.75,0],[0.75,1,0],[0.5,1,0],[0.25,1,0],[0,0.75,0],[0,0.5,0],[0,0.25,0]];shape=mxgraph.bpmn.task;whiteSpace=wrap;rectStyle=rounded;size=10;html=1;container=1;expand=0;collapsible=0;taskMarker=abstract;" parent="7EMz--ndRc-FFF1v50o7-38" vertex="1">
          <mxGeometry x="470" y="50" width="120" height="80" as="geometry" />
        </mxCell>
        <mxCell id="7EMz--ndRc-FFF1v50o7-41" value="Validate user" style="points=[[0.25,0,0],[0.5,0,0],[0.75,0,0],[1,0.25,0],[1,0.5,0],[1,0.75,0],[0.75,1,0],[0.5,1,0],[0.25,1,0],[0,0.75,0],[0,0.5,0],[0,0.25,0]];shape=mxgraph.bpmn.task;whiteSpace=wrap;rectStyle=rounded;size=10;html=1;container=1;expand=0;collapsible=0;taskMarker=abstract;" parent="7EMz--ndRc-FFF1v50o7-38" vertex="1">
          <mxGeometry x="720" y="50" width="120" height="80" as="geometry" />
        </mxCell>
        <mxCell id="7EMz--ndRc-FFF1v50o7-42" style="edgeStyle=orthogonalEdgeStyle;rounded=0;orthogonalLoop=1;jettySize=auto;html=1;entryX=0;entryY=0.5;entryDx=0;entryDy=0;entryPerimeter=0;" parent="Uqz3qc1_EBIvRJODGDup-1" source="7EMz--ndRc-FFF1v50o7-11" target="7EMz--ndRc-FFF1v50o7-39" edge="1">
          <mxGeometry relative="1" as="geometry" />
        </mxCell>
        <mxCell id="7EMz--ndRc-FFF1v50o7-45" value="sys-emails" style="swimlane;horizontal=0;whiteSpace=wrap;html=1;" parent="Uqz3qc1_EBIvRJODGDup-1" vertex="1">
          <mxGeometry x="40" y="-500" width="1110" height="200" as="geometry" />
        </mxCell>
        <mxCell id="7EMz--ndRc-FFF1v50o7-46" value="Send email" style="points=[[0.25,0,0],[0.5,0,0],[0.75,0,0],[1,0.25,0],[1,0.5,0],[1,0.75,0],[0.75,1,0],[0.5,1,0],[0.25,1,0],[0,0.75,0],[0,0.5,0],[0,0.25,0]];shape=mxgraph.bpmn.task;whiteSpace=wrap;rectStyle=rounded;size=10;html=1;container=1;expand=0;collapsible=0;taskMarker=abstract;" parent="7EMz--ndRc-FFF1v50o7-45" vertex="1">
          <mxGeometry x="570" y="60" width="120" height="80" as="geometry" />
        </mxCell>
        <mxCell id="7EMz--ndRc-FFF1v50o7-48" style="edgeStyle=orthogonalEdgeStyle;rounded=0;orthogonalLoop=1;jettySize=auto;html=1;" parent="Uqz3qc1_EBIvRJODGDup-1" source="7EMz--ndRc-FFF1v50o7-15" target="7EMz--ndRc-FFF1v50o7-46" edge="1">
          <mxGeometry relative="1" as="geometry" />
        </mxCell>
        <mxCell id="7EMz--ndRc-FFF1v50o7-49" value="POST /email" style="edgeLabel;html=1;align=center;verticalAlign=middle;resizable=0;points=[];" parent="7EMz--ndRc-FFF1v50o7-48" vertex="1" connectable="0">
          <mxGeometry x="0.0846" y="3" relative="1" as="geometry">
            <mxPoint as="offset" />
          </mxGeometry>
        </mxCell>
        <mxCell id="rzqz2QtsTdcf7gHzFdcu-1" style="edgeStyle=orthogonalEdgeStyle;rounded=0;orthogonalLoop=1;jettySize=auto;html=1;entryX=0;entryY=0.5;entryDx=0;entryDy=0;entryPerimeter=0;" parent="Uqz3qc1_EBIvRJODGDup-1" source="7EMz--ndRc-FFF1v50o7-25" target="rzqz2QtsTdcf7gHzFdcu-0" edge="1">
          <mxGeometry relative="1" as="geometry">
            <Array as="points">
              <mxPoint x="900" y="200" />
              <mxPoint x="900" y="-10" />
            </Array>
          </mxGeometry>
        </mxCell>
        <mxCell id="SpWeVstdPMxvP2cv8jyx-0" value="&lt;h1&gt;Diagram for the sign up of a user/driver&lt;br&gt;&lt;/h1&gt;" style="text;html=1;align=center;verticalAlign=middle;resizable=0;points=[];autosize=1;strokeColor=none;fillColor=none;" vertex="1" parent="Uqz3qc1_EBIvRJODGDup-1">
          <mxGeometry x="40" y="-570" width="470" height="70" as="geometry" />
        </mxCell>
      </root>
    </mxGraphModel>
  </diagram>
  <diagram name="Drill down creation of Drive by Client" id="9YAQOSyTMkeQ9x9ABCWg">
    <mxGraphModel dx="1715" dy="1933" grid="1" gridSize="10" guides="1" tooltips="1" connect="1" arrows="1" fold="1" page="1" pageScale="1" pageWidth="1100" pageHeight="850" math="0" shadow="0">
      <root>
        <mxCell id="Aa5zBOkpth9xLfSPm0mI-0" />
        <mxCell id="Aa5zBOkpth9xLfSPm0mI-1" parent="Aa5zBOkpth9xLfSPm0mI-0" />
        <mxCell id="Aa5zBOkpth9xLfSPm0mI-2" value="exp-ride-x-press" style="swimlane;horizontal=0;whiteSpace=wrap;html=1;" vertex="1" parent="Aa5zBOkpth9xLfSPm0mI-1">
          <mxGeometry x="40" y="300" width="2530" height="200" as="geometry" />
        </mxCell>
        <mxCell id="Aa5zBOkpth9xLfSPm0mI-4" value="Get Target Geo location" style="points=[[0.25,0,0],[0.5,0,0],[0.75,0,0],[1,0.25,0],[1,0.5,0],[1,0.75,0],[0.75,1,0],[0.5,1,0],[0.25,1,0],[0,0.75,0],[0,0.5,0],[0,0.25,0]];shape=mxgraph.bpmn.task;whiteSpace=wrap;rectStyle=rounded;size=10;html=1;container=1;expand=0;collapsible=0;taskMarker=abstract;" vertex="1" parent="Aa5zBOkpth9xLfSPm0mI-2">
          <mxGeometry x="690" y="60" width="120" height="80" as="geometry" />
        </mxCell>
        <mxCell id="UceIsVDDBgMtnl9OKH8S-25" value="Create ride" style="points=[[0.25,0,0],[0.5,0,0],[0.75,0,0],[1,0.25,0],[1,0.5,0],[1,0.75,0],[0.75,1,0],[0.5,1,0],[0.25,1,0],[0,0.75,0],[0,0.5,0],[0,0.25,0]];shape=mxgraph.bpmn.task;whiteSpace=wrap;rectStyle=rounded;size=10;html=1;container=1;expand=0;collapsible=0;taskMarker=abstract;" vertex="1" parent="Aa5zBOkpth9xLfSPm0mI-2">
          <mxGeometry x="890" y="60" width="120" height="80" as="geometry" />
        </mxCell>
        <mxCell id="Aa5zBOkpth9xLfSPm0mI-14" value="Client - Mobile App" style="swimlane;horizontal=0;whiteSpace=wrap;html=1;" vertex="1" parent="Aa5zBOkpth9xLfSPm0mI-1">
          <mxGeometry x="40" y="500" width="2530" height="200" as="geometry" />
        </mxCell>
        <mxCell id="Aa5zBOkpth9xLfSPm0mI-15" style="edgeStyle=orthogonalEdgeStyle;rounded=0;orthogonalLoop=1;jettySize=auto;html=1;entryX=0;entryY=0.5;entryDx=0;entryDy=0;entryPerimeter=0;" edge="1" parent="Aa5zBOkpth9xLfSPm0mI-14" source="Aa5zBOkpth9xLfSPm0mI-16" target="Aa5zBOkpth9xLfSPm0mI-17">
          <mxGeometry relative="1" as="geometry">
            <mxPoint x="140" y="100" as="targetPoint" />
          </mxGeometry>
        </mxCell>
        <mxCell id="Aa5zBOkpth9xLfSPm0mI-16" value="" style="points=[[0.145,0.145,0],[0.5,0,0],[0.855,0.145,0],[1,0.5,0],[0.855,0.855,0],[0.5,1,0],[0.145,0.855,0],[0,0.5,0]];shape=mxgraph.bpmn.event;html=1;verticalLabelPosition=bottom;labelBackgroundColor=#ffffff;verticalAlign=top;align=center;perimeter=ellipsePerimeter;outlineConnect=0;aspect=fixed;outline=standard;symbol=general;" vertex="1" parent="Aa5zBOkpth9xLfSPm0mI-14">
          <mxGeometry x="50" y="75" width="50" height="50" as="geometry" />
        </mxCell>
        <mxCell id="Aa5zBOkpth9xLfSPm0mI-17" value="Select Starts Trip" style="points=[[0.25,0,0],[0.5,0,0],[0.75,0,0],[1,0.25,0],[1,0.5,0],[1,0.75,0],[0.75,1,0],[0.5,1,0],[0.25,1,0],[0,0.75,0],[0,0.5,0],[0,0.25,0]];shape=mxgraph.bpmn.task;whiteSpace=wrap;rectStyle=rounded;size=10;html=1;container=1;expand=0;collapsible=0;taskMarker=abstract;" vertex="1" parent="Aa5zBOkpth9xLfSPm0mI-14">
          <mxGeometry x="310" y="60" width="120" height="80" as="geometry" />
        </mxCell>
        <mxCell id="Aa5zBOkpth9xLfSPm0mI-20" value="Select target destination" style="points=[[0.25,0,0],[0.5,0,0],[0.75,0,0],[1,0.25,0],[1,0.5,0],[1,0.75,0],[0.75,1,0],[0.5,1,0],[0.25,1,0],[0,0.75,0],[0,0.5,0],[0,0.25,0]];shape=mxgraph.bpmn.task;whiteSpace=wrap;rectStyle=rounded;size=10;html=1;container=1;expand=0;collapsible=0;taskMarker=abstract;" vertex="1" parent="Aa5zBOkpth9xLfSPm0mI-14">
          <mxGeometry x="690" y="60" width="120" height="80" as="geometry" />
        </mxCell>
        <mxCell id="Aa5zBOkpth9xLfSPm0mI-21" value="Confirm initial location and destination" style="points=[[0.25,0,0],[0.5,0,0],[0.75,0,0],[1,0.25,0],[1,0.5,0],[1,0.75,0],[0.75,1,0],[0.5,1,0],[0.25,1,0],[0,0.75,0],[0,0.5,0],[0,0.25,0]];shape=mxgraph.bpmn.task;whiteSpace=wrap;rectStyle=rounded;size=10;html=1;container=1;expand=0;collapsible=0;taskMarker=abstract;" vertex="1" parent="Aa5zBOkpth9xLfSPm0mI-14">
          <mxGeometry x="890" y="60" width="120" height="80" as="geometry" />
        </mxCell>
        <mxCell id="Aa5zBOkpth9xLfSPm0mI-3" value="Get Client Geo location" style="points=[[0.25,0,0],[0.5,0,0],[0.75,0,0],[1,0.25,0],[1,0.5,0],[1,0.75,0],[0.75,1,0],[0.5,1,0],[0.25,1,0],[0,0.75,0],[0,0.5,0],[0,0.25,0]];shape=mxgraph.bpmn.task;whiteSpace=wrap;rectStyle=rounded;size=10;html=1;container=1;expand=0;collapsible=0;taskMarker=abstract;" vertex="1" parent="Aa5zBOkpth9xLfSPm0mI-14">
          <mxGeometry x="490" y="60" width="120" height="80" as="geometry" />
        </mxCell>
        <mxCell id="UceIsVDDBgMtnl9OKH8S-13" style="edgeStyle=orthogonalEdgeStyle;rounded=0;orthogonalLoop=1;jettySize=auto;html=1;entryX=0;entryY=0.5;entryDx=0;entryDy=0;entryPerimeter=0;" edge="1" parent="Aa5zBOkpth9xLfSPm0mI-14" source="Aa5zBOkpth9xLfSPm0mI-17" target="Aa5zBOkpth9xLfSPm0mI-3">
          <mxGeometry relative="1" as="geometry" />
        </mxCell>
        <mxCell id="UceIsVDDBgMtnl9OKH8S-17" style="edgeStyle=orthogonalEdgeStyle;rounded=0;orthogonalLoop=1;jettySize=auto;html=1;entryX=0;entryY=0.5;entryDx=0;entryDy=0;entryPerimeter=0;" edge="1" parent="Aa5zBOkpth9xLfSPm0mI-14" source="Aa5zBOkpth9xLfSPm0mI-3" target="Aa5zBOkpth9xLfSPm0mI-20">
          <mxGeometry relative="1" as="geometry" />
        </mxCell>
        <mxCell id="UceIsVDDBgMtnl9OKH8S-24" style="edgeStyle=orthogonalEdgeStyle;rounded=0;orthogonalLoop=1;jettySize=auto;html=1;entryX=0;entryY=0.5;entryDx=0;entryDy=0;entryPerimeter=0;" edge="1" parent="Aa5zBOkpth9xLfSPm0mI-14" source="Aa5zBOkpth9xLfSPm0mI-20" target="Aa5zBOkpth9xLfSPm0mI-21">
          <mxGeometry relative="1" as="geometry" />
        </mxCell>
        <mxCell id="Aa5zBOkpth9xLfSPm0mI-40" value="" style="edgeStyle=orthogonalEdgeStyle;rounded=0;orthogonalLoop=1;jettySize=auto;html=1;" edge="1" parent="Aa5zBOkpth9xLfSPm0mI-1" source="Aa5zBOkpth9xLfSPm0mI-20" target="Aa5zBOkpth9xLfSPm0mI-4">
          <mxGeometry relative="1" as="geometry">
            <Array as="points">
              <mxPoint x="790" y="500" />
              <mxPoint x="790" y="500" />
            </Array>
          </mxGeometry>
        </mxCell>
        <mxCell id="UceIsVDDBgMtnl9OKH8S-19" value="POST /geolocation" style="edgeLabel;html=1;align=center;verticalAlign=middle;resizable=0;points=[];" vertex="1" connectable="0" parent="Aa5zBOkpth9xLfSPm0mI-40">
          <mxGeometry x="-0.3333" y="-2" relative="1" as="geometry">
            <mxPoint as="offset" />
          </mxGeometry>
        </mxCell>
        <mxCell id="UceIsVDDBgMtnl9OKH8S-18" value="sys-geolocalization" style="swimlane;horizontal=0;whiteSpace=wrap;html=1;" vertex="1" parent="Aa5zBOkpth9xLfSPm0mI-1">
          <mxGeometry x="40" y="100" width="2530" height="200" as="geometry" />
        </mxCell>
        <mxCell id="UceIsVDDBgMtnl9OKH8S-20" value="Get Target from Google Maps" style="points=[[0.25,0,0],[0.5,0,0],[0.75,0,0],[1,0.25,0],[1,0.5,0],[1,0.75,0],[0.75,1,0],[0.5,1,0],[0.25,1,0],[0,0.75,0],[0,0.5,0],[0,0.25,0]];shape=mxgraph.bpmn.task;whiteSpace=wrap;rectStyle=rounded;size=10;html=1;container=1;expand=0;collapsible=0;taskMarker=abstract;" vertex="1" parent="UceIsVDDBgMtnl9OKH8S-18">
          <mxGeometry x="690" y="60" width="120" height="80" as="geometry" />
        </mxCell>
        <mxCell id="UceIsVDDBgMtnl9OKH8S-21" value="" style="edgeStyle=orthogonalEdgeStyle;rounded=0;orthogonalLoop=1;jettySize=auto;html=1;" edge="1" parent="Aa5zBOkpth9xLfSPm0mI-1" source="Aa5zBOkpth9xLfSPm0mI-4" target="UceIsVDDBgMtnl9OKH8S-20">
          <mxGeometry relative="1" as="geometry" />
        </mxCell>
        <mxCell id="UceIsVDDBgMtnl9OKH8S-22" value="POST /geolocation" style="edgeLabel;html=1;align=center;verticalAlign=middle;resizable=0;points=[];" vertex="1" connectable="0" parent="UceIsVDDBgMtnl9OKH8S-21">
          <mxGeometry x="-0.2333" y="-1" relative="1" as="geometry">
            <mxPoint as="offset" />
          </mxGeometry>
        </mxCell>
        <mxCell id="UceIsVDDBgMtnl9OKH8S-23" style="edgeStyle=orthogonalEdgeStyle;rounded=0;orthogonalLoop=1;jettySize=auto;html=1;" edge="1" parent="Aa5zBOkpth9xLfSPm0mI-1" source="UceIsVDDBgMtnl9OKH8S-20">
          <mxGeometry relative="1" as="geometry">
            <mxPoint x="850" y="580" as="targetPoint" />
            <Array as="points">
              <mxPoint x="870" y="200" />
              <mxPoint x="870" y="580" />
              <mxPoint x="850" y="580" />
            </Array>
          </mxGeometry>
        </mxCell>
        <mxCell id="UceIsVDDBgMtnl9OKH8S-26" value="" style="edgeStyle=orthogonalEdgeStyle;rounded=0;orthogonalLoop=1;jettySize=auto;html=1;" edge="1" parent="Aa5zBOkpth9xLfSPm0mI-1" source="Aa5zBOkpth9xLfSPm0mI-21" target="UceIsVDDBgMtnl9OKH8S-25">
          <mxGeometry relative="1" as="geometry" />
        </mxCell>
        <mxCell id="UceIsVDDBgMtnl9OKH8S-27" value="POST /ride" style="edgeLabel;html=1;align=center;verticalAlign=middle;resizable=0;points=[];" vertex="1" connectable="0" parent="UceIsVDDBgMtnl9OKH8S-26">
          <mxGeometry x="-0.3167" y="4" relative="1" as="geometry">
            <mxPoint as="offset" />
          </mxGeometry>
        </mxCell>
        <mxCell id="UceIsVDDBgMtnl9OKH8S-28" value="prc-ride" style="swimlane;horizontal=0;whiteSpace=wrap;html=1;" vertex="1" parent="Aa5zBOkpth9xLfSPm0mI-1">
          <mxGeometry x="40" y="-100" width="2530" height="200" as="geometry" />
        </mxCell>
        <mxCell id="UceIsVDDBgMtnl9OKH8S-29" value="Create ride" style="points=[[0.25,0,0],[0.5,0,0],[0.75,0,0],[1,0.25,0],[1,0.5,0],[1,0.75,0],[0.75,1,0],[0.5,1,0],[0.25,1,0],[0,0.75,0],[0,0.5,0],[0,0.25,0]];shape=mxgraph.bpmn.task;whiteSpace=wrap;rectStyle=rounded;size=10;html=1;container=1;expand=0;collapsible=0;taskMarker=abstract;" vertex="1" parent="UceIsVDDBgMtnl9OKH8S-28">
          <mxGeometry x="830" y="50" width="120" height="80" as="geometry" />
        </mxCell>
        <mxCell id="Aa5zBOkpth9xLfSPm0mI-6" value="Obtain available drivers nearest to client initial location" style="points=[[0.25,0,0],[0.5,0,0],[0.75,0,0],[1,0.25,0],[1,0.5,0],[1,0.75,0],[0.75,1,0],[0.5,1,0],[0.25,1,0],[0,0.75,0],[0,0.5,0],[0,0.25,0]];shape=mxgraph.bpmn.task;whiteSpace=wrap;rectStyle=rounded;size=10;html=1;container=1;expand=0;collapsible=0;taskMarker=abstract;" vertex="1" parent="UceIsVDDBgMtnl9OKH8S-28">
          <mxGeometry x="1220" y="50" width="120" height="80" as="geometry" />
        </mxCell>
        <mxCell id="vcw9PWRFaFQ3ZF1qO-cl-0" value="Queue" style="sketch=0;outlineConnect=0;fontColor=#232F3E;gradientColor=none;strokeColor=#232F3E;fillColor=#ffffff;dashed=0;verticalLabelPosition=bottom;verticalAlign=top;align=center;html=1;fontSize=12;fontStyle=0;aspect=fixed;shape=mxgraph.aws4.resourceIcon;resIcon=mxgraph.aws4.queue;" vertex="1" parent="UceIsVDDBgMtnl9OKH8S-28">
          <mxGeometry x="1140" y="60" width="60" height="60" as="geometry" />
        </mxCell>
        <mxCell id="vcw9PWRFaFQ3ZF1qO-cl-1" style="edgeStyle=orthogonalEdgeStyle;rounded=0;orthogonalLoop=1;jettySize=auto;html=1;" edge="1" parent="UceIsVDDBgMtnl9OKH8S-28" source="vcw9PWRFaFQ3ZF1qO-cl-35" target="vcw9PWRFaFQ3ZF1qO-cl-0">
          <mxGeometry relative="1" as="geometry">
            <mxPoint x="1090" y="90" as="targetPoint" />
          </mxGeometry>
        </mxCell>
        <mxCell id="vcw9PWRFaFQ3ZF1qO-cl-3" style="edgeStyle=orthogonalEdgeStyle;rounded=0;orthogonalLoop=1;jettySize=auto;html=1;entryX=0;entryY=0.5;entryDx=0;entryDy=0;entryPerimeter=0;" edge="1" parent="UceIsVDDBgMtnl9OKH8S-28" source="vcw9PWRFaFQ3ZF1qO-cl-0" target="Aa5zBOkpth9xLfSPm0mI-6">
          <mxGeometry relative="1" as="geometry" />
        </mxCell>
        <mxCell id="vcw9PWRFaFQ3ZF1qO-cl-12" value="Broadcast to driver to announce ride" style="points=[[0.25,0,0],[0.5,0,0],[0.75,0,0],[1,0.25,0],[1,0.5,0],[1,0.75,0],[0.75,1,0],[0.5,1,0],[0.25,1,0],[0,0.75,0],[0,0.5,0],[0,0.25,0]];shape=mxgraph.bpmn.task;whiteSpace=wrap;rectStyle=rounded;size=10;html=1;container=1;expand=0;collapsible=0;taskMarker=abstract;" vertex="1" parent="UceIsVDDBgMtnl9OKH8S-28">
          <mxGeometry x="1870" y="50" width="120" height="80" as="geometry" />
        </mxCell>
        <mxCell id="vcw9PWRFaFQ3ZF1qO-cl-22" value="Broadcast to client to announce ride" style="points=[[0.25,0,0],[0.5,0,0],[0.75,0,0],[1,0.25,0],[1,0.5,0],[1,0.75,0],[0.75,1,0],[0.5,1,0],[0.25,1,0],[0,0.75,0],[0,0.5,0],[0,0.25,0]];shape=mxgraph.bpmn.task;whiteSpace=wrap;rectStyle=rounded;size=10;html=1;container=1;expand=0;collapsible=0;taskMarker=abstract;" vertex="1" parent="UceIsVDDBgMtnl9OKH8S-28">
          <mxGeometry x="2040" y="50" width="120" height="80" as="geometry" />
        </mxCell>
        <mxCell id="vcw9PWRFaFQ3ZF1qO-cl-23" style="edgeStyle=orthogonalEdgeStyle;rounded=0;orthogonalLoop=1;jettySize=auto;html=1;entryX=0;entryY=0.5;entryDx=0;entryDy=0;entryPerimeter=0;" edge="1" parent="UceIsVDDBgMtnl9OKH8S-28" source="vcw9PWRFaFQ3ZF1qO-cl-12" target="vcw9PWRFaFQ3ZF1qO-cl-22">
          <mxGeometry relative="1" as="geometry" />
        </mxCell>
        <mxCell id="vcw9PWRFaFQ3ZF1qO-cl-16" value="Select driver and inform client" style="points=[[0.25,0,0],[0.5,0,0],[0.75,0,0],[1,0.25,0],[1,0.5,0],[1,0.75,0],[0.75,1,0],[0.5,1,0],[0.25,1,0],[0,0.75,0],[0,0.5,0],[0,0.25,0]];shape=mxgraph.bpmn.task;whiteSpace=wrap;rectStyle=rounded;size=10;html=1;container=1;expand=0;collapsible=0;taskMarker=abstract;" vertex="1" parent="UceIsVDDBgMtnl9OKH8S-28">
          <mxGeometry x="1520" y="50" width="120" height="80" as="geometry" />
        </mxCell>
        <mxCell id="vcw9PWRFaFQ3ZF1qO-cl-27" value="Store selected driver" style="points=[[0.25,0,0],[0.5,0,0],[0.75,0,0],[1,0.25,0],[1,0.5,0],[1,0.75,0],[0.75,1,0],[0.5,1,0],[0.25,1,0],[0,0.75,0],[0,0.5,0],[0,0.25,0]];shape=mxgraph.bpmn.task;whiteSpace=wrap;rectStyle=rounded;size=10;html=1;container=1;expand=0;collapsible=0;taskMarker=abstract;" vertex="1" parent="UceIsVDDBgMtnl9OKH8S-28">
          <mxGeometry x="1690" y="50" width="120" height="80" as="geometry" />
        </mxCell>
        <mxCell id="vcw9PWRFaFQ3ZF1qO-cl-28" value="" style="edgeStyle=orthogonalEdgeStyle;rounded=0;orthogonalLoop=1;jettySize=auto;html=1;entryX=0;entryY=0.5;entryDx=0;entryDy=0;entryPerimeter=0;" edge="1" parent="UceIsVDDBgMtnl9OKH8S-28" source="vcw9PWRFaFQ3ZF1qO-cl-16" target="vcw9PWRFaFQ3ZF1qO-cl-27">
          <mxGeometry relative="1" as="geometry">
            <mxPoint x="1680" y="-10" as="sourcePoint" />
            <mxPoint x="1890" y="-10" as="targetPoint" />
          </mxGeometry>
        </mxCell>
        <mxCell id="vcw9PWRFaFQ3ZF1qO-cl-29" value="Update notification status in ride" style="points=[[0.25,0,0],[0.5,0,0],[0.75,0,0],[1,0.25,0],[1,0.5,0],[1,0.75,0],[0.75,1,0],[0.5,1,0],[0.25,1,0],[0,0.75,0],[0,0.5,0],[0,0.25,0]];shape=mxgraph.bpmn.task;whiteSpace=wrap;rectStyle=rounded;size=10;html=1;container=1;expand=0;collapsible=0;taskMarker=abstract;" vertex="1" parent="UceIsVDDBgMtnl9OKH8S-28">
          <mxGeometry x="2200" y="50" width="120" height="80" as="geometry" />
        </mxCell>
        <mxCell id="vcw9PWRFaFQ3ZF1qO-cl-30" value="" style="edgeStyle=orthogonalEdgeStyle;rounded=0;orthogonalLoop=1;jettySize=auto;html=1;entryX=0;entryY=0.5;entryDx=0;entryDy=0;" edge="1" parent="UceIsVDDBgMtnl9OKH8S-28" source="vcw9PWRFaFQ3ZF1qO-cl-22" target="vcw9PWRFaFQ3ZF1qO-cl-29">
          <mxGeometry relative="1" as="geometry">
            <mxPoint x="2180" y="-10" as="sourcePoint" />
            <mxPoint x="2410" y="-10" as="targetPoint" />
          </mxGeometry>
        </mxCell>
        <mxCell id="vcw9PWRFaFQ3ZF1qO-cl-35" value="Trigger async processing" style="points=[[0.25,0,0],[0.5,0,0],[0.75,0,0],[1,0.25,0],[1,0.5,0],[1,0.75,0],[0.75,1,0],[0.5,1,0],[0.25,1,0],[0,0.75,0],[0,0.5,0],[0,0.25,0]];shape=mxgraph.bpmn.task;whiteSpace=wrap;rectStyle=rounded;size=10;html=1;container=1;expand=0;collapsible=0;taskMarker=abstract;" vertex="1" parent="UceIsVDDBgMtnl9OKH8S-28">
          <mxGeometry x="990" y="50" width="120" height="80" as="geometry" />
        </mxCell>
        <mxCell id="UceIsVDDBgMtnl9OKH8S-30" value="" style="edgeStyle=orthogonalEdgeStyle;rounded=0;orthogonalLoop=1;jettySize=auto;html=1;" edge="1" parent="Aa5zBOkpth9xLfSPm0mI-1" source="UceIsVDDBgMtnl9OKH8S-25" target="UceIsVDDBgMtnl9OKH8S-29">
          <mxGeometry relative="1" as="geometry" />
        </mxCell>
        <mxCell id="UceIsVDDBgMtnl9OKH8S-31" value="POST /ride" style="edgeLabel;html=1;align=center;verticalAlign=middle;resizable=0;points=[];" vertex="1" connectable="0" parent="UceIsVDDBgMtnl9OKH8S-30">
          <mxGeometry x="-0.0909" y="4" relative="1" as="geometry">
            <mxPoint as="offset" />
          </mxGeometry>
        </mxCell>
        <mxCell id="vcw9PWRFaFQ3ZF1qO-cl-2" value="&lt;h1&gt;Assumptions&lt;/h1&gt;&lt;p&gt;1. Drivers will inform their location and availability periodically with the mobile app to the server&lt;/p&gt;&lt;p&gt;2. Users will have to be logged to create a ride&lt;/p&gt;&lt;p&gt;3. If a driver is active and with not ride, then it can accept a new ride&lt;/p&gt;&lt;p&gt;4.&amp;nbsp;&lt;/p&gt;" style="text;html=1;strokeColor=none;fillColor=none;spacing=5;spacingTop=-20;whiteSpace=wrap;overflow=hidden;rounded=0;" vertex="1" parent="Aa5zBOkpth9xLfSPm0mI-1">
          <mxGeometry x="40" y="720" width="580" height="190" as="geometry" />
        </mxCell>
        <mxCell id="vcw9PWRFaFQ3ZF1qO-cl-4" value="sys-drivers" style="swimlane;horizontal=0;whiteSpace=wrap;html=1;startSize=23;" vertex="1" parent="Aa5zBOkpth9xLfSPm0mI-1">
          <mxGeometry x="40" y="-300" width="2530" height="200" as="geometry" />
        </mxCell>
        <mxCell id="Aa5zBOkpth9xLfSPm0mI-10" value="Filter drivers by criteria" style="points=[[0.25,0,0],[0.5,0,0],[0.75,0,0],[1,0.25,0],[1,0.5,0],[1,0.75,0],[0.75,1,0],[0.5,1,0],[0.25,1,0],[0,0.75,0],[0,0.5,0],[0,0.25,0]];shape=mxgraph.bpmn.task;whiteSpace=wrap;rectStyle=rounded;size=10;html=1;container=1;expand=0;collapsible=0;taskMarker=abstract;" vertex="1" parent="vcw9PWRFaFQ3ZF1qO-cl-4">
          <mxGeometry x="1400" y="60" width="120" height="80" as="geometry" />
        </mxCell>
        <mxCell id="vcw9PWRFaFQ3ZF1qO-cl-5" value="sys-notifications" style="swimlane;horizontal=0;whiteSpace=wrap;html=1;" vertex="1" parent="Aa5zBOkpth9xLfSPm0mI-1">
          <mxGeometry x="40" y="-500" width="2530" height="200" as="geometry" />
        </mxCell>
        <mxCell id="Aa5zBOkpth9xLfSPm0mI-7" value="Create notifications to driver" style="points=[[0.25,0,0],[0.5,0,0],[0.75,0,0],[1,0.25,0],[1,0.5,0],[1,0.75,0],[0.75,1,0],[0.5,1,0],[0.25,1,0],[0,0.75,0],[0,0.5,0],[0,0.25,0]];shape=mxgraph.bpmn.task;whiteSpace=wrap;rectStyle=rounded;size=10;html=1;container=1;expand=0;collapsible=0;taskMarker=abstract;" vertex="1" parent="vcw9PWRFaFQ3ZF1qO-cl-5">
          <mxGeometry x="1870" y="50" width="120" height="80" as="geometry" />
        </mxCell>
        <mxCell id="vcw9PWRFaFQ3ZF1qO-cl-21" value="Create notifications to client" style="points=[[0.25,0,0],[0.5,0,0],[0.75,0,0],[1,0.25,0],[1,0.5,0],[1,0.75,0],[0.75,1,0],[0.5,1,0],[0.25,1,0],[0,0.75,0],[0,0.5,0],[0,0.25,0]];shape=mxgraph.bpmn.task;whiteSpace=wrap;rectStyle=rounded;size=10;html=1;container=1;expand=0;collapsible=0;taskMarker=abstract;" vertex="1" parent="vcw9PWRFaFQ3ZF1qO-cl-5">
          <mxGeometry x="2040" y="50" width="120" height="80" as="geometry" />
        </mxCell>
        <mxCell id="Aa5zBOkpth9xLfSPm0mI-5" value="" style="edgeStyle=orthogonalEdgeStyle;rounded=0;orthogonalLoop=1;jettySize=auto;html=1;" edge="1" parent="Aa5zBOkpth9xLfSPm0mI-1" source="Aa5zBOkpth9xLfSPm0mI-6" target="Aa5zBOkpth9xLfSPm0mI-10">
          <mxGeometry relative="1" as="geometry" />
        </mxCell>
        <mxCell id="vcw9PWRFaFQ3ZF1qO-cl-6" value="GET /drivers" style="edgeLabel;html=1;align=center;verticalAlign=middle;resizable=0;points=[];" vertex="1" connectable="0" parent="Aa5zBOkpth9xLfSPm0mI-5">
          <mxGeometry x="0.2296" y="-4" relative="1" as="geometry">
            <mxPoint as="offset" />
          </mxGeometry>
        </mxCell>
        <mxCell id="vcw9PWRFaFQ3ZF1qO-cl-14" style="edgeStyle=orthogonalEdgeStyle;rounded=0;orthogonalLoop=1;jettySize=auto;html=1;" edge="1" parent="Aa5zBOkpth9xLfSPm0mI-1" source="vcw9PWRFaFQ3ZF1qO-cl-12" target="Aa5zBOkpth9xLfSPm0mI-7">
          <mxGeometry relative="1" as="geometry">
            <Array as="points">
              <mxPoint x="1950" y="-410" />
            </Array>
          </mxGeometry>
        </mxCell>
        <mxCell id="vcw9PWRFaFQ3ZF1qO-cl-15" value="POST /notification" style="edgeLabel;html=1;align=center;verticalAlign=middle;resizable=0;points=[];" vertex="1" connectable="0" parent="vcw9PWRFaFQ3ZF1qO-cl-14">
          <mxGeometry x="-0.05" y="2" relative="1" as="geometry">
            <mxPoint as="offset" />
          </mxGeometry>
        </mxCell>
        <mxCell id="vcw9PWRFaFQ3ZF1qO-cl-19" value="" style="edgeStyle=orthogonalEdgeStyle;rounded=0;orthogonalLoop=1;jettySize=auto;html=1;" edge="1" parent="Aa5zBOkpth9xLfSPm0mI-1" source="Aa5zBOkpth9xLfSPm0mI-10" target="vcw9PWRFaFQ3ZF1qO-cl-16">
          <mxGeometry relative="1" as="geometry">
            <mxPoint x="1560" y="-200" as="sourcePoint" />
            <mxPoint x="1760" y="-10" as="targetPoint" />
            <Array as="points">
              <mxPoint x="1620" y="-200" />
            </Array>
          </mxGeometry>
        </mxCell>
        <mxCell id="vcw9PWRFaFQ3ZF1qO-cl-24" style="edgeStyle=orthogonalEdgeStyle;rounded=0;orthogonalLoop=1;jettySize=auto;html=1;" edge="1" parent="Aa5zBOkpth9xLfSPm0mI-1" source="vcw9PWRFaFQ3ZF1qO-cl-22" target="vcw9PWRFaFQ3ZF1qO-cl-21">
          <mxGeometry relative="1" as="geometry" />
        </mxCell>
        <mxCell id="vcw9PWRFaFQ3ZF1qO-cl-25" value="POST /notification" style="edgeLabel;html=1;align=center;verticalAlign=middle;resizable=0;points=[];" vertex="1" connectable="0" parent="vcw9PWRFaFQ3ZF1qO-cl-24">
          <mxGeometry x="-0.0562" relative="1" as="geometry">
            <mxPoint as="offset" />
          </mxGeometry>
        </mxCell>
        <mxCell id="vcw9PWRFaFQ3ZF1qO-cl-31" value="sys-ride-express-db" style="swimlane;horizontal=0;whiteSpace=wrap;html=1;" vertex="1" parent="Aa5zBOkpth9xLfSPm0mI-1">
          <mxGeometry x="40" y="-700" width="2530" height="200" as="geometry" />
        </mxCell>
        <mxCell id="vcw9PWRFaFQ3ZF1qO-cl-32" value="Create ride" style="points=[[0.25,0,0],[0.5,0,0],[0.75,0,0],[1,0.25,0],[1,0.5,0],[1,0.75,0],[0.75,1,0],[0.5,1,0],[0.25,1,0],[0,0.75,0],[0,0.5,0],[0,0.25,0]];shape=mxgraph.bpmn.task;whiteSpace=wrap;rectStyle=rounded;size=10;html=1;container=1;expand=0;collapsible=0;taskMarker=abstract;" vertex="1" parent="vcw9PWRFaFQ3ZF1qO-cl-31">
          <mxGeometry x="830" y="50" width="120" height="80" as="geometry" />
        </mxCell>
        <mxCell id="vcw9PWRFaFQ3ZF1qO-cl-38" value="Update Ride" style="points=[[0.25,0,0],[0.5,0,0],[0.75,0,0],[1,0.25,0],[1,0.5,0],[1,0.75,0],[0.75,1,0],[0.5,1,0],[0.25,1,0],[0,0.75,0],[0,0.5,0],[0,0.25,0]];shape=mxgraph.bpmn.task;whiteSpace=wrap;rectStyle=rounded;size=10;html=1;container=1;expand=0;collapsible=0;taskMarker=abstract;" vertex="1" parent="vcw9PWRFaFQ3ZF1qO-cl-31">
          <mxGeometry x="1690" y="50" width="120" height="80" as="geometry" />
        </mxCell>
        <mxCell id="vcw9PWRFaFQ3ZF1qO-cl-42" value="Update Ride" style="points=[[0.25,0,0],[0.5,0,0],[0.75,0,0],[1,0.25,0],[1,0.5,0],[1,0.75,0],[0.75,1,0],[0.5,1,0],[0.25,1,0],[0,0.75,0],[0,0.5,0],[0,0.25,0]];shape=mxgraph.bpmn.task;whiteSpace=wrap;rectStyle=rounded;size=10;html=1;container=1;expand=0;collapsible=0;taskMarker=abstract;" vertex="1" parent="vcw9PWRFaFQ3ZF1qO-cl-31">
          <mxGeometry x="2200" y="50" width="120" height="80" as="geometry" />
        </mxCell>
        <mxCell id="Aa5zBOkpth9xLfSPm0mI-27" value="" style="ellipse;whiteSpace=wrap;html=1;aspect=fixed;fillColor=#000000;" vertex="1" parent="vcw9PWRFaFQ3ZF1qO-cl-31">
          <mxGeometry x="2410" y="65" width="50" height="50" as="geometry" />
        </mxCell>
        <mxCell id="vcw9PWRFaFQ3ZF1qO-cl-45" style="edgeStyle=orthogonalEdgeStyle;rounded=0;orthogonalLoop=1;jettySize=auto;html=1;" edge="1" parent="vcw9PWRFaFQ3ZF1qO-cl-31" source="vcw9PWRFaFQ3ZF1qO-cl-42" target="Aa5zBOkpth9xLfSPm0mI-27">
          <mxGeometry relative="1" as="geometry" />
        </mxCell>
        <mxCell id="vcw9PWRFaFQ3ZF1qO-cl-33" style="edgeStyle=orthogonalEdgeStyle;rounded=0;orthogonalLoop=1;jettySize=auto;html=1;" edge="1" parent="Aa5zBOkpth9xLfSPm0mI-1" source="UceIsVDDBgMtnl9OKH8S-29" target="vcw9PWRFaFQ3ZF1qO-cl-32">
          <mxGeometry relative="1" as="geometry" />
        </mxCell>
        <mxCell id="vcw9PWRFaFQ3ZF1qO-cl-34" value="POST /ride" style="edgeLabel;html=1;align=center;verticalAlign=middle;resizable=0;points=[];" vertex="1" connectable="0" parent="vcw9PWRFaFQ3ZF1qO-cl-33">
          <mxGeometry x="-0.2577" y="3" relative="1" as="geometry">
            <mxPoint as="offset" />
          </mxGeometry>
        </mxCell>
        <mxCell id="vcw9PWRFaFQ3ZF1qO-cl-37" style="edgeStyle=orthogonalEdgeStyle;rounded=0;orthogonalLoop=1;jettySize=auto;html=1;entryX=0;entryY=0.5;entryDx=0;entryDy=0;entryPerimeter=0;" edge="1" parent="Aa5zBOkpth9xLfSPm0mI-1" source="vcw9PWRFaFQ3ZF1qO-cl-32" target="vcw9PWRFaFQ3ZF1qO-cl-35">
          <mxGeometry relative="1" as="geometry" />
        </mxCell>
        <mxCell id="vcw9PWRFaFQ3ZF1qO-cl-39" style="edgeStyle=orthogonalEdgeStyle;rounded=0;orthogonalLoop=1;jettySize=auto;html=1;entryX=0.5;entryY=1;entryDx=0;entryDy=0;entryPerimeter=0;" edge="1" parent="Aa5zBOkpth9xLfSPm0mI-1" source="vcw9PWRFaFQ3ZF1qO-cl-27" target="vcw9PWRFaFQ3ZF1qO-cl-38">
          <mxGeometry relative="1" as="geometry" />
        </mxCell>
        <mxCell id="vcw9PWRFaFQ3ZF1qO-cl-40" value="PATCH /ride/{id}" style="edgeLabel;html=1;align=center;verticalAlign=middle;resizable=0;points=[];" vertex="1" connectable="0" parent="vcw9PWRFaFQ3ZF1qO-cl-39">
          <mxGeometry x="-0.3154" y="-1" relative="1" as="geometry">
            <mxPoint as="offset" />
          </mxGeometry>
        </mxCell>
        <mxCell id="vcw9PWRFaFQ3ZF1qO-cl-41" style="edgeStyle=orthogonalEdgeStyle;rounded=0;orthogonalLoop=1;jettySize=auto;html=1;entryX=0;entryY=0.5;entryDx=0;entryDy=0;entryPerimeter=0;" edge="1" parent="Aa5zBOkpth9xLfSPm0mI-1" source="vcw9PWRFaFQ3ZF1qO-cl-38" target="vcw9PWRFaFQ3ZF1qO-cl-12">
          <mxGeometry relative="1" as="geometry" />
        </mxCell>
        <mxCell id="vcw9PWRFaFQ3ZF1qO-cl-43" style="edgeStyle=orthogonalEdgeStyle;rounded=0;orthogonalLoop=1;jettySize=auto;html=1;" edge="1" parent="Aa5zBOkpth9xLfSPm0mI-1" source="vcw9PWRFaFQ3ZF1qO-cl-29" target="vcw9PWRFaFQ3ZF1qO-cl-42">
          <mxGeometry relative="1" as="geometry" />
        </mxCell>
        <mxCell id="vcw9PWRFaFQ3ZF1qO-cl-44" value="PATCH /ride/{id}" style="edgeLabel;html=1;align=center;verticalAlign=middle;resizable=0;points=[];" vertex="1" connectable="0" parent="vcw9PWRFaFQ3ZF1qO-cl-43">
          <mxGeometry x="-0.3846" y="-3" relative="1" as="geometry">
            <mxPoint as="offset" />
          </mxGeometry>
        </mxCell>
        <mxCell id="C3QgSeb7qapD51WO8Hnc-0" value="&lt;h1&gt;Diagram for the interaction between the Client and the Exp API when it&#39;s creating a ride&lt;br&gt;&lt;/h1&gt;" style="text;html=1;align=center;verticalAlign=middle;resizable=0;points=[];autosize=1;strokeColor=none;fillColor=none;" vertex="1" parent="Aa5zBOkpth9xLfSPm0mI-1">
          <mxGeometry x="40" y="-770" width="1020" height="70" as="geometry" />
        </mxCell>
      </root>
    </mxGraphModel>
  </diagram>
  <diagram name="Drill down accepting ride by Driver" id="8dZDTHeo8D08LRkWfQlF">
    <mxGraphModel dx="1715" dy="1933" grid="1" gridSize="10" guides="1" tooltips="1" connect="1" arrows="1" fold="1" page="1" pageScale="1" pageWidth="1100" pageHeight="850" math="0" shadow="0">
      <root>
        <mxCell id="X2ThzPGtKYhUf4odgKNz-0" />
        <mxCell id="X2ThzPGtKYhUf4odgKNz-1" parent="X2ThzPGtKYhUf4odgKNz-0" />
        <mxCell id="X2ThzPGtKYhUf4odgKNz-2" value="exp-ride-x-press" style="swimlane;horizontal=0;whiteSpace=wrap;html=1;" vertex="1" parent="X2ThzPGtKYhUf4odgKNz-1">
          <mxGeometry x="40" y="300" width="1980" height="200" as="geometry" />
        </mxCell>
        <mxCell id="X2ThzPGtKYhUf4odgKNz-11" value="Get ride information" style="points=[[0.25,0,0],[0.5,0,0],[0.75,0,0],[1,0.25,0],[1,0.5,0],[1,0.75,0],[0.75,1,0],[0.5,1,0],[0.25,1,0],[0,0.75,0],[0,0.5,0],[0,0.25,0]];shape=mxgraph.bpmn.task;whiteSpace=wrap;rectStyle=rounded;size=10;html=1;container=1;expand=0;collapsible=0;taskMarker=abstract;" vertex="1" parent="X2ThzPGtKYhUf4odgKNz-2">
          <mxGeometry x="290" y="50" width="120" height="80" as="geometry" />
        </mxCell>
        <mxCell id="CamVfR9ugrW1JxGiYKS_-6" value="Store driver location for ride" style="points=[[0.25,0,0],[0.5,0,0],[0.75,0,0],[1,0.25,0],[1,0.5,0],[1,0.75,0],[0.75,1,0],[0.5,1,0],[0.25,1,0],[0,0.75,0],[0,0.5,0],[0,0.25,0]];shape=mxgraph.bpmn.task;whiteSpace=wrap;rectStyle=rounded;size=10;html=1;container=1;expand=0;collapsible=0;taskMarker=abstract;" vertex="1" parent="X2ThzPGtKYhUf4odgKNz-2">
          <mxGeometry x="800" y="60" width="120" height="80" as="geometry" />
        </mxCell>
        <mxCell id="awVs3pG0yQR2r-SzLTOa-23" value="Update Ride with client information" style="points=[[0.25,0,0],[0.5,0,0],[0.75,0,0],[1,0.25,0],[1,0.5,0],[1,0.75,0],[0.75,1,0],[0.5,1,0],[0.25,1,0],[0,0.75,0],[0,0.5,0],[0,0.25,0]];shape=mxgraph.bpmn.task;whiteSpace=wrap;rectStyle=rounded;size=10;html=1;container=1;expand=0;collapsible=0;taskMarker=abstract;" vertex="1" parent="X2ThzPGtKYhUf4odgKNz-2">
          <mxGeometry x="1720" y="70" width="120" height="80" as="geometry" />
        </mxCell>
        <mxCell id="X2ThzPGtKYhUf4odgKNz-5" value="Driver - Mobile App" style="swimlane;horizontal=0;whiteSpace=wrap;html=1;" vertex="1" parent="X2ThzPGtKYhUf4odgKNz-1">
          <mxGeometry x="40" y="500" width="1980" height="200" as="geometry" />
        </mxCell>
        <mxCell id="X2ThzPGtKYhUf4odgKNz-8" value="Gets ride Information" style="points=[[0.25,0,0],[0.5,0,0],[0.75,0,0],[1,0.25,0],[1,0.5,0],[1,0.75,0],[0.75,1,0],[0.5,1,0],[0.25,1,0],[0,0.75,0],[0,0.5,0],[0,0.25,0]];shape=mxgraph.bpmn.task;whiteSpace=wrap;rectStyle=rounded;size=10;html=1;container=1;expand=0;collapsible=0;taskMarker=abstract;" vertex="1" parent="X2ThzPGtKYhUf4odgKNz-5">
          <mxGeometry x="170" y="60" width="120" height="80" as="geometry" />
        </mxCell>
        <mxCell id="X2ThzPGtKYhUf4odgKNz-38" value="Display Ride information" style="points=[[0.25,0,0],[0.5,0,0],[0.75,0,0],[1,0.25,0],[1,0.5,0],[1,0.75,0],[0.75,1,0],[0.5,1,0],[0.25,1,0],[0,0.75,0],[0,0.5,0],[0,0.25,0]];shape=mxgraph.bpmn.task;whiteSpace=wrap;rectStyle=rounded;size=10;html=1;container=1;expand=0;collapsible=0;taskMarker=abstract;" vertex="1" parent="X2ThzPGtKYhUf4odgKNz-5">
          <mxGeometry x="580" y="60" width="120" height="80" as="geometry" />
        </mxCell>
        <mxCell id="awVs3pG0yQR2r-SzLTOa-10" style="edgeStyle=orthogonalEdgeStyle;rounded=0;orthogonalLoop=1;jettySize=auto;html=1;" edge="1" parent="X2ThzPGtKYhUf4odgKNz-5" source="awVs3pG0yQR2r-SzLTOa-6" target="awVs3pG0yQR2r-SzLTOa-9">
          <mxGeometry relative="1" as="geometry" />
        </mxCell>
        <mxCell id="awVs3pG0yQR2r-SzLTOa-6" value="Check driver location with Client destination" style="points=[[0.25,0,0],[0.5,0,0],[0.75,0,0],[1,0.25,0],[1,0.5,0],[1,0.75,0],[0.75,1,0],[0.5,1,0],[0.25,1,0],[0,0.75,0],[0,0.5,0],[0,0.25,0]];shape=mxgraph.bpmn.task;whiteSpace=wrap;rectStyle=rounded;size=10;html=1;container=1;expand=0;collapsible=0;taskMarker=abstract;" vertex="1" parent="X2ThzPGtKYhUf4odgKNz-5">
          <mxGeometry x="1060" y="60" width="120" height="80" as="geometry" />
        </mxCell>
        <mxCell id="awVs3pG0yQR2r-SzLTOa-9" value="Arrived pickup location?" style="points=[[0.25,0.25,0],[0.5,0,0],[0.75,0.25,0],[1,0.5,0],[0.75,0.75,0],[0.5,1,0],[0.25,0.75,0],[0,0.5,0]];shape=mxgraph.bpmn.gateway2;html=1;verticalLabelPosition=bottom;labelBackgroundColor=#ffffff;verticalAlign=top;align=center;perimeter=rhombusPerimeter;outlineConnect=0;outline=none;symbol=none;" vertex="1" parent="X2ThzPGtKYhUf4odgKNz-5">
          <mxGeometry x="1240" y="80" width="50" height="40" as="geometry" />
        </mxCell>
        <mxCell id="awVs3pG0yQR2r-SzLTOa-13" value="Check if client is in car" style="points=[[0.25,0,0],[0.5,0,0],[0.75,0,0],[1,0.25,0],[1,0.5,0],[1,0.75,0],[0.75,1,0],[0.5,1,0],[0.25,1,0],[0,0.75,0],[0,0.5,0],[0,0.25,0]];shape=mxgraph.bpmn.task;whiteSpace=wrap;rectStyle=rounded;size=10;html=1;container=1;expand=0;collapsible=0;taskMarker=abstract;" vertex="1" parent="X2ThzPGtKYhUf4odgKNz-5">
          <mxGeometry x="1390" y="60" width="120" height="80" as="geometry" />
        </mxCell>
        <mxCell id="awVs3pG0yQR2r-SzLTOa-14" style="edgeStyle=orthogonalEdgeStyle;rounded=0;orthogonalLoop=1;jettySize=auto;html=1;entryX=0;entryY=0.5;entryDx=0;entryDy=0;entryPerimeter=0;" edge="1" parent="X2ThzPGtKYhUf4odgKNz-5" source="awVs3pG0yQR2r-SzLTOa-9" target="awVs3pG0yQR2r-SzLTOa-13">
          <mxGeometry relative="1" as="geometry" />
        </mxCell>
        <mxCell id="awVs3pG0yQR2r-SzLTOa-15" value="Yes" style="edgeLabel;html=1;align=center;verticalAlign=middle;resizable=0;points=[];" vertex="1" connectable="0" parent="awVs3pG0yQR2r-SzLTOa-14">
          <mxGeometry x="0.05" y="-3" relative="1" as="geometry">
            <mxPoint as="offset" />
          </mxGeometry>
        </mxCell>
        <mxCell id="awVs3pG0yQR2r-SzLTOa-22" style="edgeStyle=orthogonalEdgeStyle;rounded=0;orthogonalLoop=1;jettySize=auto;html=1;" edge="1" parent="X2ThzPGtKYhUf4odgKNz-5" source="awVs3pG0yQR2r-SzLTOa-17" target="awVs3pG0yQR2r-SzLTOa-21">
          <mxGeometry relative="1" as="geometry" />
        </mxCell>
        <mxCell id="awVs3pG0yQR2r-SzLTOa-17" value="Is client in car?" style="points=[[0.25,0.25,0],[0.5,0,0],[0.75,0.25,0],[1,0.5,0],[0.75,0.75,0],[0.5,1,0],[0.25,0.75,0],[0,0.5,0]];shape=mxgraph.bpmn.gateway2;html=1;verticalLabelPosition=bottom;labelBackgroundColor=#ffffff;verticalAlign=top;align=center;perimeter=rhombusPerimeter;outlineConnect=0;outline=none;symbol=none;" vertex="1" parent="X2ThzPGtKYhUf4odgKNz-5">
          <mxGeometry x="1600" y="80" width="50" height="40" as="geometry" />
        </mxCell>
        <mxCell id="awVs3pG0yQR2r-SzLTOa-18" style="edgeStyle=orthogonalEdgeStyle;rounded=0;orthogonalLoop=1;jettySize=auto;html=1;entryX=0;entryY=0.5;entryDx=0;entryDy=0;entryPerimeter=0;" edge="1" parent="X2ThzPGtKYhUf4odgKNz-5" source="awVs3pG0yQR2r-SzLTOa-13" target="awVs3pG0yQR2r-SzLTOa-17">
          <mxGeometry relative="1" as="geometry" />
        </mxCell>
        <mxCell id="awVs3pG0yQR2r-SzLTOa-19" style="edgeStyle=orthogonalEdgeStyle;rounded=0;orthogonalLoop=1;jettySize=auto;html=1;exitX=0.5;exitY=1;exitDx=0;exitDy=0;exitPerimeter=0;entryX=0.5;entryY=1;entryDx=0;entryDy=0;entryPerimeter=0;" edge="1" parent="X2ThzPGtKYhUf4odgKNz-5" source="awVs3pG0yQR2r-SzLTOa-17" target="awVs3pG0yQR2r-SzLTOa-13">
          <mxGeometry relative="1" as="geometry" />
        </mxCell>
        <mxCell id="awVs3pG0yQR2r-SzLTOa-20" value="No" style="edgeLabel;html=1;align=center;verticalAlign=middle;resizable=0;points=[];" vertex="1" connectable="0" parent="awVs3pG0yQR2r-SzLTOa-19">
          <mxGeometry x="0.0383" y="3" relative="1" as="geometry">
            <mxPoint as="offset" />
          </mxGeometry>
        </mxCell>
        <mxCell id="awVs3pG0yQR2r-SzLTOa-21" value="Inform Client in the car" style="points=[[0.25,0,0],[0.5,0,0],[0.75,0,0],[1,0.25,0],[1,0.5,0],[1,0.75,0],[0.75,1,0],[0.5,1,0],[0.25,1,0],[0,0.75,0],[0,0.5,0],[0,0.25,0]];shape=mxgraph.bpmn.task;whiteSpace=wrap;rectStyle=rounded;size=10;html=1;container=1;expand=0;collapsible=0;taskMarker=abstract;" vertex="1" parent="X2ThzPGtKYhUf4odgKNz-5">
          <mxGeometry x="1720" y="60" width="120" height="80" as="geometry" />
        </mxCell>
        <mxCell id="X2ThzPGtKYhUf4odgKNz-24" value="prc-ride" style="swimlane;horizontal=0;whiteSpace=wrap;html=1;" vertex="1" parent="X2ThzPGtKYhUf4odgKNz-1">
          <mxGeometry x="40" y="100" width="1980" height="200" as="geometry" />
        </mxCell>
        <mxCell id="TzzBlq6gYo3QLornzrnT-5" value="Get Ride information" style="points=[[0.25,0,0],[0.5,0,0],[0.75,0,0],[1,0.25,0],[1,0.5,0],[1,0.75,0],[0.75,1,0],[0.5,1,0],[0.25,1,0],[0,0.75,0],[0,0.5,0],[0,0.25,0]];shape=mxgraph.bpmn.task;whiteSpace=wrap;rectStyle=rounded;size=10;html=1;container=1;expand=0;collapsible=0;taskMarker=abstract;" vertex="1" parent="X2ThzPGtKYhUf4odgKNz-24">
          <mxGeometry x="290" y="50" width="120" height="80" as="geometry" />
        </mxCell>
        <mxCell id="awVs3pG0yQR2r-SzLTOa-28" value="Update Ride with client information and conciliate with Client information" style="points=[[0.25,0,0],[0.5,0,0],[0.75,0,0],[1,0.25,0],[1,0.5,0],[1,0.75,0],[0.75,1,0],[0.5,1,0],[0.25,1,0],[0,0.75,0],[0,0.5,0],[0,0.25,0]];shape=mxgraph.bpmn.task;whiteSpace=wrap;rectStyle=rounded;size=10;html=1;container=1;expand=0;collapsible=0;taskMarker=abstract;" vertex="1" parent="X2ThzPGtKYhUf4odgKNz-24">
          <mxGeometry x="1720" y="60" width="120" height="80" as="geometry" />
        </mxCell>
        <mxCell id="X2ThzPGtKYhUf4odgKNz-42" value="sys-drivers" style="swimlane;horizontal=0;whiteSpace=wrap;html=1;startSize=23;" vertex="1" parent="X2ThzPGtKYhUf4odgKNz-1">
          <mxGeometry x="40" y="-100" width="1980" height="200" as="geometry" />
        </mxCell>
        <mxCell id="awVs3pG0yQR2r-SzLTOa-2" value="Store driver location" style="points=[[0.25,0,0],[0.5,0,0],[0.75,0,0],[1,0.25,0],[1,0.5,0],[1,0.75,0],[0.75,1,0],[0.5,1,0],[0.25,1,0],[0,0.75,0],[0,0.5,0],[0,0.25,0]];shape=mxgraph.bpmn.task;whiteSpace=wrap;rectStyle=rounded;size=10;html=1;container=1;expand=0;collapsible=0;taskMarker=abstract;" vertex="1" parent="X2ThzPGtKYhUf4odgKNz-42">
          <mxGeometry x="800" y="50" width="120" height="80" as="geometry" />
        </mxCell>
        <mxCell id="X2ThzPGtKYhUf4odgKNz-44" value="sys-notifications" style="swimlane;horizontal=0;whiteSpace=wrap;html=1;" vertex="1" parent="X2ThzPGtKYhUf4odgKNz-1">
          <mxGeometry x="40" y="-300" width="1980" height="200" as="geometry" />
        </mxCell>
        <mxCell id="TzzBlq6gYo3QLornzrnT-0" value="Send notification to driver" style="points=[[0.25,0,0],[0.5,0,0],[0.75,0,0],[1,0.25,0],[1,0.5,0],[1,0.75,0],[0.75,1,0],[0.5,1,0],[0.25,1,0],[0,0.75,0],[0,0.5,0],[0,0.25,0]];shape=mxgraph.bpmn.task;whiteSpace=wrap;rectStyle=rounded;size=10;html=1;container=1;expand=0;collapsible=0;taskMarker=abstract;" vertex="1" parent="X2ThzPGtKYhUf4odgKNz-44">
          <mxGeometry x="170" y="60" width="120" height="80" as="geometry" />
        </mxCell>
        <mxCell id="X2ThzPGtKYhUf4odgKNz-7" value="" style="points=[[0.145,0.145,0],[0.5,0,0],[0.855,0.145,0],[1,0.5,0],[0.855,0.855,0],[0.5,1,0],[0.145,0.855,0],[0,0.5,0]];shape=mxgraph.bpmn.event;html=1;verticalLabelPosition=bottom;labelBackgroundColor=#ffffff;verticalAlign=top;align=center;perimeter=ellipsePerimeter;outlineConnect=0;aspect=fixed;outline=standard;symbol=general;" vertex="1" parent="X2ThzPGtKYhUf4odgKNz-44">
          <mxGeometry x="70" y="75" width="50" height="50" as="geometry" />
        </mxCell>
        <mxCell id="TzzBlq6gYo3QLornzrnT-1" style="edgeStyle=orthogonalEdgeStyle;rounded=0;orthogonalLoop=1;jettySize=auto;html=1;entryX=0;entryY=0.5;entryDx=0;entryDy=0;entryPerimeter=0;" edge="1" parent="X2ThzPGtKYhUf4odgKNz-44" source="X2ThzPGtKYhUf4odgKNz-7" target="TzzBlq6gYo3QLornzrnT-0">
          <mxGeometry relative="1" as="geometry" />
        </mxCell>
        <mxCell id="X2ThzPGtKYhUf4odgKNz-54" value="sys-ride-express-db" style="swimlane;horizontal=0;whiteSpace=wrap;html=1;" vertex="1" parent="X2ThzPGtKYhUf4odgKNz-1">
          <mxGeometry x="40" y="-500" width="1980" height="200" as="geometry" />
        </mxCell>
        <mxCell id="X2ThzPGtKYhUf4odgKNz-55" value="Get Ride" style="points=[[0.25,0,0],[0.5,0,0],[0.75,0,0],[1,0.25,0],[1,0.5,0],[1,0.75,0],[0.75,1,0],[0.5,1,0],[0.25,1,0],[0,0.75,0],[0,0.5,0],[0,0.25,0]];shape=mxgraph.bpmn.task;whiteSpace=wrap;rectStyle=rounded;size=10;html=1;container=1;expand=0;collapsible=0;taskMarker=abstract;" vertex="1" parent="X2ThzPGtKYhUf4odgKNz-54">
          <mxGeometry x="390" y="65" width="120" height="80" as="geometry" />
        </mxCell>
        <mxCell id="awVs3pG0yQR2r-SzLTOa-30" value="Update Ride" style="points=[[0.25,0,0],[0.5,0,0],[0.75,0,0],[1,0.25,0],[1,0.5,0],[1,0.75,0],[0.75,1,0],[0.5,1,0],[0.25,1,0],[0,0.75,0],[0,0.5,0],[0,0.25,0]];shape=mxgraph.bpmn.task;whiteSpace=wrap;rectStyle=rounded;size=10;html=1;container=1;expand=0;collapsible=0;taskMarker=abstract;" vertex="1" parent="X2ThzPGtKYhUf4odgKNz-54">
          <mxGeometry x="1720" y="60" width="120" height="80" as="geometry" />
        </mxCell>
        <mxCell id="X2ThzPGtKYhUf4odgKNz-58" value="" style="ellipse;whiteSpace=wrap;html=1;aspect=fixed;fillColor=#000000;" vertex="1" parent="X2ThzPGtKYhUf4odgKNz-54">
          <mxGeometry x="1890" y="75" width="50" height="50" as="geometry" />
        </mxCell>
        <mxCell id="awVs3pG0yQR2r-SzLTOa-33" style="edgeStyle=orthogonalEdgeStyle;rounded=0;orthogonalLoop=1;jettySize=auto;html=1;" edge="1" parent="X2ThzPGtKYhUf4odgKNz-54" source="awVs3pG0yQR2r-SzLTOa-30" target="X2ThzPGtKYhUf4odgKNz-58">
          <mxGeometry relative="1" as="geometry" />
        </mxCell>
        <mxCell id="X2ThzPGtKYhUf4odgKNz-60" style="edgeStyle=orthogonalEdgeStyle;rounded=0;orthogonalLoop=1;jettySize=auto;html=1;exitX=1;exitY=0.5;exitDx=0;exitDy=0;exitPerimeter=0;" edge="1" parent="X2ThzPGtKYhUf4odgKNz-1" source="TzzBlq6gYo3QLornzrnT-5" target="X2ThzPGtKYhUf4odgKNz-55">
          <mxGeometry relative="1" as="geometry">
            <mxPoint x="930" y="150" as="sourcePoint" />
          </mxGeometry>
        </mxCell>
        <mxCell id="X2ThzPGtKYhUf4odgKNz-61" value="GET /ride/{id}" style="edgeLabel;html=1;align=center;verticalAlign=middle;resizable=0;points=[];" vertex="1" connectable="0" parent="X2ThzPGtKYhUf4odgKNz-60">
          <mxGeometry x="-0.2577" y="3" relative="1" as="geometry">
            <mxPoint as="offset" />
          </mxGeometry>
        </mxCell>
        <mxCell id="X2ThzPGtKYhUf4odgKNz-62" style="edgeStyle=orthogonalEdgeStyle;rounded=0;orthogonalLoop=1;jettySize=auto;html=1;entryX=0;entryY=0.5;entryDx=0;entryDy=0;entryPerimeter=0;" edge="1" parent="X2ThzPGtKYhUf4odgKNz-1" source="X2ThzPGtKYhUf4odgKNz-55" target="X2ThzPGtKYhUf4odgKNz-38">
          <mxGeometry relative="1" as="geometry" />
        </mxCell>
        <mxCell id="TzzBlq6gYo3QLornzrnT-2" style="edgeStyle=orthogonalEdgeStyle;rounded=0;orthogonalLoop=1;jettySize=auto;html=1;" edge="1" parent="X2ThzPGtKYhUf4odgKNz-1" source="TzzBlq6gYo3QLornzrnT-0" target="X2ThzPGtKYhUf4odgKNz-8">
          <mxGeometry relative="1" as="geometry" />
        </mxCell>
        <mxCell id="TzzBlq6gYo3QLornzrnT-3" value="Push ride ID" style="edgeLabel;html=1;align=center;verticalAlign=middle;resizable=0;points=[];" vertex="1" connectable="0" parent="TzzBlq6gYo3QLornzrnT-2">
          <mxGeometry x="-0.1413" y="-2" relative="1" as="geometry">
            <mxPoint as="offset" />
          </mxGeometry>
        </mxCell>
        <mxCell id="X2ThzPGtKYhUf4odgKNz-12" style="edgeStyle=orthogonalEdgeStyle;rounded=0;orthogonalLoop=1;jettySize=auto;html=1;" edge="1" parent="X2ThzPGtKYhUf4odgKNz-1" source="X2ThzPGtKYhUf4odgKNz-8">
          <mxGeometry relative="1" as="geometry">
            <mxPoint x="390" y="430" as="targetPoint" />
            <Array as="points">
              <mxPoint x="390" y="600" />
            </Array>
          </mxGeometry>
        </mxCell>
        <mxCell id="TzzBlq6gYo3QLornzrnT-4" value="GET /ride/{id}" style="edgeLabel;html=1;align=center;verticalAlign=middle;resizable=0;points=[];" vertex="1" connectable="0" parent="X2ThzPGtKYhUf4odgKNz-12">
          <mxGeometry x="0.113" y="1" relative="1" as="geometry">
            <mxPoint as="offset" />
          </mxGeometry>
        </mxCell>
        <mxCell id="TzzBlq6gYo3QLornzrnT-6" value="" style="edgeStyle=orthogonalEdgeStyle;rounded=0;orthogonalLoop=1;jettySize=auto;html=1;" edge="1" parent="X2ThzPGtKYhUf4odgKNz-1" source="X2ThzPGtKYhUf4odgKNz-11" target="TzzBlq6gYo3QLornzrnT-5">
          <mxGeometry relative="1" as="geometry" />
        </mxCell>
        <mxCell id="TzzBlq6gYo3QLornzrnT-7" value="GET /ride/{id}" style="edgeLabel;html=1;align=center;verticalAlign=middle;resizable=0;points=[];" vertex="1" connectable="0" parent="TzzBlq6gYo3QLornzrnT-6">
          <mxGeometry x="0.0125" y="2" relative="1" as="geometry">
            <mxPoint as="offset" />
          </mxGeometry>
        </mxCell>
        <mxCell id="CamVfR9ugrW1JxGiYKS_-1" value="" style="edgeStyle=orthogonalEdgeStyle;rounded=0;orthogonalLoop=1;jettySize=auto;html=1;" edge="1" parent="X2ThzPGtKYhUf4odgKNz-1" source="X2ThzPGtKYhUf4odgKNz-38" target="CamVfR9ugrW1JxGiYKS_-0">
          <mxGeometry relative="1" as="geometry">
            <mxPoint x="740" y="600" as="sourcePoint" />
            <mxPoint x="1210" y="220" as="targetPoint" />
          </mxGeometry>
        </mxCell>
        <mxCell id="awVs3pG0yQR2r-SzLTOa-7" value="" style="edgeStyle=orthogonalEdgeStyle;rounded=0;orthogonalLoop=1;jettySize=auto;html=1;" edge="1" parent="X2ThzPGtKYhUf4odgKNz-1" source="CamVfR9ugrW1JxGiYKS_-0" target="awVs3pG0yQR2r-SzLTOa-6">
          <mxGeometry relative="1" as="geometry" />
        </mxCell>
        <mxCell id="CamVfR9ugrW1JxGiYKS_-0" value="Inform driver location" style="points=[[0.25,0,0],[0.5,0,0],[0.75,0,0],[1,0.25,0],[1,0.5,0],[1,0.75,0],[0.75,1,0],[0.5,1,0],[0.25,1,0],[0,0.75,0],[0,0.5,0],[0,0.25,0]];shape=mxgraph.bpmn.task;whiteSpace=wrap;rectStyle=rounded;size=10;html=1;container=1;expand=0;collapsible=0;taskMarker=abstract;" vertex="1" parent="X2ThzPGtKYhUf4odgKNz-1">
          <mxGeometry x="840" y="560" width="120" height="80" as="geometry" />
        </mxCell>
        <mxCell id="awVs3pG0yQR2r-SzLTOa-0" style="edgeStyle=orthogonalEdgeStyle;rounded=0;orthogonalLoop=1;jettySize=auto;html=1;entryX=0.5;entryY=1;entryDx=0;entryDy=0;entryPerimeter=0;" edge="1" parent="X2ThzPGtKYhUf4odgKNz-1" source="CamVfR9ugrW1JxGiYKS_-0" target="CamVfR9ugrW1JxGiYKS_-6">
          <mxGeometry relative="1" as="geometry" />
        </mxCell>
        <mxCell id="awVs3pG0yQR2r-SzLTOa-1" value="POST /driver/{id}/location/" style="edgeLabel;html=1;align=center;verticalAlign=middle;resizable=0;points=[];" vertex="1" connectable="0" parent="awVs3pG0yQR2r-SzLTOa-0">
          <mxGeometry x="-0.2667" y="2" relative="1" as="geometry">
            <mxPoint as="offset" />
          </mxGeometry>
        </mxCell>
        <mxCell id="awVs3pG0yQR2r-SzLTOa-3" style="edgeStyle=orthogonalEdgeStyle;rounded=0;orthogonalLoop=1;jettySize=auto;html=1;" edge="1" parent="X2ThzPGtKYhUf4odgKNz-1" source="CamVfR9ugrW1JxGiYKS_-6" target="awVs3pG0yQR2r-SzLTOa-2">
          <mxGeometry relative="1" as="geometry" />
        </mxCell>
        <mxCell id="awVs3pG0yQR2r-SzLTOa-4" value="POST /driver/{id}/location" style="edgeLabel;html=1;align=center;verticalAlign=middle;resizable=0;points=[];" vertex="1" connectable="0" parent="awVs3pG0yQR2r-SzLTOa-3">
          <mxGeometry x="0.0727" y="2" relative="1" as="geometry">
            <mxPoint as="offset" />
          </mxGeometry>
        </mxCell>
        <mxCell id="awVs3pG0yQR2r-SzLTOa-5" style="edgeStyle=orthogonalEdgeStyle;rounded=0;orthogonalLoop=1;jettySize=auto;html=1;" edge="1" parent="X2ThzPGtKYhUf4odgKNz-1" source="awVs3pG0yQR2r-SzLTOa-2">
          <mxGeometry relative="1" as="geometry">
            <mxPoint x="960" y="580" as="targetPoint" />
            <Array as="points">
              <mxPoint x="1030" y="-10" />
              <mxPoint x="1030" y="580" />
              <mxPoint x="960" y="580" />
            </Array>
          </mxGeometry>
        </mxCell>
        <mxCell id="awVs3pG0yQR2r-SzLTOa-11" style="edgeStyle=orthogonalEdgeStyle;rounded=0;orthogonalLoop=1;jettySize=auto;html=1;entryX=0.5;entryY=1;entryDx=0;entryDy=0;entryPerimeter=0;" edge="1" parent="X2ThzPGtKYhUf4odgKNz-1" source="awVs3pG0yQR2r-SzLTOa-9" target="CamVfR9ugrW1JxGiYKS_-0">
          <mxGeometry relative="1" as="geometry">
            <Array as="points">
              <mxPoint x="1305" y="660" />
              <mxPoint x="900" y="660" />
            </Array>
          </mxGeometry>
        </mxCell>
        <mxCell id="awVs3pG0yQR2r-SzLTOa-12" value="No" style="edgeLabel;html=1;align=center;verticalAlign=middle;resizable=0;points=[];" vertex="1" connectable="0" parent="awVs3pG0yQR2r-SzLTOa-11">
          <mxGeometry x="-0.1183" y="-1" relative="1" as="geometry">
            <mxPoint as="offset" />
          </mxGeometry>
        </mxCell>
        <mxCell id="awVs3pG0yQR2r-SzLTOa-24" style="edgeStyle=orthogonalEdgeStyle;rounded=0;orthogonalLoop=1;jettySize=auto;html=1;" edge="1" parent="X2ThzPGtKYhUf4odgKNz-1" source="awVs3pG0yQR2r-SzLTOa-21" target="awVs3pG0yQR2r-SzLTOa-23">
          <mxGeometry relative="1" as="geometry" />
        </mxCell>
        <mxCell id="awVs3pG0yQR2r-SzLTOa-25" value="PATCH /ride/{id}" style="edgeLabel;html=1;align=center;verticalAlign=middle;resizable=0;points=[];" vertex="1" connectable="0" parent="awVs3pG0yQR2r-SzLTOa-24">
          <mxGeometry x="-0.2" y="3" relative="1" as="geometry">
            <mxPoint as="offset" />
          </mxGeometry>
        </mxCell>
        <mxCell id="awVs3pG0yQR2r-SzLTOa-29" style="edgeStyle=orthogonalEdgeStyle;rounded=0;orthogonalLoop=1;jettySize=auto;html=1;entryX=0.5;entryY=1;entryDx=0;entryDy=0;entryPerimeter=0;" edge="1" parent="X2ThzPGtKYhUf4odgKNz-1" source="awVs3pG0yQR2r-SzLTOa-23" target="awVs3pG0yQR2r-SzLTOa-28">
          <mxGeometry relative="1" as="geometry" />
        </mxCell>
        <mxCell id="awVs3pG0yQR2r-SzLTOa-31" style="edgeStyle=orthogonalEdgeStyle;rounded=0;orthogonalLoop=1;jettySize=auto;html=1;entryX=0.5;entryY=1;entryDx=0;entryDy=0;entryPerimeter=0;" edge="1" parent="X2ThzPGtKYhUf4odgKNz-1" source="awVs3pG0yQR2r-SzLTOa-28" target="awVs3pG0yQR2r-SzLTOa-30">
          <mxGeometry relative="1" as="geometry" />
        </mxCell>
        <mxCell id="awVs3pG0yQR2r-SzLTOa-32" value="PATCH /ride/{id}" style="edgeLabel;html=1;align=center;verticalAlign=middle;resizable=0;points=[];" vertex="1" connectable="0" parent="awVs3pG0yQR2r-SzLTOa-31">
          <mxGeometry x="-0.4231" y="1" relative="1" as="geometry">
            <mxPoint as="offset" />
          </mxGeometry>
        </mxCell>
        <mxCell id="PCahLEgkdWDQpwznTjNG-0" value="&lt;h1&gt;Diagram for the interaction between the Driver and the Exp API when it&#39;s looking and accepting a ride&lt;br&gt;&lt;/h1&gt;" style="text;html=1;align=center;verticalAlign=middle;resizable=0;points=[];autosize=1;strokeColor=none;fillColor=none;" vertex="1" parent="X2ThzPGtKYhUf4odgKNz-1">
          <mxGeometry x="40" y="-570" width="1180" height="70" as="geometry" />
        </mxCell>
      </root>
    </mxGraphModel>
  </diagram>
  <diagram name="Drill down Client and the Exp API when it&#39;s waiting to do the ride" id="yIVAFQCSum2osdcq73iJ">
    <mxGraphModel dx="1715" dy="1933" grid="1" gridSize="10" guides="1" tooltips="1" connect="1" arrows="1" fold="1" page="1" pageScale="1" pageWidth="1100" pageHeight="850" math="0" shadow="0">
      <root>
        <mxCell id="JH1rLwDBVYweKkS2PqFb-0" />
        <mxCell id="JH1rLwDBVYweKkS2PqFb-1" parent="JH1rLwDBVYweKkS2PqFb-0" />
        <mxCell id="JH1rLwDBVYweKkS2PqFb-2" value="exp-ride-x-press" style="swimlane;horizontal=0;whiteSpace=wrap;html=1;" vertex="1" parent="JH1rLwDBVYweKkS2PqFb-1">
          <mxGeometry x="40" y="300" width="2000" height="200" as="geometry" />
        </mxCell>
        <mxCell id="JH1rLwDBVYweKkS2PqFb-5" value="Client - Mobile App" style="swimlane;horizontal=0;whiteSpace=wrap;html=1;" vertex="1" parent="JH1rLwDBVYweKkS2PqFb-1">
          <mxGeometry x="40" y="500" width="2000" height="200" as="geometry" />
        </mxCell>
        <mxCell id="JH1rLwDBVYweKkS2PqFb-11" value="Get Client Geo location" style="points=[[0.25,0,0],[0.5,0,0],[0.75,0,0],[1,0.25,0],[1,0.5,0],[1,0.75,0],[0.75,1,0],[0.5,1,0],[0.25,1,0],[0,0.75,0],[0,0.5,0],[0,0.25,0]];shape=mxgraph.bpmn.task;whiteSpace=wrap;rectStyle=rounded;size=10;html=1;container=1;expand=0;collapsible=0;taskMarker=abstract;" vertex="1" parent="JH1rLwDBVYweKkS2PqFb-5">
          <mxGeometry x="170" y="60" width="120" height="80" as="geometry" />
        </mxCell>
        <mxCell id="3RJ_jzoHxxyydn7t_Ovb-1" value="Display Ride information" style="points=[[0.25,0,0],[0.5,0,0],[0.75,0,0],[1,0.25,0],[1,0.5,0],[1,0.75,0],[0.75,1,0],[0.5,1,0],[0.25,1,0],[0,0.75,0],[0,0.5,0],[0,0.25,0]];shape=mxgraph.bpmn.task;whiteSpace=wrap;rectStyle=rounded;size=10;html=1;container=1;expand=0;collapsible=0;taskMarker=abstract;" vertex="1" parent="JH1rLwDBVYweKkS2PqFb-5">
          <mxGeometry x="520" y="60" width="120" height="80" as="geometry" />
        </mxCell>
        <mxCell id="sCGjl2i0q2fNRNabJfUA-9" style="edgeStyle=orthogonalEdgeStyle;rounded=0;orthogonalLoop=1;jettySize=auto;html=1;entryX=0.5;entryY=1;entryDx=0;entryDy=0;entryPerimeter=0;" edge="1" parent="JH1rLwDBVYweKkS2PqFb-5" target="3RJ_jzoHxxyydn7t_Ovb-5">
          <mxGeometry relative="1" as="geometry">
            <mxPoint x="1265" y="140" as="sourcePoint" />
            <mxPoint x="860" y="160" as="targetPoint" />
            <Array as="points">
              <mxPoint x="1265" y="160" />
              <mxPoint x="860" y="160" />
            </Array>
          </mxGeometry>
        </mxCell>
        <mxCell id="sCGjl2i0q2fNRNabJfUA-10" value="No" style="edgeLabel;html=1;align=center;verticalAlign=middle;resizable=0;points=[];" vertex="1" connectable="0" parent="sCGjl2i0q2fNRNabJfUA-9">
          <mxGeometry x="0.0244" y="5" relative="1" as="geometry">
            <mxPoint as="offset" />
          </mxGeometry>
        </mxCell>
        <mxCell id="JH1rLwDBVYweKkS2PqFb-24" value="prc-ride" style="swimlane;horizontal=0;whiteSpace=wrap;html=1;" vertex="1" parent="JH1rLwDBVYweKkS2PqFb-1">
          <mxGeometry x="40" y="100" width="2000" height="200" as="geometry" />
        </mxCell>
        <mxCell id="JH1rLwDBVYweKkS2PqFb-44" value="sys-notifications" style="swimlane;horizontal=0;whiteSpace=wrap;html=1;" vertex="1" parent="JH1rLwDBVYweKkS2PqFb-1">
          <mxGeometry x="40" y="-100" width="2000" height="200" as="geometry" />
        </mxCell>
        <mxCell id="IdD98tMXuZtj2Klf-PkY-0" value="Send notification to client" style="points=[[0.25,0,0],[0.5,0,0],[0.75,0,0],[1,0.25,0],[1,0.5,0],[1,0.75,0],[0.75,1,0],[0.5,1,0],[0.25,1,0],[0,0.75,0],[0,0.5,0],[0,0.25,0]];shape=mxgraph.bpmn.task;whiteSpace=wrap;rectStyle=rounded;size=10;html=1;container=1;expand=0;collapsible=0;taskMarker=abstract;" vertex="1" parent="JH1rLwDBVYweKkS2PqFb-44">
          <mxGeometry x="170" y="60" width="120" height="80" as="geometry" />
        </mxCell>
        <mxCell id="IdD98tMXuZtj2Klf-PkY-1" value="" style="points=[[0.145,0.145,0],[0.5,0,0],[0.855,0.145,0],[1,0.5,0],[0.855,0.855,0],[0.5,1,0],[0.145,0.855,0],[0,0.5,0]];shape=mxgraph.bpmn.event;html=1;verticalLabelPosition=bottom;labelBackgroundColor=#ffffff;verticalAlign=top;align=center;perimeter=ellipsePerimeter;outlineConnect=0;aspect=fixed;outline=standard;symbol=general;" vertex="1" parent="JH1rLwDBVYweKkS2PqFb-44">
          <mxGeometry x="70" y="75" width="50" height="50" as="geometry" />
        </mxCell>
        <mxCell id="IdD98tMXuZtj2Klf-PkY-2" style="edgeStyle=orthogonalEdgeStyle;rounded=0;orthogonalLoop=1;jettySize=auto;html=1;entryX=0;entryY=0.5;entryDx=0;entryDy=0;entryPerimeter=0;" edge="1" parent="JH1rLwDBVYweKkS2PqFb-44" source="IdD98tMXuZtj2Klf-PkY-1" target="IdD98tMXuZtj2Klf-PkY-0">
          <mxGeometry relative="1" as="geometry" />
        </mxCell>
        <mxCell id="JH1rLwDBVYweKkS2PqFb-49" style="edgeStyle=orthogonalEdgeStyle;rounded=0;orthogonalLoop=1;jettySize=auto;html=1;" edge="1" parent="JH1rLwDBVYweKkS2PqFb-1" target="JH1rLwDBVYweKkS2PqFb-45">
          <mxGeometry relative="1" as="geometry">
            <mxPoint x="1950" y="-50" as="sourcePoint" />
            <Array as="points">
              <mxPoint x="1950" y="-410" />
            </Array>
          </mxGeometry>
        </mxCell>
        <mxCell id="JH1rLwDBVYweKkS2PqFb-54" value="sys-ride-express-db" style="swimlane;horizontal=0;whiteSpace=wrap;html=1;" vertex="1" parent="JH1rLwDBVYweKkS2PqFb-1">
          <mxGeometry x="40" y="-500" width="2000" height="200" as="geometry" />
        </mxCell>
        <mxCell id="4UbX55ZBm526S6G_ua0Q-4" value="Get Ride" style="points=[[0.25,0,0],[0.5,0,0],[0.75,0,0],[1,0.25,0],[1,0.5,0],[1,0.75,0],[0.75,1,0],[0.5,1,0],[0.25,1,0],[0,0.75,0],[0,0.5,0],[0,0.25,0]];shape=mxgraph.bpmn.task;whiteSpace=wrap;rectStyle=rounded;size=10;html=1;container=1;expand=0;collapsible=0;taskMarker=abstract;" vertex="1" parent="JH1rLwDBVYweKkS2PqFb-54">
          <mxGeometry x="390" y="50" width="120" height="80" as="geometry" />
        </mxCell>
        <mxCell id="0JVOviMgSdWLr8YbXQJn-2" value="Update Ride" style="points=[[0.25,0,0],[0.5,0,0],[0.75,0,0],[1,0.25,0],[1,0.5,0],[1,0.75,0],[0.75,1,0],[0.5,1,0],[0.25,1,0],[0,0.75,0],[0,0.5,0],[0,0.25,0]];shape=mxgraph.bpmn.task;whiteSpace=wrap;rectStyle=rounded;size=10;html=1;container=1;expand=0;collapsible=0;taskMarker=abstract;" vertex="1" parent="JH1rLwDBVYweKkS2PqFb-54">
          <mxGeometry x="1720" y="60" width="120" height="80" as="geometry" />
        </mxCell>
        <mxCell id="0JVOviMgSdWLr8YbXQJn-3" value="" style="ellipse;whiteSpace=wrap;html=1;aspect=fixed;fillColor=#000000;" vertex="1" parent="JH1rLwDBVYweKkS2PqFb-54">
          <mxGeometry x="1890" y="75" width="50" height="50" as="geometry" />
        </mxCell>
        <mxCell id="0JVOviMgSdWLr8YbXQJn-4" style="edgeStyle=orthogonalEdgeStyle;rounded=0;orthogonalLoop=1;jettySize=auto;html=1;" edge="1" parent="JH1rLwDBVYweKkS2PqFb-54" source="0JVOviMgSdWLr8YbXQJn-2" target="0JVOviMgSdWLr8YbXQJn-3">
          <mxGeometry relative="1" as="geometry" />
        </mxCell>
        <mxCell id="4UbX55ZBm526S6G_ua0Q-0" value="Get ride information" style="points=[[0.25,0,0],[0.5,0,0],[0.75,0,0],[1,0.25,0],[1,0.5,0],[1,0.75,0],[0.75,1,0],[0.5,1,0],[0.25,1,0],[0,0.75,0],[0,0.5,0],[0,0.25,0]];shape=mxgraph.bpmn.task;whiteSpace=wrap;rectStyle=rounded;size=10;html=1;container=1;expand=0;collapsible=0;taskMarker=abstract;" vertex="1" parent="JH1rLwDBVYweKkS2PqFb-1">
          <mxGeometry x="330" y="350" width="120" height="80" as="geometry" />
        </mxCell>
        <mxCell id="4UbX55ZBm526S6G_ua0Q-1" value="Gets ride Information" style="points=[[0.25,0,0],[0.5,0,0],[0.75,0,0],[1,0.25,0],[1,0.5,0],[1,0.75,0],[0.75,1,0],[0.5,1,0],[0.25,1,0],[0,0.75,0],[0,0.5,0],[0,0.25,0]];shape=mxgraph.bpmn.task;whiteSpace=wrap;rectStyle=rounded;size=10;html=1;container=1;expand=0;collapsible=0;taskMarker=abstract;" vertex="1" parent="JH1rLwDBVYweKkS2PqFb-1">
          <mxGeometry x="210" y="560" width="120" height="80" as="geometry" />
        </mxCell>
        <mxCell id="4UbX55ZBm526S6G_ua0Q-2" value="Get Ride information" style="points=[[0.25,0,0],[0.5,0,0],[0.75,0,0],[1,0.25,0],[1,0.5,0],[1,0.75,0],[0.75,1,0],[0.5,1,0],[0.25,1,0],[0,0.75,0],[0,0.5,0],[0,0.25,0]];shape=mxgraph.bpmn.task;whiteSpace=wrap;rectStyle=rounded;size=10;html=1;container=1;expand=0;collapsible=0;taskMarker=abstract;" vertex="1" parent="JH1rLwDBVYweKkS2PqFb-1">
          <mxGeometry x="330" y="150" width="120" height="80" as="geometry" />
        </mxCell>
        <mxCell id="4UbX55ZBm526S6G_ua0Q-5" style="edgeStyle=orthogonalEdgeStyle;rounded=0;orthogonalLoop=1;jettySize=auto;html=1;exitX=1;exitY=0.5;exitDx=0;exitDy=0;exitPerimeter=0;" edge="1" parent="JH1rLwDBVYweKkS2PqFb-1" source="4UbX55ZBm526S6G_ua0Q-2" target="4UbX55ZBm526S6G_ua0Q-4">
          <mxGeometry relative="1" as="geometry">
            <mxPoint x="930" y="150" as="sourcePoint" />
          </mxGeometry>
        </mxCell>
        <mxCell id="4UbX55ZBm526S6G_ua0Q-6" value="GET /ride/{id}" style="edgeLabel;html=1;align=center;verticalAlign=middle;resizable=0;points=[];" vertex="1" connectable="0" parent="4UbX55ZBm526S6G_ua0Q-5">
          <mxGeometry x="-0.2577" y="3" relative="1" as="geometry">
            <mxPoint as="offset" />
          </mxGeometry>
        </mxCell>
        <mxCell id="4UbX55ZBm526S6G_ua0Q-7" style="edgeStyle=orthogonalEdgeStyle;rounded=0;orthogonalLoop=1;jettySize=auto;html=1;entryX=0.5;entryY=0;entryDx=0;entryDy=0;entryPerimeter=0;" edge="1" parent="JH1rLwDBVYweKkS2PqFb-1" source="4UbX55ZBm526S6G_ua0Q-4">
          <mxGeometry relative="1" as="geometry">
            <mxPoint x="620" y="560" as="targetPoint" />
          </mxGeometry>
        </mxCell>
        <mxCell id="4UbX55ZBm526S6G_ua0Q-10" style="edgeStyle=orthogonalEdgeStyle;rounded=0;orthogonalLoop=1;jettySize=auto;html=1;" edge="1" parent="JH1rLwDBVYweKkS2PqFb-1" source="4UbX55ZBm526S6G_ua0Q-1">
          <mxGeometry relative="1" as="geometry">
            <mxPoint x="390" y="430" as="targetPoint" />
            <Array as="points">
              <mxPoint x="390" y="600" />
            </Array>
          </mxGeometry>
        </mxCell>
        <mxCell id="4UbX55ZBm526S6G_ua0Q-11" value="GET /ride/{id}" style="edgeLabel;html=1;align=center;verticalAlign=middle;resizable=0;points=[];" vertex="1" connectable="0" parent="4UbX55ZBm526S6G_ua0Q-10">
          <mxGeometry x="0.113" y="1" relative="1" as="geometry">
            <mxPoint as="offset" />
          </mxGeometry>
        </mxCell>
        <mxCell id="4UbX55ZBm526S6G_ua0Q-12" value="" style="edgeStyle=orthogonalEdgeStyle;rounded=0;orthogonalLoop=1;jettySize=auto;html=1;" edge="1" parent="JH1rLwDBVYweKkS2PqFb-1" source="4UbX55ZBm526S6G_ua0Q-0" target="4UbX55ZBm526S6G_ua0Q-2">
          <mxGeometry relative="1" as="geometry" />
        </mxCell>
        <mxCell id="4UbX55ZBm526S6G_ua0Q-13" value="GET /ride/{id}" style="edgeLabel;html=1;align=center;verticalAlign=middle;resizable=0;points=[];" vertex="1" connectable="0" parent="4UbX55ZBm526S6G_ua0Q-12">
          <mxGeometry x="0.0125" y="2" relative="1" as="geometry">
            <mxPoint as="offset" />
          </mxGeometry>
        </mxCell>
        <mxCell id="4UbX55ZBm526S6G_ua0Q-14" style="edgeStyle=orthogonalEdgeStyle;rounded=0;orthogonalLoop=1;jettySize=auto;html=1;" edge="1" parent="JH1rLwDBVYweKkS2PqFb-1" source="IdD98tMXuZtj2Klf-PkY-0" target="4UbX55ZBm526S6G_ua0Q-1">
          <mxGeometry relative="1" as="geometry" />
        </mxCell>
        <mxCell id="3RJ_jzoHxxyydn7t_Ovb-0" value="Get driver location" style="points=[[0.25,0,0],[0.5,0,0],[0.75,0,0],[1,0.25,0],[1,0.5,0],[1,0.75,0],[0.75,1,0],[0.5,1,0],[0.25,1,0],[0,0.75,0],[0,0.5,0],[0,0.25,0]];shape=mxgraph.bpmn.task;whiteSpace=wrap;rectStyle=rounded;size=10;html=1;container=1;expand=0;collapsible=0;taskMarker=abstract;" vertex="1" parent="JH1rLwDBVYweKkS2PqFb-1">
          <mxGeometry x="840" y="360" width="120" height="80" as="geometry" />
        </mxCell>
        <mxCell id="3RJ_jzoHxxyydn7t_Ovb-3" value="" style="edgeStyle=orthogonalEdgeStyle;rounded=0;orthogonalLoop=1;jettySize=auto;html=1;" edge="1" parent="JH1rLwDBVYweKkS2PqFb-1" source="3RJ_jzoHxxyydn7t_Ovb-1" target="3RJ_jzoHxxyydn7t_Ovb-5">
          <mxGeometry relative="1" as="geometry">
            <mxPoint x="740" y="600" as="sourcePoint" />
            <mxPoint x="1210" y="220" as="targetPoint" />
          </mxGeometry>
        </mxCell>
        <mxCell id="3RJ_jzoHxxyydn7t_Ovb-4" value="" style="edgeStyle=orthogonalEdgeStyle;rounded=0;orthogonalLoop=1;jettySize=auto;html=1;" edge="1" parent="JH1rLwDBVYweKkS2PqFb-1" source="3RJ_jzoHxxyydn7t_Ovb-5">
          <mxGeometry relative="1" as="geometry">
            <mxPoint x="1100" y="600" as="targetPoint" />
          </mxGeometry>
        </mxCell>
        <mxCell id="3RJ_jzoHxxyydn7t_Ovb-5" value="Get driver location" style="points=[[0.25,0,0],[0.5,0,0],[0.75,0,0],[1,0.25,0],[1,0.5,0],[1,0.75,0],[0.75,1,0],[0.5,1,0],[0.25,1,0],[0,0.75,0],[0,0.5,0],[0,0.25,0]];shape=mxgraph.bpmn.task;whiteSpace=wrap;rectStyle=rounded;size=10;html=1;container=1;expand=0;collapsible=0;taskMarker=abstract;" vertex="1" parent="JH1rLwDBVYweKkS2PqFb-1">
          <mxGeometry x="840" y="560" width="120" height="80" as="geometry" />
        </mxCell>
        <mxCell id="3RJ_jzoHxxyydn7t_Ovb-6" style="edgeStyle=orthogonalEdgeStyle;rounded=0;orthogonalLoop=1;jettySize=auto;html=1;entryX=0.5;entryY=1;entryDx=0;entryDy=0;entryPerimeter=0;" edge="1" parent="JH1rLwDBVYweKkS2PqFb-1" source="3RJ_jzoHxxyydn7t_Ovb-5" target="3RJ_jzoHxxyydn7t_Ovb-0">
          <mxGeometry relative="1" as="geometry" />
        </mxCell>
        <mxCell id="3RJ_jzoHxxyydn7t_Ovb-7" value="GET /driver/{id}/location/" style="edgeLabel;html=1;align=center;verticalAlign=middle;resizable=0;points=[];" vertex="1" connectable="0" parent="3RJ_jzoHxxyydn7t_Ovb-6">
          <mxGeometry x="-0.2667" y="2" relative="1" as="geometry">
            <mxPoint as="offset" />
          </mxGeometry>
        </mxCell>
        <mxCell id="3RJ_jzoHxxyydn7t_Ovb-8" style="edgeStyle=orthogonalEdgeStyle;rounded=0;orthogonalLoop=1;jettySize=auto;html=1;" edge="1" parent="JH1rLwDBVYweKkS2PqFb-1" source="3RJ_jzoHxxyydn7t_Ovb-0" target="3RJ_jzoHxxyydn7t_Ovb-2">
          <mxGeometry relative="1" as="geometry" />
        </mxCell>
        <mxCell id="3RJ_jzoHxxyydn7t_Ovb-9" value="GET /driver/{id}/location" style="edgeLabel;html=1;align=center;verticalAlign=middle;resizable=0;points=[];" vertex="1" connectable="0" parent="3RJ_jzoHxxyydn7t_Ovb-8">
          <mxGeometry x="0.0727" y="2" relative="1" as="geometry">
            <mxPoint as="offset" />
          </mxGeometry>
        </mxCell>
        <mxCell id="3RJ_jzoHxxyydn7t_Ovb-10" style="edgeStyle=orthogonalEdgeStyle;rounded=0;orthogonalLoop=1;jettySize=auto;html=1;" edge="1" parent="JH1rLwDBVYweKkS2PqFb-1" source="3RJ_jzoHxxyydn7t_Ovb-2">
          <mxGeometry relative="1" as="geometry">
            <mxPoint x="960" y="580" as="targetPoint" />
            <Array as="points">
              <mxPoint x="1030" y="-200" />
              <mxPoint x="1030" y="580" />
            </Array>
          </mxGeometry>
        </mxCell>
        <mxCell id="8BYv1YqAckUxIusHopPF-0" style="edgeStyle=orthogonalEdgeStyle;rounded=0;orthogonalLoop=1;jettySize=auto;html=1;" edge="1" parent="JH1rLwDBVYweKkS2PqFb-1" source="8BYv1YqAckUxIusHopPF-1" target="8BYv1YqAckUxIusHopPF-2">
          <mxGeometry relative="1" as="geometry" />
        </mxCell>
        <mxCell id="8BYv1YqAckUxIusHopPF-1" value="Check driver location with Client destination" style="points=[[0.25,0,0],[0.5,0,0],[0.75,0,0],[1,0.25,0],[1,0.5,0],[1,0.75,0],[0.75,1,0],[0.5,1,0],[0.25,1,0],[0,0.75,0],[0,0.5,0],[0,0.25,0]];shape=mxgraph.bpmn.task;whiteSpace=wrap;rectStyle=rounded;size=10;html=1;container=1;expand=0;collapsible=0;taskMarker=abstract;" vertex="1" parent="JH1rLwDBVYweKkS2PqFb-1">
          <mxGeometry x="1100" y="560" width="120" height="80" as="geometry" />
        </mxCell>
        <mxCell id="8BYv1YqAckUxIusHopPF-2" value="Arrived pickup location?" style="points=[[0.25,0.25,0],[0.5,0,0],[0.75,0.25,0],[1,0.5,0],[0.75,0.75,0],[0.5,1,0],[0.25,0.75,0],[0,0.5,0]];shape=mxgraph.bpmn.gateway2;html=1;verticalLabelPosition=bottom;labelBackgroundColor=#ffffff;verticalAlign=top;align=center;perimeter=rhombusPerimeter;outlineConnect=0;outline=none;symbol=none;" vertex="1" parent="JH1rLwDBVYweKkS2PqFb-1">
          <mxGeometry x="1280" y="580" width="50" height="40" as="geometry" />
        </mxCell>
        <mxCell id="sCGjl2i0q2fNRNabJfUA-0" value="Check if client is in car" style="points=[[0.25,0,0],[0.5,0,0],[0.75,0,0],[1,0.25,0],[1,0.5,0],[1,0.75,0],[0.75,1,0],[0.5,1,0],[0.25,1,0],[0,0.75,0],[0,0.5,0],[0,0.25,0]];shape=mxgraph.bpmn.task;whiteSpace=wrap;rectStyle=rounded;size=10;html=1;container=1;expand=0;collapsible=0;taskMarker=abstract;" vertex="1" parent="JH1rLwDBVYweKkS2PqFb-1">
          <mxGeometry x="1430" y="560" width="120" height="80" as="geometry" />
        </mxCell>
        <mxCell id="sCGjl2i0q2fNRNabJfUA-1" style="edgeStyle=orthogonalEdgeStyle;rounded=0;orthogonalLoop=1;jettySize=auto;html=1;entryX=0;entryY=0.5;entryDx=0;entryDy=0;entryPerimeter=0;" edge="1" parent="JH1rLwDBVYweKkS2PqFb-1" target="sCGjl2i0q2fNRNabJfUA-0">
          <mxGeometry relative="1" as="geometry">
            <mxPoint x="1330" y="600" as="sourcePoint" />
          </mxGeometry>
        </mxCell>
        <mxCell id="sCGjl2i0q2fNRNabJfUA-2" value="Yes" style="edgeLabel;html=1;align=center;verticalAlign=middle;resizable=0;points=[];" vertex="1" connectable="0" parent="sCGjl2i0q2fNRNabJfUA-1">
          <mxGeometry x="0.05" y="-3" relative="1" as="geometry">
            <mxPoint as="offset" />
          </mxGeometry>
        </mxCell>
        <mxCell id="sCGjl2i0q2fNRNabJfUA-3" style="edgeStyle=orthogonalEdgeStyle;rounded=0;orthogonalLoop=1;jettySize=auto;html=1;" edge="1" parent="JH1rLwDBVYweKkS2PqFb-1" source="sCGjl2i0q2fNRNabJfUA-4" target="sCGjl2i0q2fNRNabJfUA-8">
          <mxGeometry relative="1" as="geometry" />
        </mxCell>
        <mxCell id="sCGjl2i0q2fNRNabJfUA-4" value="Is client in car?" style="points=[[0.25,0.25,0],[0.5,0,0],[0.75,0.25,0],[1,0.5,0],[0.75,0.75,0],[0.5,1,0],[0.25,0.75,0],[0,0.5,0]];shape=mxgraph.bpmn.gateway2;html=1;verticalLabelPosition=bottom;labelBackgroundColor=#ffffff;verticalAlign=top;align=center;perimeter=rhombusPerimeter;outlineConnect=0;outline=none;symbol=none;" vertex="1" parent="JH1rLwDBVYweKkS2PqFb-1">
          <mxGeometry x="1640" y="580" width="50" height="40" as="geometry" />
        </mxCell>
        <mxCell id="sCGjl2i0q2fNRNabJfUA-5" style="edgeStyle=orthogonalEdgeStyle;rounded=0;orthogonalLoop=1;jettySize=auto;html=1;entryX=0;entryY=0.5;entryDx=0;entryDy=0;entryPerimeter=0;" edge="1" parent="JH1rLwDBVYweKkS2PqFb-1" source="sCGjl2i0q2fNRNabJfUA-0" target="sCGjl2i0q2fNRNabJfUA-4">
          <mxGeometry relative="1" as="geometry" />
        </mxCell>
        <mxCell id="sCGjl2i0q2fNRNabJfUA-6" style="edgeStyle=orthogonalEdgeStyle;rounded=0;orthogonalLoop=1;jettySize=auto;html=1;exitX=0.5;exitY=1;exitDx=0;exitDy=0;exitPerimeter=0;entryX=0.5;entryY=1;entryDx=0;entryDy=0;entryPerimeter=0;" edge="1" parent="JH1rLwDBVYweKkS2PqFb-1" source="sCGjl2i0q2fNRNabJfUA-4" target="sCGjl2i0q2fNRNabJfUA-0">
          <mxGeometry relative="1" as="geometry" />
        </mxCell>
        <mxCell id="sCGjl2i0q2fNRNabJfUA-7" value="No" style="edgeLabel;html=1;align=center;verticalAlign=middle;resizable=0;points=[];" vertex="1" connectable="0" parent="sCGjl2i0q2fNRNabJfUA-6">
          <mxGeometry x="0.0383" y="3" relative="1" as="geometry">
            <mxPoint as="offset" />
          </mxGeometry>
        </mxCell>
        <mxCell id="sCGjl2i0q2fNRNabJfUA-8" value="Inform Client in the car" style="points=[[0.25,0,0],[0.5,0,0],[0.75,0,0],[1,0.25,0],[1,0.5,0],[1,0.75,0],[0.75,1,0],[0.5,1,0],[0.25,1,0],[0,0.75,0],[0,0.5,0],[0,0.25,0]];shape=mxgraph.bpmn.task;whiteSpace=wrap;rectStyle=rounded;size=10;html=1;container=1;expand=0;collapsible=0;taskMarker=abstract;" vertex="1" parent="JH1rLwDBVYweKkS2PqFb-1">
          <mxGeometry x="1760" y="560" width="120" height="80" as="geometry" />
        </mxCell>
        <mxCell id="0JVOviMgSdWLr8YbXQJn-0" value="Update Ride with client information" style="points=[[0.25,0,0],[0.5,0,0],[0.75,0,0],[1,0.25,0],[1,0.5,0],[1,0.75,0],[0.75,1,0],[0.5,1,0],[0.25,1,0],[0,0.75,0],[0,0.5,0],[0,0.25,0]];shape=mxgraph.bpmn.task;whiteSpace=wrap;rectStyle=rounded;size=10;html=1;container=1;expand=0;collapsible=0;taskMarker=abstract;" vertex="1" parent="JH1rLwDBVYweKkS2PqFb-1">
          <mxGeometry x="1760" y="370" width="120" height="80" as="geometry" />
        </mxCell>
        <mxCell id="0JVOviMgSdWLr8YbXQJn-1" value="Update Ride with client information and conciliate with Driver information" style="points=[[0.25,0,0],[0.5,0,0],[0.75,0,0],[1,0.25,0],[1,0.5,0],[1,0.75,0],[0.75,1,0],[0.5,1,0],[0.25,1,0],[0,0.75,0],[0,0.5,0],[0,0.25,0]];shape=mxgraph.bpmn.task;whiteSpace=wrap;rectStyle=rounded;size=10;html=1;container=1;expand=0;collapsible=0;taskMarker=abstract;" vertex="1" parent="JH1rLwDBVYweKkS2PqFb-1">
          <mxGeometry x="1760" y="160" width="120" height="80" as="geometry" />
        </mxCell>
        <mxCell id="0JVOviMgSdWLr8YbXQJn-5" value="PATCH /ride/{id}" style="edgeLabel;html=1;align=center;verticalAlign=middle;resizable=0;points=[];" vertex="1" connectable="0" parent="JH1rLwDBVYweKkS2PqFb-1">
          <mxGeometry x="1817" y="516" as="geometry" />
        </mxCell>
        <mxCell id="0JVOviMgSdWLr8YbXQJn-6" style="edgeStyle=orthogonalEdgeStyle;rounded=0;orthogonalLoop=1;jettySize=auto;html=1;entryX=0.5;entryY=1;entryDx=0;entryDy=0;entryPerimeter=0;" edge="1" parent="JH1rLwDBVYweKkS2PqFb-1" source="0JVOviMgSdWLr8YbXQJn-0" target="0JVOviMgSdWLr8YbXQJn-1">
          <mxGeometry relative="1" as="geometry" />
        </mxCell>
        <mxCell id="0JVOviMgSdWLr8YbXQJn-7" style="edgeStyle=orthogonalEdgeStyle;rounded=0;orthogonalLoop=1;jettySize=auto;html=1;entryX=0.5;entryY=1;entryDx=0;entryDy=0;entryPerimeter=0;" edge="1" parent="JH1rLwDBVYweKkS2PqFb-1" source="0JVOviMgSdWLr8YbXQJn-1" target="0JVOviMgSdWLr8YbXQJn-2">
          <mxGeometry relative="1" as="geometry" />
        </mxCell>
        <mxCell id="0JVOviMgSdWLr8YbXQJn-8" value="PATCH /ride/{id}" style="edgeLabel;html=1;align=center;verticalAlign=middle;resizable=0;points=[];" vertex="1" connectable="0" parent="0JVOviMgSdWLr8YbXQJn-7">
          <mxGeometry x="-0.4231" y="1" relative="1" as="geometry">
            <mxPoint as="offset" />
          </mxGeometry>
        </mxCell>
        <mxCell id="0JVOviMgSdWLr8YbXQJn-9" style="edgeStyle=orthogonalEdgeStyle;rounded=0;orthogonalLoop=1;jettySize=auto;html=1;entryX=0.5;entryY=1;entryDx=0;entryDy=0;entryPerimeter=0;" edge="1" parent="JH1rLwDBVYweKkS2PqFb-1" source="sCGjl2i0q2fNRNabJfUA-8" target="0JVOviMgSdWLr8YbXQJn-0">
          <mxGeometry relative="1" as="geometry" />
        </mxCell>
        <mxCell id="81Kd43_wfJPXAqpEH8De-0" value="&lt;h1&gt;Diagram for the interaction between the Client and the Exp API when it&#39;s waiting to do the ride&lt;/h1&gt;" style="text;html=1;align=center;verticalAlign=middle;resizable=0;points=[];autosize=1;strokeColor=none;fillColor=none;" vertex="1" parent="JH1rLwDBVYweKkS2PqFb-1">
          <mxGeometry x="40" y="-595" width="1090" height="70" as="geometry" />
        </mxCell>
        <mxCell id="NZJf47py4SzXWwfvqDc9-0" value="sys-drivers" style="swimlane;horizontal=0;whiteSpace=wrap;html=1;" vertex="1" parent="JH1rLwDBVYweKkS2PqFb-1">
          <mxGeometry x="40" y="-300" width="2000" height="200" as="geometry" />
        </mxCell>
        <mxCell id="3RJ_jzoHxxyydn7t_Ovb-2" value="Get driver location" style="points=[[0.25,0,0],[0.5,0,0],[0.75,0,0],[1,0.25,0],[1,0.5,0],[1,0.75,0],[0.75,1,0],[0.5,1,0],[0.25,1,0],[0,0.75,0],[0,0.5,0],[0,0.25,0]];shape=mxgraph.bpmn.task;whiteSpace=wrap;rectStyle=rounded;size=10;html=1;container=1;expand=0;collapsible=0;taskMarker=abstract;" vertex="1" parent="NZJf47py4SzXWwfvqDc9-0">
          <mxGeometry x="800" y="60" width="120" height="80" as="geometry" />
        </mxCell>
      </root>
    </mxGraphModel>
  </diagram>
  <diagram name="Drill down Client and the Exp API when it&#39;s finishing a ride" id="sZPMeks1si3X4ankGnfA">
    <mxGraphModel dx="1715" dy="1933" grid="1" gridSize="10" guides="1" tooltips="1" connect="1" arrows="1" fold="1" page="1" pageScale="1" pageWidth="1100" pageHeight="850" math="0" shadow="0">
      <root>
        <mxCell id="VvUdo0zjaCuZu8YFKnKq-0" />
        <mxCell id="VvUdo0zjaCuZu8YFKnKq-1" parent="VvUdo0zjaCuZu8YFKnKq-0" />
        <mxCell id="VvUdo0zjaCuZu8YFKnKq-2" value="exp-ride-x-press" style="swimlane;horizontal=0;whiteSpace=wrap;html=1;" vertex="1" parent="VvUdo0zjaCuZu8YFKnKq-1">
          <mxGeometry x="40" y="300" width="2000" height="200" as="geometry" />
        </mxCell>
        <mxCell id="x7NhefQ3XoewuiwnYH2W-3" value="" style="ellipse;whiteSpace=wrap;html=1;aspect=fixed;fillColor=#000000;" vertex="1" parent="VvUdo0zjaCuZu8YFKnKq-2">
          <mxGeometry x="710" y="90" width="50" height="50" as="geometry" />
        </mxCell>
        <mxCell id="VvUdo0zjaCuZu8YFKnKq-3" value="Client - Mobile App" style="swimlane;horizontal=0;whiteSpace=wrap;html=1;" vertex="1" parent="VvUdo0zjaCuZu8YFKnKq-1">
          <mxGeometry x="40" y="500" width="2000" height="200" as="geometry" />
        </mxCell>
        <mxCell id="VvUdo0zjaCuZu8YFKnKq-4" value="Get Client Geo location" style="points=[[0.25,0,0],[0.5,0,0],[0.75,0,0],[1,0.25,0],[1,0.5,0],[1,0.75,0],[0.75,1,0],[0.5,1,0],[0.25,1,0],[0,0.75,0],[0,0.5,0],[0,0.25,0]];shape=mxgraph.bpmn.task;whiteSpace=wrap;rectStyle=rounded;size=10;html=1;container=1;expand=0;collapsible=0;taskMarker=abstract;" vertex="1" parent="VvUdo0zjaCuZu8YFKnKq-3">
          <mxGeometry x="170" y="60" width="120" height="80" as="geometry" />
        </mxCell>
        <mxCell id="VvUdo0zjaCuZu8YFKnKq-5" value="Display Ride information" style="points=[[0.25,0,0],[0.5,0,0],[0.75,0,0],[1,0.25,0],[1,0.5,0],[1,0.75,0],[0.75,1,0],[0.5,1,0],[0.25,1,0],[0,0.75,0],[0,0.5,0],[0,0.25,0]];shape=mxgraph.bpmn.task;whiteSpace=wrap;rectStyle=rounded;size=10;html=1;container=1;expand=0;collapsible=0;taskMarker=abstract;" vertex="1" parent="VvUdo0zjaCuZu8YFKnKq-3">
          <mxGeometry x="520" y="60" width="120" height="80" as="geometry" />
        </mxCell>
        <mxCell id="x7NhefQ3XoewuiwnYH2W-1" value="Complete &lt;br&gt;ride/driver evaluation?" style="points=[[0.25,0.25,0],[0.5,0,0],[0.75,0.25,0],[1,0.5,0],[0.75,0.75,0],[0.5,1,0],[0.25,0.75,0],[0,0.5,0]];shape=mxgraph.bpmn.gateway2;html=1;verticalLabelPosition=bottom;labelBackgroundColor=#ffffff;verticalAlign=top;align=center;perimeter=rhombusPerimeter;outlineConnect=0;outline=none;symbol=none;" vertex="1" parent="VvUdo0zjaCuZu8YFKnKq-3">
          <mxGeometry x="710" y="80" width="50" height="40" as="geometry" />
        </mxCell>
        <mxCell id="VvUdo0zjaCuZu8YFKnKq-34" value="Complete &lt;br&gt;satisfaction survey" style="points=[[0.25,0,0],[0.5,0,0],[0.75,0,0],[1,0.25,0],[1,0.5,0],[1,0.75,0],[0.75,1,0],[0.5,1,0],[0.25,1,0],[0,0.75,0],[0,0.5,0],[0,0.25,0]];shape=mxgraph.bpmn.task;whiteSpace=wrap;rectStyle=rounded;size=10;html=1;container=1;expand=0;collapsible=0;taskMarker=abstract;" vertex="1" parent="VvUdo0zjaCuZu8YFKnKq-3">
          <mxGeometry x="830" y="60" width="120" height="80" as="geometry" />
        </mxCell>
        <mxCell id="x7NhefQ3XoewuiwnYH2W-2" style="edgeStyle=orthogonalEdgeStyle;rounded=0;orthogonalLoop=1;jettySize=auto;html=1;entryX=0;entryY=0.5;entryDx=0;entryDy=0;entryPerimeter=0;" edge="1" parent="VvUdo0zjaCuZu8YFKnKq-3" source="x7NhefQ3XoewuiwnYH2W-1" target="VvUdo0zjaCuZu8YFKnKq-34">
          <mxGeometry relative="1" as="geometry" />
        </mxCell>
        <mxCell id="7WDWEMYJrdUVoe0Sw8bg-0" value="Yes" style="edgeLabel;html=1;align=center;verticalAlign=middle;resizable=0;points=[];" vertex="1" connectable="0" parent="x7NhefQ3XoewuiwnYH2W-2">
          <mxGeometry x="-0.16" y="1" relative="1" as="geometry">
            <mxPoint as="offset" />
          </mxGeometry>
        </mxCell>
        <mxCell id="VvUdo0zjaCuZu8YFKnKq-32" value="" style="edgeStyle=orthogonalEdgeStyle;rounded=0;orthogonalLoop=1;jettySize=auto;html=1;entryX=0;entryY=0.5;entryDx=0;entryDy=0;entryPerimeter=0;" edge="1" parent="VvUdo0zjaCuZu8YFKnKq-3" source="VvUdo0zjaCuZu8YFKnKq-5" target="x7NhefQ3XoewuiwnYH2W-1">
          <mxGeometry relative="1" as="geometry">
            <mxPoint x="700" y="100" as="sourcePoint" />
            <mxPoint x="700" y="100" as="targetPoint" />
          </mxGeometry>
        </mxCell>
        <mxCell id="VvUdo0zjaCuZu8YFKnKq-17" value="" style="ellipse;whiteSpace=wrap;html=1;aspect=fixed;fillColor=#000000;" vertex="1" parent="VvUdo0zjaCuZu8YFKnKq-3">
          <mxGeometry x="1260" y="75" width="50" height="50" as="geometry" />
        </mxCell>
        <mxCell id="VvUdo0zjaCuZu8YFKnKq-8" value="prc-ride" style="swimlane;horizontal=0;whiteSpace=wrap;html=1;" vertex="1" parent="VvUdo0zjaCuZu8YFKnKq-1">
          <mxGeometry x="40" y="100" width="2000" height="200" as="geometry" />
        </mxCell>
        <mxCell id="7WDWEMYJrdUVoe0Sw8bg-1" value="Update Driver profie survey data" style="points=[[0.25,0,0],[0.5,0,0],[0.75,0,0],[1,0.25,0],[1,0.5,0],[1,0.75,0],[0.75,1,0],[0.5,1,0],[0.25,1,0],[0,0.75,0],[0,0.5,0],[0,0.25,0]];shape=mxgraph.bpmn.task;whiteSpace=wrap;rectStyle=rounded;size=10;html=1;container=1;expand=0;collapsible=0;taskMarker=abstract;" vertex="1" parent="VvUdo0zjaCuZu8YFKnKq-8">
          <mxGeometry x="1023" y="60" width="120" height="80" as="geometry" />
        </mxCell>
        <mxCell id="VvUdo0zjaCuZu8YFKnKq-9" value="sys-notifications" style="swimlane;horizontal=0;whiteSpace=wrap;html=1;" vertex="1" parent="VvUdo0zjaCuZu8YFKnKq-1">
          <mxGeometry x="40" y="-100" width="2000" height="200" as="geometry" />
        </mxCell>
        <mxCell id="VvUdo0zjaCuZu8YFKnKq-10" value="Send notification to client" style="points=[[0.25,0,0],[0.5,0,0],[0.75,0,0],[1,0.25,0],[1,0.5,0],[1,0.75,0],[0.75,1,0],[0.5,1,0],[0.25,1,0],[0,0.75,0],[0,0.5,0],[0,0.25,0]];shape=mxgraph.bpmn.task;whiteSpace=wrap;rectStyle=rounded;size=10;html=1;container=1;expand=0;collapsible=0;taskMarker=abstract;" vertex="1" parent="VvUdo0zjaCuZu8YFKnKq-9">
          <mxGeometry x="170" y="60" width="120" height="80" as="geometry" />
        </mxCell>
        <mxCell id="VvUdo0zjaCuZu8YFKnKq-11" value="" style="points=[[0.145,0.145,0],[0.5,0,0],[0.855,0.145,0],[1,0.5,0],[0.855,0.855,0],[0.5,1,0],[0.145,0.855,0],[0,0.5,0]];shape=mxgraph.bpmn.event;html=1;verticalLabelPosition=bottom;labelBackgroundColor=#ffffff;verticalAlign=top;align=center;perimeter=ellipsePerimeter;outlineConnect=0;aspect=fixed;outline=standard;symbol=general;" vertex="1" parent="VvUdo0zjaCuZu8YFKnKq-9">
          <mxGeometry x="70" y="75" width="50" height="50" as="geometry" />
        </mxCell>
        <mxCell id="VvUdo0zjaCuZu8YFKnKq-12" style="edgeStyle=orthogonalEdgeStyle;rounded=0;orthogonalLoop=1;jettySize=auto;html=1;entryX=0;entryY=0.5;entryDx=0;entryDy=0;entryPerimeter=0;" edge="1" parent="VvUdo0zjaCuZu8YFKnKq-9" source="VvUdo0zjaCuZu8YFKnKq-11" target="VvUdo0zjaCuZu8YFKnKq-10">
          <mxGeometry relative="1" as="geometry" />
        </mxCell>
        <mxCell id="VvUdo0zjaCuZu8YFKnKq-13" style="edgeStyle=orthogonalEdgeStyle;rounded=0;orthogonalLoop=1;jettySize=auto;html=1;" edge="1" parent="VvUdo0zjaCuZu8YFKnKq-1">
          <mxGeometry relative="1" as="geometry">
            <mxPoint x="1950" y="-50" as="sourcePoint" />
            <Array as="points">
              <mxPoint x="1950" y="-410" />
            </Array>
          </mxGeometry>
        </mxCell>
        <mxCell id="VvUdo0zjaCuZu8YFKnKq-14" value="sys-ride-express-db" style="swimlane;horizontal=0;whiteSpace=wrap;html=1;" vertex="1" parent="VvUdo0zjaCuZu8YFKnKq-1">
          <mxGeometry x="40" y="-500" width="2000" height="200" as="geometry" />
        </mxCell>
        <mxCell id="VvUdo0zjaCuZu8YFKnKq-15" value="Get Ride" style="points=[[0.25,0,0],[0.5,0,0],[0.75,0,0],[1,0.25,0],[1,0.5,0],[1,0.75,0],[0.75,1,0],[0.5,1,0],[0.25,1,0],[0,0.75,0],[0,0.5,0],[0,0.25,0]];shape=mxgraph.bpmn.task;whiteSpace=wrap;rectStyle=rounded;size=10;html=1;container=1;expand=0;collapsible=0;taskMarker=abstract;" vertex="1" parent="VvUdo0zjaCuZu8YFKnKq-14">
          <mxGeometry x="390" y="50" width="120" height="80" as="geometry" />
        </mxCell>
        <mxCell id="VvUdo0zjaCuZu8YFKnKq-16" value="Update Ride" style="points=[[0.25,0,0],[0.5,0,0],[0.75,0,0],[1,0.25,0],[1,0.5,0],[1,0.75,0],[0.75,1,0],[0.5,1,0],[0.25,1,0],[0,0.75,0],[0,0.5,0],[0,0.25,0]];shape=mxgraph.bpmn.task;whiteSpace=wrap;rectStyle=rounded;size=10;html=1;container=1;expand=0;collapsible=0;taskMarker=abstract;" vertex="1" parent="VvUdo0zjaCuZu8YFKnKq-14">
          <mxGeometry x="833" y="60" width="120" height="80" as="geometry" />
        </mxCell>
        <mxCell id="VvUdo0zjaCuZu8YFKnKq-19" value="Get ride information" style="points=[[0.25,0,0],[0.5,0,0],[0.75,0,0],[1,0.25,0],[1,0.5,0],[1,0.75,0],[0.75,1,0],[0.5,1,0],[0.25,1,0],[0,0.75,0],[0,0.5,0],[0,0.25,0]];shape=mxgraph.bpmn.task;whiteSpace=wrap;rectStyle=rounded;size=10;html=1;container=1;expand=0;collapsible=0;taskMarker=abstract;" vertex="1" parent="VvUdo0zjaCuZu8YFKnKq-1">
          <mxGeometry x="330" y="350" width="120" height="80" as="geometry" />
        </mxCell>
        <mxCell id="VvUdo0zjaCuZu8YFKnKq-20" value="Gets ride Information" style="points=[[0.25,0,0],[0.5,0,0],[0.75,0,0],[1,0.25,0],[1,0.5,0],[1,0.75,0],[0.75,1,0],[0.5,1,0],[0.25,1,0],[0,0.75,0],[0,0.5,0],[0,0.25,0]];shape=mxgraph.bpmn.task;whiteSpace=wrap;rectStyle=rounded;size=10;html=1;container=1;expand=0;collapsible=0;taskMarker=abstract;" vertex="1" parent="VvUdo0zjaCuZu8YFKnKq-1">
          <mxGeometry x="210" y="560" width="120" height="80" as="geometry" />
        </mxCell>
        <mxCell id="VvUdo0zjaCuZu8YFKnKq-21" value="Get Ride information" style="points=[[0.25,0,0],[0.5,0,0],[0.75,0,0],[1,0.25,0],[1,0.5,0],[1,0.75,0],[0.75,1,0],[0.5,1,0],[0.25,1,0],[0,0.75,0],[0,0.5,0],[0,0.25,0]];shape=mxgraph.bpmn.task;whiteSpace=wrap;rectStyle=rounded;size=10;html=1;container=1;expand=0;collapsible=0;taskMarker=abstract;" vertex="1" parent="VvUdo0zjaCuZu8YFKnKq-1">
          <mxGeometry x="330" y="150" width="120" height="80" as="geometry" />
        </mxCell>
        <mxCell id="VvUdo0zjaCuZu8YFKnKq-22" style="edgeStyle=orthogonalEdgeStyle;rounded=0;orthogonalLoop=1;jettySize=auto;html=1;exitX=1;exitY=0.5;exitDx=0;exitDy=0;exitPerimeter=0;" edge="1" parent="VvUdo0zjaCuZu8YFKnKq-1" source="VvUdo0zjaCuZu8YFKnKq-21" target="VvUdo0zjaCuZu8YFKnKq-15">
          <mxGeometry relative="1" as="geometry">
            <mxPoint x="930" y="150" as="sourcePoint" />
          </mxGeometry>
        </mxCell>
        <mxCell id="VvUdo0zjaCuZu8YFKnKq-23" value="GET /ride/{id}" style="edgeLabel;html=1;align=center;verticalAlign=middle;resizable=0;points=[];" vertex="1" connectable="0" parent="VvUdo0zjaCuZu8YFKnKq-22">
          <mxGeometry x="-0.2577" y="3" relative="1" as="geometry">
            <mxPoint as="offset" />
          </mxGeometry>
        </mxCell>
        <mxCell id="VvUdo0zjaCuZu8YFKnKq-24" style="edgeStyle=orthogonalEdgeStyle;rounded=0;orthogonalLoop=1;jettySize=auto;html=1;entryX=0.5;entryY=0;entryDx=0;entryDy=0;entryPerimeter=0;" edge="1" parent="VvUdo0zjaCuZu8YFKnKq-1" source="VvUdo0zjaCuZu8YFKnKq-15">
          <mxGeometry relative="1" as="geometry">
            <mxPoint x="620" y="560" as="targetPoint" />
          </mxGeometry>
        </mxCell>
        <mxCell id="VvUdo0zjaCuZu8YFKnKq-25" style="edgeStyle=orthogonalEdgeStyle;rounded=0;orthogonalLoop=1;jettySize=auto;html=1;" edge="1" parent="VvUdo0zjaCuZu8YFKnKq-1" source="VvUdo0zjaCuZu8YFKnKq-20">
          <mxGeometry relative="1" as="geometry">
            <mxPoint x="390" y="430" as="targetPoint" />
            <Array as="points">
              <mxPoint x="390" y="600" />
            </Array>
          </mxGeometry>
        </mxCell>
        <mxCell id="VvUdo0zjaCuZu8YFKnKq-26" value="GET /ride/{id}" style="edgeLabel;html=1;align=center;verticalAlign=middle;resizable=0;points=[];" vertex="1" connectable="0" parent="VvUdo0zjaCuZu8YFKnKq-25">
          <mxGeometry x="0.113" y="1" relative="1" as="geometry">
            <mxPoint as="offset" />
          </mxGeometry>
        </mxCell>
        <mxCell id="VvUdo0zjaCuZu8YFKnKq-27" value="" style="edgeStyle=orthogonalEdgeStyle;rounded=0;orthogonalLoop=1;jettySize=auto;html=1;" edge="1" parent="VvUdo0zjaCuZu8YFKnKq-1" source="VvUdo0zjaCuZu8YFKnKq-19" target="VvUdo0zjaCuZu8YFKnKq-21">
          <mxGeometry relative="1" as="geometry" />
        </mxCell>
        <mxCell id="VvUdo0zjaCuZu8YFKnKq-28" value="GET /ride/{id}" style="edgeLabel;html=1;align=center;verticalAlign=middle;resizable=0;points=[];" vertex="1" connectable="0" parent="VvUdo0zjaCuZu8YFKnKq-27">
          <mxGeometry x="0.0125" y="2" relative="1" as="geometry">
            <mxPoint as="offset" />
          </mxGeometry>
        </mxCell>
        <mxCell id="VvUdo0zjaCuZu8YFKnKq-29" style="edgeStyle=orthogonalEdgeStyle;rounded=0;orthogonalLoop=1;jettySize=auto;html=1;" edge="1" parent="VvUdo0zjaCuZu8YFKnKq-1" source="VvUdo0zjaCuZu8YFKnKq-10" target="VvUdo0zjaCuZu8YFKnKq-20">
          <mxGeometry relative="1" as="geometry" />
        </mxCell>
        <mxCell id="x7NhefQ3XoewuiwnYH2W-0" value="PUSH Ride Id" style="edgeLabel;html=1;align=center;verticalAlign=middle;resizable=0;points=[];" vertex="1" connectable="0" parent="VvUdo0zjaCuZu8YFKnKq-29">
          <mxGeometry x="0.2269" y="-1" relative="1" as="geometry">
            <mxPoint as="offset" />
          </mxGeometry>
        </mxCell>
        <mxCell id="VvUdo0zjaCuZu8YFKnKq-33" value="" style="edgeStyle=orthogonalEdgeStyle;rounded=0;orthogonalLoop=1;jettySize=auto;html=1;" edge="1" parent="VvUdo0zjaCuZu8YFKnKq-1" source="VvUdo0zjaCuZu8YFKnKq-34">
          <mxGeometry relative="1" as="geometry">
            <mxPoint x="1100" y="600" as="targetPoint" />
          </mxGeometry>
        </mxCell>
        <mxCell id="VvUdo0zjaCuZu8YFKnKq-40" style="edgeStyle=orthogonalEdgeStyle;rounded=0;orthogonalLoop=1;jettySize=auto;html=1;" edge="1" parent="VvUdo0zjaCuZu8YFKnKq-1" source="VvUdo0zjaCuZu8YFKnKq-41" target="VvUdo0zjaCuZu8YFKnKq-17">
          <mxGeometry relative="1" as="geometry">
            <mxPoint x="1280" y="600" as="targetPoint" />
          </mxGeometry>
        </mxCell>
        <mxCell id="VvUdo0zjaCuZu8YFKnKq-41" value="Close ride" style="points=[[0.25,0,0],[0.5,0,0],[0.75,0,0],[1,0.25,0],[1,0.5,0],[1,0.75,0],[0.75,1,0],[0.5,1,0],[0.25,1,0],[0,0.75,0],[0,0.5,0],[0,0.25,0]];shape=mxgraph.bpmn.task;whiteSpace=wrap;rectStyle=rounded;size=10;html=1;container=1;expand=0;collapsible=0;taskMarker=abstract;" vertex="1" parent="VvUdo0zjaCuZu8YFKnKq-1">
          <mxGeometry x="1100" y="560" width="120" height="80" as="geometry" />
        </mxCell>
        <mxCell id="VvUdo0zjaCuZu8YFKnKq-52" value="Update Ride with client information" style="points=[[0.25,0,0],[0.5,0,0],[0.75,0,0],[1,0.25,0],[1,0.5,0],[1,0.75,0],[0.75,1,0],[0.5,1,0],[0.25,1,0],[0,0.75,0],[0,0.5,0],[0,0.25,0]];shape=mxgraph.bpmn.task;whiteSpace=wrap;rectStyle=rounded;size=10;html=1;container=1;expand=0;collapsible=0;taskMarker=abstract;" vertex="1" parent="VvUdo0zjaCuZu8YFKnKq-1">
          <mxGeometry x="873" y="370" width="120" height="80" as="geometry" />
        </mxCell>
        <mxCell id="7WDWEMYJrdUVoe0Sw8bg-2" style="edgeStyle=orthogonalEdgeStyle;rounded=0;orthogonalLoop=1;jettySize=auto;html=1;" edge="1" parent="VvUdo0zjaCuZu8YFKnKq-1" source="VvUdo0zjaCuZu8YFKnKq-53" target="7WDWEMYJrdUVoe0Sw8bg-1">
          <mxGeometry relative="1" as="geometry" />
        </mxCell>
        <mxCell id="VvUdo0zjaCuZu8YFKnKq-53" value="Update Ride survey data" style="points=[[0.25,0,0],[0.5,0,0],[0.75,0,0],[1,0.25,0],[1,0.5,0],[1,0.75,0],[0.75,1,0],[0.5,1,0],[0.25,1,0],[0,0.75,0],[0,0.5,0],[0,0.25,0]];shape=mxgraph.bpmn.task;whiteSpace=wrap;rectStyle=rounded;size=10;html=1;container=1;expand=0;collapsible=0;taskMarker=abstract;" vertex="1" parent="VvUdo0zjaCuZu8YFKnKq-1">
          <mxGeometry x="873" y="160" width="120" height="80" as="geometry" />
        </mxCell>
        <mxCell id="VvUdo0zjaCuZu8YFKnKq-54" value="POST /ride/{id}/feedback" style="edgeLabel;html=1;align=center;verticalAlign=middle;resizable=0;points=[];" vertex="1" connectable="0" parent="VvUdo0zjaCuZu8YFKnKq-1">
          <mxGeometry x="930" y="516" as="geometry" />
        </mxCell>
        <mxCell id="VvUdo0zjaCuZu8YFKnKq-55" style="edgeStyle=orthogonalEdgeStyle;rounded=0;orthogonalLoop=1;jettySize=auto;html=1;entryX=0.5;entryY=1;entryDx=0;entryDy=0;entryPerimeter=0;" edge="1" parent="VvUdo0zjaCuZu8YFKnKq-1" source="VvUdo0zjaCuZu8YFKnKq-52" target="VvUdo0zjaCuZu8YFKnKq-53">
          <mxGeometry relative="1" as="geometry" />
        </mxCell>
        <mxCell id="VvUdo0zjaCuZu8YFKnKq-56" style="edgeStyle=orthogonalEdgeStyle;rounded=0;orthogonalLoop=1;jettySize=auto;html=1;entryX=0.5;entryY=1;entryDx=0;entryDy=0;entryPerimeter=0;" edge="1" parent="VvUdo0zjaCuZu8YFKnKq-1" source="VvUdo0zjaCuZu8YFKnKq-53" target="VvUdo0zjaCuZu8YFKnKq-16">
          <mxGeometry relative="1" as="geometry" />
        </mxCell>
        <mxCell id="VvUdo0zjaCuZu8YFKnKq-57" value="POST /ride/{id}/feedback" style="edgeLabel;html=1;align=center;verticalAlign=middle;resizable=0;points=[];" vertex="1" connectable="0" parent="VvUdo0zjaCuZu8YFKnKq-56">
          <mxGeometry x="-0.4231" y="1" relative="1" as="geometry">
            <mxPoint as="offset" />
          </mxGeometry>
        </mxCell>
        <mxCell id="VvUdo0zjaCuZu8YFKnKq-58" style="edgeStyle=orthogonalEdgeStyle;rounded=0;orthogonalLoop=1;jettySize=auto;html=1;entryX=0.5;entryY=1;entryDx=0;entryDy=0;entryPerimeter=0;" edge="1" parent="VvUdo0zjaCuZu8YFKnKq-1" target="VvUdo0zjaCuZu8YFKnKq-52">
          <mxGeometry relative="1" as="geometry">
            <mxPoint x="933" y="560" as="sourcePoint" />
          </mxGeometry>
        </mxCell>
        <mxCell id="VvUdo0zjaCuZu8YFKnKq-59" value="&lt;h1&gt;Diagram for the interaction between the Client and the Exp API when it&#39;s finishing a ride&lt;br&gt;&lt;/h1&gt;" style="text;html=1;align=center;verticalAlign=middle;resizable=0;points=[];autosize=1;strokeColor=none;fillColor=none;" vertex="1" parent="VvUdo0zjaCuZu8YFKnKq-1">
          <mxGeometry x="40" y="-580" width="1020" height="70" as="geometry" />
        </mxCell>
        <mxCell id="x7NhefQ3XoewuiwnYH2W-4" style="edgeStyle=orthogonalEdgeStyle;rounded=0;orthogonalLoop=1;jettySize=auto;html=1;" edge="1" parent="VvUdo0zjaCuZu8YFKnKq-1" source="x7NhefQ3XoewuiwnYH2W-1" target="x7NhefQ3XoewuiwnYH2W-3">
          <mxGeometry relative="1" as="geometry" />
        </mxCell>
        <mxCell id="x7NhefQ3XoewuiwnYH2W-5" value="No" style="edgeLabel;html=1;align=center;verticalAlign=middle;resizable=0;points=[];" vertex="1" connectable="0" parent="x7NhefQ3XoewuiwnYH2W-4">
          <mxGeometry x="-0.3" relative="1" as="geometry">
            <mxPoint as="offset" />
          </mxGeometry>
        </mxCell>
        <mxCell id="tqwcumiHTZXrV8akWIam-0" value="sys-drivers" style="swimlane;horizontal=0;whiteSpace=wrap;html=1;" vertex="1" parent="VvUdo0zjaCuZu8YFKnKq-1">
          <mxGeometry x="40" y="-300" width="2000" height="200" as="geometry" />
        </mxCell>
        <mxCell id="tqwcumiHTZXrV8akWIam-1" value="Update Driver profie survey data" style="points=[[0.25,0,0],[0.5,0,0],[0.75,0,0],[1,0.25,0],[1,0.5,0],[1,0.75,0],[0.75,1,0],[0.5,1,0],[0.25,1,0],[0,0.75,0],[0,0.5,0],[0,0.25,0]];shape=mxgraph.bpmn.task;whiteSpace=wrap;rectStyle=rounded;size=10;html=1;container=1;expand=0;collapsible=0;taskMarker=abstract;" vertex="1" parent="tqwcumiHTZXrV8akWIam-0">
          <mxGeometry x="1023" y="60" width="120" height="80" as="geometry" />
        </mxCell>
        <mxCell id="tqwcumiHTZXrV8akWIam-2" value="" style="edgeStyle=orthogonalEdgeStyle;rounded=0;orthogonalLoop=1;jettySize=auto;html=1;" edge="1" parent="VvUdo0zjaCuZu8YFKnKq-1" source="7WDWEMYJrdUVoe0Sw8bg-1" target="tqwcumiHTZXrV8akWIam-1">
          <mxGeometry relative="1" as="geometry" />
        </mxCell>
        <mxCell id="tqwcumiHTZXrV8akWIam-3" value="POST /drivers/{id}/feedback" style="edgeLabel;html=1;align=center;verticalAlign=middle;resizable=0;points=[];" vertex="1" connectable="0" parent="tqwcumiHTZXrV8akWIam-2">
          <mxGeometry x="-0.1062" y="4" relative="1" as="geometry">
            <mxPoint as="offset" />
          </mxGeometry>
        </mxCell>
      </root>
    </mxGraphModel>
  </diagram>
  <diagram name="Trip happy path using client location as start" id="b4SbSSeDNvztZUZswQz6">
    <mxGraphModel dx="1715" dy="1083" grid="1" gridSize="10" guides="1" tooltips="1" connect="1" arrows="1" fold="1" page="1" pageScale="1" pageWidth="1100" pageHeight="850" math="0" shadow="0">
      <root>
        <mxCell id="0" />
        <mxCell id="1" parent="0" />
        <mxCell id="6SqE2iq3v3INhuW2H0y2-1" value="App" style="swimlane;horizontal=0;whiteSpace=wrap;html=1;" parent="1" vertex="1">
          <mxGeometry x="40" y="300" width="2160" height="200" as="geometry" />
        </mxCell>
        <mxCell id="m6PXdY-F9Ei1oLKd_6Ka-3" value="Get Client Geo location" style="points=[[0.25,0,0],[0.5,0,0],[0.75,0,0],[1,0.25,0],[1,0.5,0],[1,0.75,0],[0.75,1,0],[0.5,1,0],[0.25,1,0],[0,0.75,0],[0,0.5,0],[0,0.25,0]];shape=mxgraph.bpmn.task;whiteSpace=wrap;rectStyle=rounded;size=10;html=1;container=1;expand=0;collapsible=0;taskMarker=abstract;" parent="6SqE2iq3v3INhuW2H0y2-1" vertex="1">
          <mxGeometry x="320" y="60" width="120" height="80" as="geometry" />
        </mxCell>
        <mxCell id="m6PXdY-F9Ei1oLKd_6Ka-8" value="Get Target Geo location" style="points=[[0.25,0,0],[0.5,0,0],[0.75,0,0],[1,0.25,0],[1,0.5,0],[1,0.75,0],[0.75,1,0],[0.5,1,0],[0.25,1,0],[0,0.75,0],[0,0.5,0],[0,0.25,0]];shape=mxgraph.bpmn.task;whiteSpace=wrap;rectStyle=rounded;size=10;html=1;container=1;expand=0;collapsible=0;taskMarker=abstract;" parent="6SqE2iq3v3INhuW2H0y2-1" vertex="1">
          <mxGeometry x="560" y="60" width="120" height="80" as="geometry" />
        </mxCell>
        <mxCell id="dXKky9fJ1J5vQsIqOFuL-2" value="" style="edgeStyle=orthogonalEdgeStyle;rounded=0;orthogonalLoop=1;jettySize=auto;html=1;" parent="6SqE2iq3v3INhuW2H0y2-1" source="m6PXdY-F9Ei1oLKd_6Ka-12" target="dXKky9fJ1J5vQsIqOFuL-1" edge="1">
          <mxGeometry relative="1" as="geometry" />
        </mxCell>
        <mxCell id="m6PXdY-F9Ei1oLKd_6Ka-12" value="Obtain available drivers nearest to client initial location" style="points=[[0.25,0,0],[0.5,0,0],[0.75,0,0],[1,0.25,0],[1,0.5,0],[1,0.75,0],[0.75,1,0],[0.5,1,0],[0.25,1,0],[0,0.75,0],[0,0.5,0],[0,0.25,0]];shape=mxgraph.bpmn.task;whiteSpace=wrap;rectStyle=rounded;size=10;html=1;container=1;expand=0;collapsible=0;taskMarker=abstract;" parent="6SqE2iq3v3INhuW2H0y2-1" vertex="1">
          <mxGeometry x="770" y="60" width="120" height="80" as="geometry" />
        </mxCell>
        <mxCell id="m6PXdY-F9Ei1oLKd_6Ka-14" value="Broadcast to connected drivers the announce of the requested trip" style="points=[[0.25,0,0],[0.5,0,0],[0.75,0,0],[1,0.25,0],[1,0.5,0],[1,0.75,0],[0.75,1,0],[0.5,1,0],[0.25,1,0],[0,0.75,0],[0,0.5,0],[0,0.25,0]];shape=mxgraph.bpmn.task;whiteSpace=wrap;rectStyle=rounded;size=10;html=1;container=1;expand=0;collapsible=0;taskMarker=abstract;" parent="6SqE2iq3v3INhuW2H0y2-1" vertex="1">
          <mxGeometry x="1110" y="60" width="120" height="80" as="geometry" />
        </mxCell>
        <mxCell id="m6PXdY-F9Ei1oLKd_6Ka-19" value="Confirm driver for trip" style="points=[[0.25,0,0],[0.5,0,0],[0.75,0,0],[1,0.25,0],[1,0.5,0],[1,0.75,0],[0.75,1,0],[0.5,1,0],[0.25,1,0],[0,0.75,0],[0,0.5,0],[0,0.25,0]];shape=mxgraph.bpmn.task;whiteSpace=wrap;rectStyle=rounded;size=10;html=1;container=1;expand=0;collapsible=0;taskMarker=abstract;" parent="6SqE2iq3v3INhuW2H0y2-1" vertex="1">
          <mxGeometry x="1310" y="60" width="120" height="80" as="geometry" />
        </mxCell>
        <mxCell id="dXKky9fJ1J5vQsIqOFuL-3" style="edgeStyle=orthogonalEdgeStyle;rounded=0;orthogonalLoop=1;jettySize=auto;html=1;entryX=0;entryY=0.5;entryDx=0;entryDy=0;entryPerimeter=0;" parent="6SqE2iq3v3INhuW2H0y2-1" source="dXKky9fJ1J5vQsIqOFuL-1" target="m6PXdY-F9Ei1oLKd_6Ka-14" edge="1">
          <mxGeometry relative="1" as="geometry" />
        </mxCell>
        <mxCell id="dXKky9fJ1J5vQsIqOFuL-1" value="Filter drivers by criteria" style="points=[[0.25,0,0],[0.5,0,0],[0.75,0,0],[1,0.25,0],[1,0.5,0],[1,0.75,0],[0.75,1,0],[0.5,1,0],[0.25,1,0],[0,0.75,0],[0,0.5,0],[0,0.25,0]];shape=mxgraph.bpmn.task;whiteSpace=wrap;rectStyle=rounded;size=10;html=1;container=1;expand=0;collapsible=0;taskMarker=abstract;" parent="6SqE2iq3v3INhuW2H0y2-1" vertex="1">
          <mxGeometry x="940" y="60" width="120" height="80" as="geometry" />
        </mxCell>
        <mxCell id="dXKky9fJ1J5vQsIqOFuL-18" value="" style="edgeStyle=orthogonalEdgeStyle;rounded=0;orthogonalLoop=1;jettySize=auto;html=1;" parent="6SqE2iq3v3INhuW2H0y2-1" source="dXKky9fJ1J5vQsIqOFuL-13" target="dXKky9fJ1J5vQsIqOFuL-17" edge="1">
          <mxGeometry relative="1" as="geometry" />
        </mxCell>
        <mxCell id="dXKky9fJ1J5vQsIqOFuL-13" value="Register the successful trip" style="points=[[0.25,0,0],[0.5,0,0],[0.75,0,0],[1,0.25,0],[1,0.5,0],[1,0.75,0],[0.75,1,0],[0.5,1,0],[0.25,1,0],[0,0.75,0],[0,0.5,0],[0,0.25,0]];shape=mxgraph.bpmn.task;whiteSpace=wrap;rectStyle=rounded;size=10;html=1;container=1;expand=0;collapsible=0;taskMarker=abstract;" parent="6SqE2iq3v3INhuW2H0y2-1" vertex="1">
          <mxGeometry x="1710" y="30" width="120" height="80" as="geometry" />
        </mxCell>
        <mxCell id="dXKky9fJ1J5vQsIqOFuL-17" value="" style="rhombus;whiteSpace=wrap;html=1;" parent="6SqE2iq3v3INhuW2H0y2-1" vertex="1">
          <mxGeometry x="1945" y="50" width="50" height="40" as="geometry" />
        </mxCell>
        <mxCell id="6SqE2iq3v3INhuW2H0y2-2" value="Client" style="swimlane;horizontal=0;whiteSpace=wrap;html=1;" parent="1" vertex="1">
          <mxGeometry x="40" y="500" width="2160" height="200" as="geometry" />
        </mxCell>
        <mxCell id="6SqE2iq3v3INhuW2H0y2-6" style="edgeStyle=orthogonalEdgeStyle;rounded=0;orthogonalLoop=1;jettySize=auto;html=1;entryX=0;entryY=0.5;entryDx=0;entryDy=0;entryPerimeter=0;" parent="6SqE2iq3v3INhuW2H0y2-2" source="6SqE2iq3v3INhuW2H0y2-4" target="m6PXdY-F9Ei1oLKd_6Ka-1" edge="1">
          <mxGeometry relative="1" as="geometry" />
        </mxCell>
        <mxCell id="6SqE2iq3v3INhuW2H0y2-4" value="" style="points=[[0.145,0.145,0],[0.5,0,0],[0.855,0.145,0],[1,0.5,0],[0.855,0.855,0],[0.5,1,0],[0.145,0.855,0],[0,0.5,0]];shape=mxgraph.bpmn.event;html=1;verticalLabelPosition=bottom;labelBackgroundColor=#ffffff;verticalAlign=top;align=center;perimeter=ellipsePerimeter;outlineConnect=0;aspect=fixed;outline=standard;symbol=general;" parent="6SqE2iq3v3INhuW2H0y2-2" vertex="1">
          <mxGeometry x="50" y="75" width="50" height="50" as="geometry" />
        </mxCell>
        <mxCell id="6SqE2iq3v3INhuW2H0y2-5" value="Select Starts Trip" style="points=[[0.25,0,0],[0.5,0,0],[0.75,0,0],[1,0.25,0],[1,0.5,0],[1,0.75,0],[0.75,1,0],[0.5,1,0],[0.25,1,0],[0,0.75,0],[0,0.5,0],[0,0.25,0]];shape=mxgraph.bpmn.task;whiteSpace=wrap;rectStyle=rounded;size=10;html=1;container=1;expand=0;collapsible=0;taskMarker=abstract;" parent="6SqE2iq3v3INhuW2H0y2-2" vertex="1">
          <mxGeometry x="310" y="60" width="120" height="80" as="geometry" />
        </mxCell>
        <mxCell id="m6PXdY-F9Ei1oLKd_6Ka-2" style="edgeStyle=orthogonalEdgeStyle;rounded=0;orthogonalLoop=1;jettySize=auto;html=1;exitX=1;exitY=0.5;exitDx=0;exitDy=0;exitPerimeter=0;entryX=0;entryY=0.5;entryDx=0;entryDy=0;entryPerimeter=0;" parent="6SqE2iq3v3INhuW2H0y2-2" source="m6PXdY-F9Ei1oLKd_6Ka-1" target="6SqE2iq3v3INhuW2H0y2-5" edge="1">
          <mxGeometry relative="1" as="geometry" />
        </mxCell>
        <mxCell id="m6PXdY-F9Ei1oLKd_6Ka-1" value="Starts app" style="points=[[0.25,0,0],[0.5,0,0],[0.75,0,0],[1,0.25,0],[1,0.5,0],[1,0.75,0],[0.75,1,0],[0.5,1,0],[0.25,1,0],[0,0.75,0],[0,0.5,0],[0,0.25,0]];shape=mxgraph.bpmn.task;whiteSpace=wrap;rectStyle=rounded;size=10;html=1;container=1;expand=0;collapsible=0;taskMarker=abstract;" parent="6SqE2iq3v3INhuW2H0y2-2" vertex="1">
          <mxGeometry x="140" y="60" width="120" height="80" as="geometry" />
        </mxCell>
        <mxCell id="m6PXdY-F9Ei1oLKd_6Ka-6" value="Select target destination" style="points=[[0.25,0,0],[0.5,0,0],[0.75,0,0],[1,0.25,0],[1,0.5,0],[1,0.75,0],[0.75,1,0],[0.5,1,0],[0.25,1,0],[0,0.75,0],[0,0.5,0],[0,0.25,0]];shape=mxgraph.bpmn.task;whiteSpace=wrap;rectStyle=rounded;size=10;html=1;container=1;expand=0;collapsible=0;taskMarker=abstract;" parent="6SqE2iq3v3INhuW2H0y2-2" vertex="1">
          <mxGeometry x="460" y="60" width="120" height="80" as="geometry" />
        </mxCell>
        <mxCell id="m6PXdY-F9Ei1oLKd_6Ka-10" value="Confirm initial location and destination" style="points=[[0.25,0,0],[0.5,0,0],[0.75,0,0],[1,0.25,0],[1,0.5,0],[1,0.75,0],[0.75,1,0],[0.5,1,0],[0.25,1,0],[0,0.75,0],[0,0.5,0],[0,0.25,0]];shape=mxgraph.bpmn.task;whiteSpace=wrap;rectStyle=rounded;size=10;html=1;container=1;expand=0;collapsible=0;taskMarker=abstract;" parent="6SqE2iq3v3INhuW2H0y2-2" vertex="1">
          <mxGeometry x="640" y="60" width="120" height="80" as="geometry" />
        </mxCell>
        <mxCell id="dXKky9fJ1J5vQsIqOFuL-5" value="" style="edgeStyle=orthogonalEdgeStyle;rounded=0;orthogonalLoop=1;jettySize=auto;html=1;" parent="6SqE2iq3v3INhuW2H0y2-2" source="m6PXdY-F9Ei1oLKd_6Ka-21" target="dXKky9fJ1J5vQsIqOFuL-4" edge="1">
          <mxGeometry relative="1" as="geometry" />
        </mxCell>
        <mxCell id="m6PXdY-F9Ei1oLKd_6Ka-21" value="Shows Driver information" style="points=[[0.25,0,0],[0.5,0,0],[0.75,0,0],[1,0.25,0],[1,0.5,0],[1,0.75,0],[0.75,1,0],[0.5,1,0],[0.25,1,0],[0,0.75,0],[0,0.5,0],[0,0.25,0]];shape=mxgraph.bpmn.task;whiteSpace=wrap;rectStyle=rounded;size=10;html=1;container=1;expand=0;collapsible=0;taskMarker=abstract;" parent="6SqE2iq3v3INhuW2H0y2-2" vertex="1">
          <mxGeometry x="1310" y="60" width="120" height="80" as="geometry" />
        </mxCell>
        <mxCell id="dXKky9fJ1J5vQsIqOFuL-4" value="Pooling Driver location and show in app" style="points=[[0.25,0,0],[0.5,0,0],[0.75,0,0],[1,0.25,0],[1,0.5,0],[1,0.75,0],[0.75,1,0],[0.5,1,0],[0.25,1,0],[0,0.75,0],[0,0.5,0],[0,0.25,0]];shape=mxgraph.bpmn.task;whiteSpace=wrap;rectStyle=rounded;size=10;html=1;container=1;expand=0;collapsible=0;taskMarker=abstract;" parent="6SqE2iq3v3INhuW2H0y2-2" vertex="1">
          <mxGeometry x="1510" y="60" width="120" height="80" as="geometry" />
        </mxCell>
        <mxCell id="dXKky9fJ1J5vQsIqOFuL-22" style="edgeStyle=orthogonalEdgeStyle;rounded=0;orthogonalLoop=1;jettySize=auto;html=1;entryX=0;entryY=0.5;entryDx=0;entryDy=0;" parent="6SqE2iq3v3INhuW2H0y2-2" source="dXKky9fJ1J5vQsIqOFuL-15" target="6SqE2iq3v3INhuW2H0y2-16" edge="1">
          <mxGeometry relative="1" as="geometry" />
        </mxCell>
        <mxCell id="dXKky9fJ1J5vQsIqOFuL-15" value="Show tip options and driver evaluation" style="points=[[0.25,0,0],[0.5,0,0],[0.75,0,0],[1,0.25,0],[1,0.5,0],[1,0.75,0],[0.75,1,0],[0.5,1,0],[0.25,1,0],[0,0.75,0],[0,0.5,0],[0,0.25,0]];shape=mxgraph.bpmn.task;whiteSpace=wrap;rectStyle=rounded;size=10;html=1;container=1;expand=0;collapsible=0;taskMarker=abstract;" parent="6SqE2iq3v3INhuW2H0y2-2" vertex="1">
          <mxGeometry x="1910" y="60" width="120" height="80" as="geometry" />
        </mxCell>
        <mxCell id="6SqE2iq3v3INhuW2H0y2-16" value="" style="ellipse;whiteSpace=wrap;html=1;aspect=fixed;fillColor=#000000;" parent="6SqE2iq3v3INhuW2H0y2-2" vertex="1">
          <mxGeometry x="2080" y="75" width="50" height="50" as="geometry" />
        </mxCell>
        <mxCell id="6SqE2iq3v3INhuW2H0y2-3" value="Driver" style="swimlane;horizontal=0;whiteSpace=wrap;html=1;" parent="1" vertex="1">
          <mxGeometry x="40" y="100" width="2160" height="200" as="geometry" />
        </mxCell>
        <mxCell id="6SqE2iq3v3INhuW2H0y2-9" value="Accepts trip" style="points=[[0.25,0,0],[0.5,0,0],[0.75,0,0],[1,0.25,0],[1,0.5,0],[1,0.75,0],[0.75,1,0],[0.5,1,0],[0.25,1,0],[0,0.75,0],[0,0.5,0],[0,0.25,0]];shape=mxgraph.bpmn.task;whiteSpace=wrap;rectStyle=rounded;size=10;html=1;container=1;expand=0;collapsible=0;taskMarker=abstract;" parent="6SqE2iq3v3INhuW2H0y2-3" vertex="1">
          <mxGeometry x="1310" y="50" width="120" height="80" as="geometry" />
        </mxCell>
        <mxCell id="6SqE2iq3v3INhuW2H0y2-7" value="Claim trip" style="points=[[0.25,0,0],[0.5,0,0],[0.75,0,0],[1,0.25,0],[1,0.5,0],[1,0.75,0],[0.75,1,0],[0.5,1,0],[0.25,1,0],[0,0.75,0],[0,0.5,0],[0,0.25,0]];shape=mxgraph.bpmn.task;whiteSpace=wrap;rectStyle=rounded;size=10;html=1;container=1;expand=0;collapsible=0;taskMarker=abstract;" parent="6SqE2iq3v3INhuW2H0y2-3" vertex="1">
          <mxGeometry x="1110" y="50" width="120" height="80" as="geometry" />
        </mxCell>
        <mxCell id="6SqE2iq3v3INhuW2H0y2-10" style="edgeStyle=orthogonalEdgeStyle;rounded=0;orthogonalLoop=1;jettySize=auto;html=1;" parent="6SqE2iq3v3INhuW2H0y2-3" source="6SqE2iq3v3INhuW2H0y2-7" target="6SqE2iq3v3INhuW2H0y2-9" edge="1">
          <mxGeometry relative="1" as="geometry" />
        </mxCell>
        <mxCell id="dXKky9fJ1J5vQsIqOFuL-9" value="" style="edgeStyle=orthogonalEdgeStyle;rounded=0;orthogonalLoop=1;jettySize=auto;html=1;" parent="6SqE2iq3v3INhuW2H0y2-3" source="dXKky9fJ1J5vQsIqOFuL-6" target="dXKky9fJ1J5vQsIqOFuL-8" edge="1">
          <mxGeometry relative="1" as="geometry" />
        </mxCell>
        <mxCell id="dXKky9fJ1J5vQsIqOFuL-6" value="Notify client in car" style="points=[[0.25,0,0],[0.5,0,0],[0.75,0,0],[1,0.25,0],[1,0.5,0],[1,0.75,0],[0.75,1,0],[0.5,1,0],[0.25,1,0],[0,0.75,0],[0,0.5,0],[0,0.25,0]];shape=mxgraph.bpmn.task;whiteSpace=wrap;rectStyle=rounded;size=10;html=1;container=1;expand=0;collapsible=0;taskMarker=abstract;" parent="6SqE2iq3v3INhuW2H0y2-3" vertex="1">
          <mxGeometry x="1510" y="50" width="120" height="80" as="geometry" />
        </mxCell>
        <mxCell id="dXKky9fJ1J5vQsIqOFuL-8" value="Notify trip finished" style="points=[[0.25,0,0],[0.5,0,0],[0.75,0,0],[1,0.25,0],[1,0.5,0],[1,0.75,0],[0.75,1,0],[0.5,1,0],[0.25,1,0],[0,0.75,0],[0,0.5,0],[0,0.25,0]];shape=mxgraph.bpmn.task;whiteSpace=wrap;rectStyle=rounded;size=10;html=1;container=1;expand=0;collapsible=0;taskMarker=abstract;" parent="6SqE2iq3v3INhuW2H0y2-3" vertex="1">
          <mxGeometry x="1710" y="50" width="120" height="80" as="geometry" />
        </mxCell>
        <mxCell id="dXKky9fJ1J5vQsIqOFuL-23" style="edgeStyle=orthogonalEdgeStyle;rounded=0;orthogonalLoop=1;jettySize=auto;html=1;entryX=0;entryY=0.5;entryDx=0;entryDy=0;" parent="6SqE2iq3v3INhuW2H0y2-3" source="6SqE2iq3v3INhuW2H0y2-13" target="dXKky9fJ1J5vQsIqOFuL-21" edge="1">
          <mxGeometry relative="1" as="geometry" />
        </mxCell>
        <mxCell id="6SqE2iq3v3INhuW2H0y2-13" value="Evaluate client" style="points=[[0.25,0,0],[0.5,0,0],[0.75,0,0],[1,0.25,0],[1,0.5,0],[1,0.75,0],[0.75,1,0],[0.5,1,0],[0.25,1,0],[0,0.75,0],[0,0.5,0],[0,0.25,0]];shape=mxgraph.bpmn.task;whiteSpace=wrap;rectStyle=rounded;size=10;html=1;container=1;expand=0;collapsible=0;taskMarker=abstract;" parent="6SqE2iq3v3INhuW2H0y2-3" vertex="1">
          <mxGeometry x="1910" y="50" width="120" height="80" as="geometry" />
        </mxCell>
        <mxCell id="dXKky9fJ1J5vQsIqOFuL-21" value="" style="ellipse;whiteSpace=wrap;html=1;aspect=fixed;fillColor=#000000;" parent="6SqE2iq3v3INhuW2H0y2-3" vertex="1">
          <mxGeometry x="2090" y="65" width="50" height="50" as="geometry" />
        </mxCell>
        <mxCell id="m6PXdY-F9Ei1oLKd_6Ka-4" value="" style="edgeStyle=orthogonalEdgeStyle;rounded=0;orthogonalLoop=1;jettySize=auto;html=1;" parent="1" source="6SqE2iq3v3INhuW2H0y2-5" target="m6PXdY-F9Ei1oLKd_6Ka-3" edge="1">
          <mxGeometry relative="1" as="geometry">
            <Array as="points">
              <mxPoint x="410" y="460" />
              <mxPoint x="410" y="460" />
            </Array>
          </mxGeometry>
        </mxCell>
        <mxCell id="m6PXdY-F9Ei1oLKd_6Ka-7" value="" style="edgeStyle=orthogonalEdgeStyle;rounded=0;orthogonalLoop=1;jettySize=auto;html=1;" parent="1" source="m6PXdY-F9Ei1oLKd_6Ka-3" target="m6PXdY-F9Ei1oLKd_6Ka-6" edge="1">
          <mxGeometry relative="1" as="geometry" />
        </mxCell>
        <mxCell id="m6PXdY-F9Ei1oLKd_6Ka-9" value="" style="edgeStyle=orthogonalEdgeStyle;rounded=0;orthogonalLoop=1;jettySize=auto;html=1;" parent="1" source="m6PXdY-F9Ei1oLKd_6Ka-6" target="m6PXdY-F9Ei1oLKd_6Ka-8" edge="1">
          <mxGeometry relative="1" as="geometry">
            <Array as="points">
              <mxPoint x="660" y="600" />
            </Array>
          </mxGeometry>
        </mxCell>
        <mxCell id="m6PXdY-F9Ei1oLKd_6Ka-11" value="" style="edgeStyle=orthogonalEdgeStyle;rounded=0;orthogonalLoop=1;jettySize=auto;html=1;" parent="1" source="m6PXdY-F9Ei1oLKd_6Ka-8" target="m6PXdY-F9Ei1oLKd_6Ka-10" edge="1">
          <mxGeometry relative="1" as="geometry">
            <Array as="points">
              <mxPoint x="740" y="400" />
            </Array>
          </mxGeometry>
        </mxCell>
        <mxCell id="m6PXdY-F9Ei1oLKd_6Ka-13" value="" style="edgeStyle=orthogonalEdgeStyle;rounded=0;orthogonalLoop=1;jettySize=auto;html=1;" parent="1" source="m6PXdY-F9Ei1oLKd_6Ka-10" target="m6PXdY-F9Ei1oLKd_6Ka-12" edge="1">
          <mxGeometry relative="1" as="geometry" />
        </mxCell>
        <mxCell id="m6PXdY-F9Ei1oLKd_6Ka-16" style="edgeStyle=orthogonalEdgeStyle;rounded=0;orthogonalLoop=1;jettySize=auto;html=1;entryX=0.5;entryY=1;entryDx=0;entryDy=0;entryPerimeter=0;" parent="1" source="m6PXdY-F9Ei1oLKd_6Ka-14" target="6SqE2iq3v3INhuW2H0y2-7" edge="1">
          <mxGeometry relative="1" as="geometry" />
        </mxCell>
        <mxCell id="m6PXdY-F9Ei1oLKd_6Ka-20" value="" style="edgeStyle=orthogonalEdgeStyle;rounded=0;orthogonalLoop=1;jettySize=auto;html=1;" parent="1" source="6SqE2iq3v3INhuW2H0y2-9" target="m6PXdY-F9Ei1oLKd_6Ka-19" edge="1">
          <mxGeometry relative="1" as="geometry" />
        </mxCell>
        <mxCell id="m6PXdY-F9Ei1oLKd_6Ka-22" value="" style="edgeStyle=orthogonalEdgeStyle;rounded=0;orthogonalLoop=1;jettySize=auto;html=1;" parent="1" source="m6PXdY-F9Ei1oLKd_6Ka-19" target="m6PXdY-F9Ei1oLKd_6Ka-21" edge="1">
          <mxGeometry relative="1" as="geometry" />
        </mxCell>
        <mxCell id="dXKky9fJ1J5vQsIqOFuL-7" value="" style="edgeStyle=orthogonalEdgeStyle;rounded=0;orthogonalLoop=1;jettySize=auto;html=1;" parent="1" source="dXKky9fJ1J5vQsIqOFuL-4" target="dXKky9fJ1J5vQsIqOFuL-6" edge="1">
          <mxGeometry relative="1" as="geometry" />
        </mxCell>
        <mxCell id="dXKky9fJ1J5vQsIqOFuL-14" value="" style="edgeStyle=orthogonalEdgeStyle;rounded=0;orthogonalLoop=1;jettySize=auto;html=1;" parent="1" source="dXKky9fJ1J5vQsIqOFuL-8" target="dXKky9fJ1J5vQsIqOFuL-13" edge="1">
          <mxGeometry relative="1" as="geometry" />
        </mxCell>
        <mxCell id="dXKky9fJ1J5vQsIqOFuL-19" style="edgeStyle=orthogonalEdgeStyle;rounded=0;orthogonalLoop=1;jettySize=auto;html=1;entryX=0.5;entryY=1;entryDx=0;entryDy=0;entryPerimeter=0;" parent="1" source="dXKky9fJ1J5vQsIqOFuL-17" target="6SqE2iq3v3INhuW2H0y2-13" edge="1">
          <mxGeometry relative="1" as="geometry" />
        </mxCell>
        <mxCell id="dXKky9fJ1J5vQsIqOFuL-20" style="edgeStyle=orthogonalEdgeStyle;rounded=0;orthogonalLoop=1;jettySize=auto;html=1;" parent="1" source="dXKky9fJ1J5vQsIqOFuL-17" target="dXKky9fJ1J5vQsIqOFuL-15" edge="1">
          <mxGeometry relative="1" as="geometry" />
        </mxCell>
      </root>
    </mxGraphModel>
  </diagram>
  <diagram id="ks2n3edpZDyrcrVksH1o" name="Driver Registration Flow">
    <mxGraphModel dx="1715" dy="1083" grid="1" gridSize="10" guides="1" tooltips="1" connect="1" arrows="1" fold="1" page="1" pageScale="1" pageWidth="850" pageHeight="1100" math="0" shadow="0">
      <root>
        <mxCell id="0" />
        <mxCell id="1" parent="0" />
        <mxCell id="xxOYMUocA_w6UjREiuGi-1" value="App" style="swimlane;horizontal=0;whiteSpace=wrap;html=1;" parent="1" vertex="1">
          <mxGeometry x="40" y="300" width="980" height="200" as="geometry" />
        </mxCell>
        <mxCell id="xxOYMUocA_w6UjREiuGi-2" value="" style="edgeStyle=orthogonalEdgeStyle;rounded=0;orthogonalLoop=1;jettySize=auto;html=1;" parent="xxOYMUocA_w6UjREiuGi-1" source="xxOYMUocA_w6UjREiuGi-3" target="xxOYMUocA_w6UjREiuGi-4" edge="1">
          <mxGeometry relative="1" as="geometry" />
        </mxCell>
        <mxCell id="xxOYMUocA_w6UjREiuGi-3" value="Create user in Authentication system" style="points=[[0.25,0,0],[0.5,0,0],[0.75,0,0],[1,0.25,0],[1,0.5,0],[1,0.75,0],[0.75,1,0],[0.5,1,0],[0.25,1,0],[0,0.75,0],[0,0.5,0],[0,0.25,0]];shape=mxgraph.bpmn.task;whiteSpace=wrap;rectStyle=rounded;size=10;html=1;container=1;expand=0;collapsible=0;taskMarker=abstract;" parent="xxOYMUocA_w6UjREiuGi-1" vertex="1">
          <mxGeometry x="480" y="50" width="120" height="80" as="geometry" />
        </mxCell>
        <mxCell id="xxOYMUocA_w6UjREiuGi-4" value="Create driver in Data system" style="points=[[0.25,0,0],[0.5,0,0],[0.75,0,0],[1,0.25,0],[1,0.5,0],[1,0.75,0],[0.75,1,0],[0.5,1,0],[0.25,1,0],[0,0.75,0],[0,0.5,0],[0,0.25,0]];shape=mxgraph.bpmn.task;whiteSpace=wrap;rectStyle=rounded;size=10;html=1;container=1;expand=0;collapsible=0;taskMarker=abstract;" parent="xxOYMUocA_w6UjREiuGi-1" vertex="1">
          <mxGeometry x="640" y="50" width="120" height="80" as="geometry" />
        </mxCell>
        <mxCell id="yvqbchbb2BaxcTLoluS5-3" style="edgeStyle=orthogonalEdgeStyle;rounded=0;orthogonalLoop=1;jettySize=auto;html=1;exitX=1;exitY=0.5;exitDx=0;exitDy=0;exitPerimeter=0;entryX=0;entryY=0.5;entryDx=0;entryDy=0;entryPerimeter=0;" parent="xxOYMUocA_w6UjREiuGi-1" source="yvqbchbb2BaxcTLoluS5-1" target="xxOYMUocA_w6UjREiuGi-3" edge="1">
          <mxGeometry relative="1" as="geometry" />
        </mxCell>
        <mxCell id="yvqbchbb2BaxcTLoluS5-1" value="Validaciones - Verificaciones" style="points=[[0.25,0,0],[0.5,0,0],[0.75,0,0],[1,0.25,0],[1,0.5,0],[1,0.75,0],[0.75,1,0],[0.5,1,0],[0.25,1,0],[0,0.75,0],[0,0.5,0],[0,0.25,0]];shape=mxgraph.bpmn.task;whiteSpace=wrap;rectStyle=rounded;size=10;html=1;container=1;expand=0;collapsible=0;taskMarker=abstract;" parent="xxOYMUocA_w6UjREiuGi-1" vertex="1">
          <mxGeometry x="300" y="50" width="120" height="80" as="geometry" />
        </mxCell>
        <mxCell id="xxOYMUocA_w6UjREiuGi-5" value="Driver" style="swimlane;horizontal=0;whiteSpace=wrap;html=1;" parent="1" vertex="1">
          <mxGeometry x="40" y="500" width="980" height="200" as="geometry" />
        </mxCell>
        <mxCell id="xxOYMUocA_w6UjREiuGi-6" style="edgeStyle=orthogonalEdgeStyle;rounded=0;orthogonalLoop=1;jettySize=auto;html=1;entryX=0;entryY=0.5;entryDx=0;entryDy=0;entryPerimeter=0;" parent="xxOYMUocA_w6UjREiuGi-5" source="xxOYMUocA_w6UjREiuGi-7" target="xxOYMUocA_w6UjREiuGi-8" edge="1">
          <mxGeometry relative="1" as="geometry" />
        </mxCell>
        <mxCell id="xxOYMUocA_w6UjREiuGi-7" value="" style="points=[[0.145,0.145,0],[0.5,0,0],[0.855,0.145,0],[1,0.5,0],[0.855,0.855,0],[0.5,1,0],[0.145,0.855,0],[0,0.5,0]];shape=mxgraph.bpmn.event;html=1;verticalLabelPosition=bottom;labelBackgroundColor=#ffffff;verticalAlign=top;align=center;perimeter=ellipsePerimeter;outlineConnect=0;aspect=fixed;outline=standard;symbol=general;" parent="xxOYMUocA_w6UjREiuGi-5" vertex="1">
          <mxGeometry x="70" y="75" width="50" height="50" as="geometry" />
        </mxCell>
        <mxCell id="xxOYMUocA_w6UjREiuGi-8" value="Starts app" style="points=[[0.25,0,0],[0.5,0,0],[0.75,0,0],[1,0.25,0],[1,0.5,0],[1,0.75,0],[0.75,1,0],[0.5,1,0],[0.25,1,0],[0,0.75,0],[0,0.5,0],[0,0.25,0]];shape=mxgraph.bpmn.task;whiteSpace=wrap;rectStyle=rounded;size=10;html=1;container=1;expand=0;collapsible=0;taskMarker=abstract;" parent="xxOYMUocA_w6UjREiuGi-5" vertex="1">
          <mxGeometry x="180" y="60" width="120" height="80" as="geometry" />
        </mxCell>
        <mxCell id="xxOYMUocA_w6UjREiuGi-9" value="Complete registration form" style="points=[[0.25,0,0],[0.5,0,0],[0.75,0,0],[1,0.25,0],[1,0.5,0],[1,0.75,0],[0.75,1,0],[0.5,1,0],[0.25,1,0],[0,0.75,0],[0,0.5,0],[0,0.25,0]];shape=mxgraph.bpmn.task;whiteSpace=wrap;rectStyle=rounded;size=10;html=1;container=1;expand=0;collapsible=0;taskMarker=abstract;" parent="xxOYMUocA_w6UjREiuGi-5" vertex="1">
          <mxGeometry x="370" y="60" width="120" height="80" as="geometry" />
        </mxCell>
        <mxCell id="xxOYMUocA_w6UjREiuGi-10" style="edgeStyle=orthogonalEdgeStyle;rounded=0;orthogonalLoop=1;jettySize=auto;html=1;" parent="xxOYMUocA_w6UjREiuGi-5" source="xxOYMUocA_w6UjREiuGi-8" target="xxOYMUocA_w6UjREiuGi-9" edge="1">
          <mxGeometry relative="1" as="geometry" />
        </mxCell>
        <mxCell id="xxOYMUocA_w6UjREiuGi-11" value="" style="ellipse;whiteSpace=wrap;html=1;aspect=fixed;fillColor=#000000;" parent="xxOYMUocA_w6UjREiuGi-5" vertex="1">
          <mxGeometry x="880" y="75" width="50" height="50" as="geometry" />
        </mxCell>
        <mxCell id="xxOYMUocA_w6UjREiuGi-12" value="App is in it&#39;s main menu for driver" style="points=[[0.25,0,0],[0.5,0,0],[0.75,0,0],[1,0.25,0],[1,0.5,0],[1,0.75,0],[0.75,1,0],[0.5,1,0],[0.25,1,0],[0,0.75,0],[0,0.5,0],[0,0.25,0]];shape=mxgraph.bpmn.task;whiteSpace=wrap;rectStyle=rounded;size=10;html=1;container=1;expand=0;collapsible=0;taskMarker=abstract;" parent="xxOYMUocA_w6UjREiuGi-5" vertex="1">
          <mxGeometry x="640" y="60" width="120" height="80" as="geometry" />
        </mxCell>
        <mxCell id="xxOYMUocA_w6UjREiuGi-13" value="" style="edgeStyle=orthogonalEdgeStyle;rounded=0;orthogonalLoop=1;jettySize=auto;html=1;" parent="xxOYMUocA_w6UjREiuGi-5" source="xxOYMUocA_w6UjREiuGi-12" target="xxOYMUocA_w6UjREiuGi-11" edge="1">
          <mxGeometry relative="1" as="geometry" />
        </mxCell>
        <mxCell id="xxOYMUocA_w6UjREiuGi-14" style="edgeStyle=orthogonalEdgeStyle;rounded=0;orthogonalLoop=1;jettySize=auto;html=1;entryX=0.5;entryY=1;entryDx=0;entryDy=0;entryPerimeter=0;" parent="1" source="xxOYMUocA_w6UjREiuGi-9" target="yvqbchbb2BaxcTLoluS5-1" edge="1">
          <mxGeometry relative="1" as="geometry" />
        </mxCell>
        <mxCell id="xxOYMUocA_w6UjREiuGi-15" style="edgeStyle=orthogonalEdgeStyle;rounded=0;orthogonalLoop=1;jettySize=auto;html=1;exitX=0.5;exitY=1;exitDx=0;exitDy=0;exitPerimeter=0;" parent="1" source="xxOYMUocA_w6UjREiuGi-4" target="xxOYMUocA_w6UjREiuGi-12" edge="1">
          <mxGeometry relative="1" as="geometry" />
        </mxCell>
      </root>
    </mxGraphModel>
  </diagram>
  <diagram id="D8gGSvz0njGLkRoUGnHr" name="Client Registration flow">
    <mxGraphModel dx="1715" dy="1083" grid="1" gridSize="10" guides="1" tooltips="1" connect="1" arrows="1" fold="1" page="1" pageScale="1" pageWidth="850" pageHeight="1100" math="0" shadow="0">
      <root>
        <mxCell id="0" />
        <mxCell id="1" parent="0" />
        <mxCell id="n2gwg3w4biH0eDLSQyM0-1" value="App" style="swimlane;horizontal=0;whiteSpace=wrap;html=1;" parent="1" vertex="1">
          <mxGeometry x="40" y="300" width="1110" height="200" as="geometry" />
        </mxCell>
        <mxCell id="n2gwg3w4biH0eDLSQyM0-10" value="Create user in Authentication system" style="points=[[0.25,0,0],[0.5,0,0],[0.75,0,0],[1,0.25,0],[1,0.5,0],[1,0.75,0],[0.75,1,0],[0.5,1,0],[0.25,1,0],[0,0.75,0],[0,0.5,0],[0,0.25,0]];shape=mxgraph.bpmn.task;whiteSpace=wrap;rectStyle=rounded;size=10;html=1;container=1;expand=0;collapsible=0;taskMarker=abstract;" parent="n2gwg3w4biH0eDLSQyM0-1" vertex="1">
          <mxGeometry x="370" y="50" width="120" height="80" as="geometry" />
        </mxCell>
        <mxCell id="n2gwg3w4biH0eDLSQyM0-19" value="Create client in Data system" style="points=[[0.25,0,0],[0.5,0,0],[0.75,0,0],[1,0.25,0],[1,0.5,0],[1,0.75,0],[0.75,1,0],[0.5,1,0],[0.25,1,0],[0,0.75,0],[0,0.5,0],[0,0.25,0]];shape=mxgraph.bpmn.task;whiteSpace=wrap;rectStyle=rounded;size=10;html=1;container=1;expand=0;collapsible=0;taskMarker=abstract;" parent="n2gwg3w4biH0eDLSQyM0-1" vertex="1">
          <mxGeometry x="810" y="50" width="120" height="80" as="geometry" />
        </mxCell>
        <mxCell id="4BCcGXcV7bWzf24ACTQs-1" value="Send email with validation code" style="points=[[0.25,0,0],[0.5,0,0],[0.75,0,0],[1,0.25,0],[1,0.5,0],[1,0.75,0],[0.75,1,0],[0.5,1,0],[0.25,1,0],[0,0.75,0],[0,0.5,0],[0,0.25,0]];shape=mxgraph.bpmn.task;whiteSpace=wrap;rectStyle=rounded;size=10;html=1;container=1;expand=0;collapsible=0;taskMarker=abstract;" parent="n2gwg3w4biH0eDLSQyM0-1" vertex="1">
          <mxGeometry x="560" y="50" width="120" height="80" as="geometry" />
        </mxCell>
        <mxCell id="4BCcGXcV7bWzf24ACTQs-2" style="edgeStyle=orthogonalEdgeStyle;rounded=0;orthogonalLoop=1;jettySize=auto;html=1;entryX=0;entryY=0.5;entryDx=0;entryDy=0;entryPerimeter=0;" parent="n2gwg3w4biH0eDLSQyM0-1" source="n2gwg3w4biH0eDLSQyM0-10" target="4BCcGXcV7bWzf24ACTQs-1" edge="1">
          <mxGeometry relative="1" as="geometry" />
        </mxCell>
        <mxCell id="n2gwg3w4biH0eDLSQyM0-4" value="Client" style="swimlane;horizontal=0;whiteSpace=wrap;html=1;" parent="1" vertex="1">
          <mxGeometry x="40" y="500" width="1110" height="200" as="geometry" />
        </mxCell>
        <mxCell id="n2gwg3w4biH0eDLSQyM0-5" style="edgeStyle=orthogonalEdgeStyle;rounded=0;orthogonalLoop=1;jettySize=auto;html=1;entryX=0;entryY=0.5;entryDx=0;entryDy=0;entryPerimeter=0;" parent="n2gwg3w4biH0eDLSQyM0-4" source="n2gwg3w4biH0eDLSQyM0-6" target="n2gwg3w4biH0eDLSQyM0-7" edge="1">
          <mxGeometry relative="1" as="geometry" />
        </mxCell>
        <mxCell id="n2gwg3w4biH0eDLSQyM0-6" value="" style="points=[[0.145,0.145,0],[0.5,0,0],[0.855,0.145,0],[1,0.5,0],[0.855,0.855,0],[0.5,1,0],[0.145,0.855,0],[0,0.5,0]];shape=mxgraph.bpmn.event;html=1;verticalLabelPosition=bottom;labelBackgroundColor=#ffffff;verticalAlign=top;align=center;perimeter=ellipsePerimeter;outlineConnect=0;aspect=fixed;outline=standard;symbol=general;" parent="n2gwg3w4biH0eDLSQyM0-4" vertex="1">
          <mxGeometry x="70" y="75" width="50" height="50" as="geometry" />
        </mxCell>
        <mxCell id="n2gwg3w4biH0eDLSQyM0-7" value="Starts app" style="points=[[0.25,0,0],[0.5,0,0],[0.75,0,0],[1,0.25,0],[1,0.5,0],[1,0.75,0],[0.75,1,0],[0.5,1,0],[0.25,1,0],[0,0.75,0],[0,0.5,0],[0,0.25,0]];shape=mxgraph.bpmn.task;whiteSpace=wrap;rectStyle=rounded;size=10;html=1;container=1;expand=0;collapsible=0;taskMarker=abstract;" parent="n2gwg3w4biH0eDLSQyM0-4" vertex="1">
          <mxGeometry x="180" y="60" width="120" height="80" as="geometry" />
        </mxCell>
        <mxCell id="n2gwg3w4biH0eDLSQyM0-2" value="Complete registration form" style="points=[[0.25,0,0],[0.5,0,0],[0.75,0,0],[1,0.25,0],[1,0.5,0],[1,0.75,0],[0.75,1,0],[0.5,1,0],[0.25,1,0],[0,0.75,0],[0,0.5,0],[0,0.25,0]];shape=mxgraph.bpmn.task;whiteSpace=wrap;rectStyle=rounded;size=10;html=1;container=1;expand=0;collapsible=0;taskMarker=abstract;" parent="n2gwg3w4biH0eDLSQyM0-4" vertex="1">
          <mxGeometry x="370" y="60" width="120" height="80" as="geometry" />
        </mxCell>
        <mxCell id="n2gwg3w4biH0eDLSQyM0-14" style="edgeStyle=orthogonalEdgeStyle;rounded=0;orthogonalLoop=1;jettySize=auto;html=1;" parent="n2gwg3w4biH0eDLSQyM0-4" source="n2gwg3w4biH0eDLSQyM0-7" target="n2gwg3w4biH0eDLSQyM0-2" edge="1">
          <mxGeometry relative="1" as="geometry" />
        </mxCell>
        <mxCell id="n2gwg3w4biH0eDLSQyM0-13" value="" style="ellipse;whiteSpace=wrap;html=1;aspect=fixed;fillColor=#000000;" parent="n2gwg3w4biH0eDLSQyM0-4" vertex="1">
          <mxGeometry x="1030" y="75" width="50" height="50" as="geometry" />
        </mxCell>
        <mxCell id="n2gwg3w4biH0eDLSQyM0-12" value="App is in it&#39;s main menu for client&amp;nbsp;" style="points=[[0.25,0,0],[0.5,0,0],[0.75,0,0],[1,0.25,0],[1,0.5,0],[1,0.75,0],[0.75,1,0],[0.5,1,0],[0.25,1,0],[0,0.75,0],[0,0.5,0],[0,0.25,0]];shape=mxgraph.bpmn.task;whiteSpace=wrap;rectStyle=rounded;size=10;html=1;container=1;expand=0;collapsible=0;taskMarker=abstract;" parent="n2gwg3w4biH0eDLSQyM0-4" vertex="1">
          <mxGeometry x="810" y="60" width="120" height="80" as="geometry" />
        </mxCell>
        <mxCell id="n2gwg3w4biH0eDLSQyM0-11" value="" style="edgeStyle=orthogonalEdgeStyle;rounded=0;orthogonalLoop=1;jettySize=auto;html=1;" parent="n2gwg3w4biH0eDLSQyM0-4" source="n2gwg3w4biH0eDLSQyM0-12" target="n2gwg3w4biH0eDLSQyM0-13" edge="1">
          <mxGeometry relative="1" as="geometry" />
        </mxCell>
        <mxCell id="4BCcGXcV7bWzf24ACTQs-4" value="Complete with code" style="points=[[0.25,0,0],[0.5,0,0],[0.75,0,0],[1,0.25,0],[1,0.5,0],[1,0.75,0],[0.75,1,0],[0.5,1,0],[0.25,1,0],[0,0.75,0],[0,0.5,0],[0,0.25,0]];shape=mxgraph.bpmn.task;whiteSpace=wrap;rectStyle=rounded;size=10;html=1;container=1;expand=0;collapsible=0;taskMarker=abstract;" parent="n2gwg3w4biH0eDLSQyM0-4" vertex="1">
          <mxGeometry x="560" y="60" width="120" height="80" as="geometry" />
        </mxCell>
        <mxCell id="n2gwg3w4biH0eDLSQyM0-15" style="edgeStyle=orthogonalEdgeStyle;rounded=0;orthogonalLoop=1;jettySize=auto;html=1;" parent="1" source="n2gwg3w4biH0eDLSQyM0-2" target="n2gwg3w4biH0eDLSQyM0-10" edge="1">
          <mxGeometry relative="1" as="geometry" />
        </mxCell>
        <mxCell id="n2gwg3w4biH0eDLSQyM0-21" style="edgeStyle=orthogonalEdgeStyle;rounded=0;orthogonalLoop=1;jettySize=auto;html=1;exitX=0.5;exitY=1;exitDx=0;exitDy=0;exitPerimeter=0;" parent="1" source="n2gwg3w4biH0eDLSQyM0-19" target="n2gwg3w4biH0eDLSQyM0-12" edge="1">
          <mxGeometry relative="1" as="geometry" />
        </mxCell>
        <mxCell id="4BCcGXcV7bWzf24ACTQs-5" style="edgeStyle=orthogonalEdgeStyle;rounded=0;orthogonalLoop=1;jettySize=auto;html=1;" parent="1" source="4BCcGXcV7bWzf24ACTQs-1" target="4BCcGXcV7bWzf24ACTQs-4" edge="1">
          <mxGeometry relative="1" as="geometry" />
        </mxCell>
        <mxCell id="4BCcGXcV7bWzf24ACTQs-6" style="edgeStyle=orthogonalEdgeStyle;rounded=0;orthogonalLoop=1;jettySize=auto;html=1;entryX=0;entryY=0.5;entryDx=0;entryDy=0;entryPerimeter=0;" parent="1" source="4BCcGXcV7bWzf24ACTQs-4" target="n2gwg3w4biH0eDLSQyM0-19" edge="1">
          <mxGeometry relative="1" as="geometry" />
        </mxCell>
      </root>
    </mxGraphModel>
  </diagram>
</mxfile>
